<?xml version="1.0" encoding="utf-8"?>
<!-- Generator: Adobe Illustrator 16.0.0, SVG Export Plug-In . SVG Version: 6.00 Build 0)  -->
<!DOCTYPE svg PUBLIC "-//W3C//DTD SVG 1.1//EN" "http://www.w3.org/Graphics/SVG/1.1/DTD/svg11.dtd">
<svg version="1.1" id="Layer_1" xmlns="http://www.w3.org/2000/svg" xmlns:xlink="http://www.w3.org/1999/xlink" x="0px" y="0px"
	 width="12.96px" height="13.104px" viewBox="0 0 12.96 13.104" enable-background="new 0 0 12.96 13.104" xml:space="preserve">
<g>
	<path fill-rule="evenodd" clip-rule="evenodd" d="M6.282,4.813c0-0.357,0-0.722,0-1.103c0.145,0,0.266,0,0.414,0
		c0,0.373,0,0.736,0,1.118C7.24,4.931,7.693,5.178,7.941,5.65C8.093,5.938,8.194,6.293,8.19,6.616
		c-0.01,0.855-0.526,1.408-1.479,1.657c0,0.363,0,0.736,0,1.127c-0.149,0-0.27,0-0.423,0c0-0.37,0-0.741,0-1.1
		C5.211,7.906,4.764,7.38,4.771,6.539C4.776,5.704,5.254,5.152,6.282,4.813z M6.483,5.263c-0.707,0.002-1.28,0.575-1.282,1.282
		c-0.002,0.719,0.58,1.302,1.295,1.294c0.713-0.006,1.274-0.567,1.281-1.281C7.784,5.843,7.202,5.261,6.483,5.263z"/>
	<path fill-rule="evenodd" clip-rule="evenodd" d="M6.684,3.389c-0.143,0-0.265,0-0.398,0c0-0.271,0-0.526,0-0.797
		c0.136,0,0.258,0,0.398,0C6.684,2.855,6.684,3.11,6.684,3.389z"/>
	<path fill-rule="evenodd" clip-rule="evenodd" d="M6.688,10.511c-0.135,0-0.257,0-0.397,0c0-0.264,0-0.519,0-0.793
		c0.128,0,0.256,0,0.397,0C6.688,9.979,6.688,10.237,6.688,10.511z"/>
	<path fill-rule="evenodd" clip-rule="evenodd" d="M6.281,2.056c0-0.149,0-0.273,0-0.417c0.136,0,0.263,0,0.405,0
		c0,0.134,0,0.265,0,0.417C6.55,2.056,6.418,2.056,6.281,2.056z"/>
	<path fill-rule="evenodd" clip-rule="evenodd" d="M6.688,11.045c0,0.148,0,0.278,0,0.422c-0.133,0-0.253,0-0.396,0
		c0-0.135,0-0.27,0-0.422C6.417,11.045,6.537,11.045,6.688,11.045z"/>
</g>
</svg>
