<?xml version="1.0" encoding="utf-8"?>
<!-- Generator: Adobe Illustrator 16.0.0, SVG Export Plug-In . SVG Version: 6.00 Build 0)  -->
<!DOCTYPE svg PUBLIC "-//W3C//DTD SVG 1.1//EN" "http://www.w3.org/Graphics/SVG/1.1/DTD/svg11.dtd">
<svg version="1.1" id="Layer_1" xmlns="http://www.w3.org/2000/svg" xmlns:xlink="http://www.w3.org/1999/xlink" x="0px" y="0px"
	 width="12.96px" height="13.104px" viewBox="0 0 12.96 13.104" enable-background="new 0 0 12.96 13.104" xml:space="preserve">
<g>
	
		<rect x="8.061" y="2.381" transform="matrix(-0.744 -0.6681 0.6681 -0.744 15.2861 11.5006)" fill="#424245" width="3.57" height="0.883"/>
	<path fill="#A94F78" d="M11.469,3.687l0.622-0.692c0.166-0.185,0.042-0.57-0.277-0.854l-1.5-1.347
		C9.996,0.507,9.6,0.425,9.435,0.609L8.813,1.301L11.469,3.687z"/>
	
		<rect x="6.905" y="2.821" transform="matrix(-0.744 -0.6681 0.6681 -0.744 8.2596 17.5963)" fill="#EBA857" width="1.19" height="8.79"/>
	
		<rect x="6.02" y="2.026" transform="matrix(-0.744 -0.6681 0.6681 -0.744 7.2461 15.6187)" fill="#E6943E" width="1.19" height="8.79"/>
	
		<rect x="5.135" y="1.231" transform="matrix(-0.744 -0.6681 0.6681 -0.744 6.2333 13.6408)" fill="#B17234" width="1.19" height="8.79"/>
	<polyline fill="#F1DDC2" points="4.098,10.117 4.936,10.072 4.98,10.91 	"/>
	<polyline fill="#F1DDC2" points="2.327,8.527 3.166,8.482 3.21,9.32 	"/>
	<polyline fill="#F1DDC2" points="3.212,9.322 4.05,9.277 4.096,10.115 	"/>
	<path fill="#F1DDC2" d="M2.34,8.511c0.02-0.022,1.341,1.178,1.341,1.178s1.334,1.186,1.314,1.208L0.92,12.764L2.34,8.511z"/>
	<polygon fill="#44413E" points="1.179,11.987 0.92,12.764 1.665,12.423 	"/>
</g>
</svg>
