<?xml version="1.0" encoding="utf-8"?>
<!-- Generator: Adobe Illustrator 16.0.0, SVG Export Plug-In . SVG Version: 6.00 Build 0)  -->
<!DOCTYPE svg PUBLIC "-//W3C//DTD SVG 1.1//EN" "http://www.w3.org/Graphics/SVG/1.1/DTD/svg11.dtd">
<svg version="1.1" id="Layer_1" xmlns="http://www.w3.org/2000/svg" xmlns:xlink="http://www.w3.org/1999/xlink" x="0px" y="0px"
	 width="12.96px" height="13.104px" viewBox="0 0 12.96 13.104" enable-background="new 0 0 12.96 13.104" xml:space="preserve">
<g>
	<g>
		<defs>
			<rect id="SVGID_1_" x="-0.365" y="-10.854" width="37.964" height="37.964"/>
		</defs>
		<clipPath id="SVGID_2_">
			<use xlink:href="#SVGID_1_"  overflow="visible"/>
		</clipPath>
		<rect x="-0.365" y="-10.854" clip-path="url(#SVGID_2_)" fill="#FFFFFF" width="37.964" height="37.964"/>
		<polygon clip-path="url(#SVGID_2_)" fill="#E5A228" points="28.376,11.808 27.729,3.355 35.972,3.355 35.231,11.808 31.85,12.824 
					"/>
		<polygon clip-path="url(#SVGID_2_)" fill="#F0BF23" points="31.85,11.891 31.85,3.912 35.276,3.912 34.713,11 		"/>
		<polygon clip-path="url(#SVGID_2_)" fill="#E5E5E5" points="29.789,8.256 30.068,4.691 31.906,4.691 31.906,5.694 30.959,5.75 
			30.792,7.31 31.906,7.31 31.906,8.256 		"/>
		<path clip-path="url(#SVGID_2_)" fill="#E5E5E5" d="M31.906,4.637h-1.838v0.11h1.838V4.637z M31.961,5.694V4.691h-0.11v1.003
			H31.961z M30.962,5.805l0.947-0.056l-0.007-0.11l-0.947,0.056L30.962,5.805z M30.847,7.315l0.167-1.56l-0.109-0.012l-0.167,1.56
			L30.847,7.315z M31.906,7.254h-1.114v0.11h1.114V7.254z M31.961,8.256V7.31h-0.11v0.947H31.961z M29.789,8.312h2.117v-0.11h-2.117
			V8.312z M30.013,4.688l-0.278,3.564l0.11,0.009l0.278-3.565L30.013,4.688z M31.906,4.691h0.055V4.637h-0.055V4.691z M31.906,5.694
			l0.003,0.055l0.052-0.003V5.694H31.906z M30.959,5.75l-0.003-0.055l-0.046,0.003l-0.005,0.046L30.959,5.75z M30.792,7.31
			l-0.055-0.006L30.73,7.364h0.062V7.31z M31.906,7.31h0.055V7.254h-0.055V7.31z M31.906,8.256v0.055h0.055V8.256H31.906z
			 M29.789,8.256l-0.055-0.004l-0.005,0.06h0.06V8.256z M30.068,4.691V4.637h-0.051l-0.004,0.051L30.068,4.691z"/>
		<polygon clip-path="url(#SVGID_2_)" fill="#E5E5E5" points="30.736,8.758 29.733,8.758 29.901,10.317 31.906,10.874 31.906,9.872 
			30.792,9.538 		"/>
		<path clip-path="url(#SVGID_2_)" fill="#E5E5E5" d="M29.956,10.312l-0.167-1.56l-0.109,0.012l0.167,1.56L29.956,10.312z
			 M31.92,10.821l-2.005-0.557l-0.03,0.106l2.005,0.557L31.92,10.821z M31.851,9.872v1.002h0.11V9.872H31.851z M30.776,9.59
			l1.114,0.334l0.031-0.105l-1.114-0.334L30.776,9.59z M30.681,8.762l0.056,0.78l0.11-0.008l-0.056-0.78L30.681,8.762z
			 M29.733,8.813h1.003v-0.11h-1.003V8.813z M29.901,10.317l-0.055,0.006l0.004,0.037l0.036,0.01L29.901,10.317z M31.906,10.874
			l-0.015,0.053l0.07,0.02v-0.073H31.906z M31.906,9.872h0.055V9.831l-0.04-0.012L31.906,9.872z M30.792,9.538l-0.055,0.004
			l0.003,0.038l0.036,0.011L30.792,9.538z M30.736,8.758l0.055-0.004l-0.004-0.051h-0.051V8.758z M29.733,8.758V8.703h-0.061
			l0.006,0.061L29.733,8.758z"/>
		<polygon clip-path="url(#SVGID_2_)" fill="#FFFFFF" points="33.131,5.806 31.906,5.694 31.906,4.691 34.022,4.691 34.189,6.808 
			33.187,6.808 		"/>
		<path clip-path="url(#SVGID_2_)" fill="#FFFFFF" d="M31.851,4.691v1.003h0.11V4.691H31.851z M34.022,4.637h-2.117v0.11h2.117
			V4.637z M34.244,6.804l-0.167-2.116l-0.11,0.008l0.167,2.117L34.244,6.804z M33.187,6.863h1.002v-0.11h-1.002V6.863z
			 M33.076,5.809l0.056,1.003l0.11-0.006l-0.056-1.002L33.076,5.809z M31.901,5.749l1.225,0.111l0.01-0.109l-1.226-0.112
			L31.901,5.749z M31.906,4.691V4.637h-0.055v0.055H31.906z M34.022,4.691l0.055-0.004l-0.004-0.051h-0.051V4.691z M34.189,6.808
			v0.055h0.06l-0.005-0.06L34.189,6.808z M33.187,6.808l-0.055,0.003l0.003,0.052h0.052V6.808z M33.131,5.806l0.055-0.003
			l-0.002-0.048l-0.047-0.004L33.131,5.806z M31.906,5.694h-0.055v0.05l0.05,0.004L31.906,5.694z"/>
		<polygon clip-path="url(#SVGID_2_)" fill="#FFFFFF" points="31.906,8.256 31.906,7.31 34.189,7.31 33.911,10.317 31.906,10.874 
			31.906,9.872 33.02,9.538 33.131,8.256 		"/>
		<path clip-path="url(#SVGID_2_)" fill="#FFFFFF" d="M34.189,7.254h-2.284v0.11h2.284V7.254z M33.966,10.322l0.278-3.008
			l-0.109-0.01l-0.279,3.008L33.966,10.322z M31.92,10.927l2.005-0.557l-0.03-0.106l-2.005,0.557L31.92,10.927z M31.851,9.872v1.002
			h0.11V9.872H31.851z M33.004,9.485L31.89,9.819l0.031,0.105l1.114-0.334L33.004,9.485z M33.076,8.251l-0.111,1.281l0.11,0.009
			l0.111-1.281L33.076,8.251z M31.906,8.312h1.226v-0.11h-1.226V8.312z M31.851,7.31v0.947h0.11V7.31H31.851z M34.189,7.31
			l0.055,0.005l0.006-0.06h-0.061V7.31z M33.911,10.317l0.015,0.053l0.037-0.01l0.003-0.038L33.911,10.317z M31.906,10.874h-0.055
			v0.073l0.07-0.02L31.906,10.874z M31.906,9.872L31.89,9.819l-0.04,0.012v0.041H31.906z M33.02,9.538l0.016,0.053l0.036-0.011
			l0.003-0.038L33.02,9.538z M33.131,8.256l0.055,0.005l0.005-0.06h-0.06V8.256z M31.906,8.256h-0.055v0.055h0.055V8.256z
			 M31.906,7.31V7.254h-0.055V7.31H31.906z"/>
		<path clip-path="url(#SVGID_2_)" fill="#E5A228" d="M33.142,2.111c0,0.073-0.015,0.14-0.046,0.198
			c-0.031,0.058-0.074,0.106-0.13,0.146c-0.056,0.04-0.122,0.07-0.198,0.09c-0.076,0.022-0.16,0.033-0.251,0.033
			c-0.086,0-0.17-0.01-0.251-0.031c-0.081-0.019-0.153-0.051-0.218-0.097c-0.063-0.046-0.114-0.104-0.152-0.174
			c-0.039-0.072-0.058-0.16-0.058-0.264h0.297c0,0.064,0.011,0.118,0.033,0.159c0.022,0.04,0.05,0.071,0.086,0.095
			c0.037,0.023,0.078,0.04,0.123,0.048s0.092,0.013,0.139,0.013c0.102,0,0.182-0.019,0.24-0.057c0.06-0.038,0.09-0.09,0.09-0.156
			c0-0.032-0.007-0.062-0.02-0.088c-0.012-0.026-0.032-0.05-0.062-0.07c-0.029-0.022-0.068-0.042-0.117-0.062
			s-0.108-0.039-0.178-0.06h-0.002c-0.086-0.023-0.166-0.048-0.238-0.075c-0.07-0.028-0.131-0.061-0.183-0.099
			c-0.05-0.039-0.089-0.083-0.117-0.134c-0.028-0.053-0.042-0.116-0.042-0.189c0-0.069,0.015-0.132,0.044-0.189
			c0.031-0.057,0.074-0.106,0.128-0.146c0.056-0.041,0.121-0.073,0.196-0.094c0.077-0.024,0.16-0.036,0.251-0.036
			c0.095,0,0.181,0.014,0.257,0.042c0.078,0.028,0.143,0.067,0.196,0.117c0.054,0.048,0.096,0.107,0.125,0.176
			c0.029,0.069,0.044,0.145,0.044,0.229h-0.295c0-0.102-0.03-0.179-0.088-0.231c-0.059-0.054-0.139-0.082-0.24-0.082
			c-0.107,0-0.188,0.02-0.243,0.06c-0.054,0.04-0.082,0.09-0.082,0.15c0,0.063,0.03,0.114,0.088,0.152s0.152,0.074,0.28,0.108
			c0.095,0.026,0.18,0.056,0.253,0.088c0.073,0.031,0.135,0.067,0.185,0.108c0.05,0.042,0.087,0.088,0.112,0.141
			C33.128,1.981,33.142,2.042,33.142,2.111z M31.591,2.03c0,0.09-0.014,0.169-0.042,0.238c-0.028,0.067-0.067,0.125-0.117,0.171
			c-0.05,0.045-0.109,0.08-0.178,0.104c-0.067,0.024-0.142,0.035-0.222,0.035c-0.084,0-0.16-0.012-0.229-0.037
			c-0.069-0.023-0.128-0.06-0.179-0.108c-0.048-0.048-0.086-0.109-0.114-0.181c-0.026-0.073-0.04-0.159-0.04-0.255h0.295
			c0,0.11,0.022,0.193,0.068,0.249c0.047,0.055,0.113,0.082,0.198,0.082c0.075,0,0.137-0.024,0.187-0.072
			c0.051-0.05,0.077-0.125,0.077-0.225V0.892h0.295V2.03z"/>
		<polygon clip-path="url(#SVGID_2_)" fill="#E34E26" points="3.359,11.773 2.648,3.405 10.893,3.405 10.157,11.773 6.795,12.779 		
			"/>
		<path clip-path="url(#SVGID_2_)" fill="#E34E26" d="M10.893,3.351H2.648v0.11h8.245V3.351z M10.211,11.778l0.736-8.368
			l-0.11-0.009l-0.736,8.368L10.211,11.778z M6.811,12.832l3.362-1.006l-0.032-0.105l-3.361,1.006L6.811,12.832z M3.344,11.826
			l3.436,1.006l0.031-0.106L3.375,11.72L3.344,11.826z M2.593,3.41l0.711,8.368l0.109-0.009L2.703,3.401L2.593,3.41z M10.893,3.405
			l0.055,0.005l0.005-0.06h-0.06V3.405z M10.157,11.773l0.016,0.053l0.036-0.01l0.003-0.038L10.157,11.773z M6.795,12.779
			l-0.016,0.053l0.016,0.004l0.016-0.004L6.795,12.779z M3.359,11.773l-0.055,0.005l0.003,0.038l0.036,0.011L3.359,11.773z
			 M2.648,3.405V3.351h-0.06l0.005,0.06L2.648,3.405z"/>
		<polygon clip-path="url(#SVGID_2_)" fill="#F1662A" points="6.771,12.141 6.771,4.142 10.132,4.142 9.445,11.405 		"/>
		<path clip-path="url(#SVGID_2_)" fill="#F1662A" d="M10.132,4.086H6.771v0.11h3.362V4.086z M9.5,11.41l0.687-7.263l-0.109-0.011
			L9.39,11.4L9.5,11.41z M6.785,12.194l2.675-0.736l-0.029-0.106l-2.675,0.736L6.785,12.194z M6.715,4.142v8h0.11v-8H6.715z
			 M10.132,4.142l0.055,0.005l0.006-0.061h-0.061V4.142z M9.445,11.405l0.015,0.053l0.036-0.01L9.5,11.41L9.445,11.405z
			 M6.771,12.141H6.715v0.072l0.07-0.019L6.771,12.141z M6.771,4.142V4.086H6.715v0.055H6.771z"/>
		<polygon clip-path="url(#SVGID_2_)" fill="#FFFFFF" points="6.721,8.215 6.721,7.283 9.077,7.283 8.832,10.375 6.721,11.012 
			6.721,9.933 7.899,9.564 7.973,8.215 		"/>
		<path clip-path="url(#SVGID_2_)" fill="#FFFFFF" d="M9.077,7.228H6.721v0.11h2.356V7.228z M8.886,10.379l0.246-3.092l-0.11-0.009
			L8.777,10.37L8.886,10.379z M6.737,11.065l2.11-0.638l-0.032-0.105l-2.11,0.638L6.737,11.065z M6.666,9.933v1.08h0.11v-1.08H6.666
			z M7.883,9.512L6.705,9.88l0.033,0.105l1.178-0.368L7.883,9.512z M7.918,8.212l-0.074,1.35l0.11,0.006l0.074-1.35L7.918,8.212z
			 M6.721,8.27h1.251V8.16H6.721V8.27z M6.666,7.283v0.932h0.11V7.283H6.666z M9.077,7.283l0.055,0.004l0.005-0.059h-0.06V7.283z
			 M8.832,10.375l0.016,0.053l0.036-0.011l0.003-0.037L8.832,10.375z M6.721,11.012H6.666v0.074l0.071-0.021L6.721,11.012z
			 M6.721,9.933L6.705,9.88L6.666,9.892v0.041H6.721z M7.899,9.564l0.017,0.053l0.037-0.011l0.002-0.039L7.899,9.564z M7.973,8.215
			l0.055,0.003L8.031,8.16H7.973V8.215z M6.721,8.215H6.666V8.27h0.055V8.215z M6.721,7.283V7.228H6.666v0.055H6.721z"/>
		<polygon clip-path="url(#SVGID_2_)" fill="#FFFFFF" points="6.721,5.172 6.721,6.154 9.224,6.154 9.298,5.172 		"/>
		<path clip-path="url(#SVGID_2_)" fill="#FFFFFF" d="M9.224,6.099H6.721v0.11h2.503V6.099z M9.243,5.168L9.169,6.149l0.109,0.008
			l0.074-0.981L9.243,5.168z M6.721,5.227h2.577v-0.11H6.721V5.227z M6.776,6.154V5.172h-0.11v0.981H6.776z M9.224,6.154v0.055
			h0.051l0.003-0.051L9.224,6.154z M9.298,5.172l0.055,0.004l0.004-0.059h-0.06V5.172z M6.721,5.172V5.117H6.666v0.055H6.721z
			 M6.721,6.154H6.666v0.055h0.055V6.154z"/>
		<polygon clip-path="url(#SVGID_2_)" fill="#EBEBEB" points="4.169,5.172 6.721,5.172 6.721,6.154 5.249,6.154 5.323,7.283 
			6.721,7.283 6.721,8.215 4.39,8.215 		"/>
		<path clip-path="url(#SVGID_2_)" fill="#EBEBEB" d="M6.776,6.154V5.172h-0.11v0.981H6.776z M5.249,6.209h1.472v-0.11H5.249V6.209z
			 M5.377,7.279L5.304,6.15l-0.11,0.007l0.074,1.129L5.377,7.279z M6.721,7.228H5.323v0.11h1.398V7.228z M6.776,8.215V7.283h-0.11
			v0.933H6.776z M4.39,8.27h2.331V8.16H4.39V8.27z M4.114,5.176l0.221,3.043l0.11-0.008L4.224,5.168L4.114,5.176z M6.721,5.117
			H4.169v0.11h2.552V5.117z M6.721,6.154v0.055h0.055V6.154H6.721z M5.249,6.154V6.099H5.19l0.004,0.059L5.249,6.154z M5.323,7.283
			L5.268,7.286l0.003,0.051h0.052V7.283z M6.721,7.283h0.055V7.228H6.721V7.283z M6.721,8.215V8.27h0.055V8.215H6.721z M4.39,8.215
			L4.335,8.219L4.339,8.27H4.39V8.215z M4.169,5.172V5.117H4.11l0.004,0.059L4.169,5.172z M6.721,5.172h0.055V5.117H6.721V5.172z"/>
		<polygon clip-path="url(#SVGID_2_)" fill="#EBEBEB" points="5.494,8.804 4.488,8.804 4.562,10.35 6.721,11.012 6.721,9.933 
			5.494,9.589 		"/>
		<path clip-path="url(#SVGID_2_)" fill="#EBEBEB" d="M4.617,10.347L4.543,8.801l-0.11,0.005l0.074,1.546L4.617,10.347z
			 M6.737,10.96l-2.159-0.663l-0.032,0.105l2.159,0.663L6.737,10.96z M6.666,9.933v1.08h0.11v-1.08H6.666z M5.479,9.642l1.227,0.343
			l0.03-0.105L5.509,9.536L5.479,9.642z M5.439,8.804v0.785h0.11V8.804H5.439z M4.488,8.859h1.006v-0.11H4.488V8.859z M4.562,10.35
			l-0.055,0.003l0.002,0.039l0.037,0.011L4.562,10.35z M6.721,11.012l-0.016,0.053l0.071,0.022v-0.075H6.721z M6.721,9.933h0.055
			V9.891L6.736,9.88L6.721,9.933z M5.494,9.589H5.439v0.042l0.04,0.011L5.494,9.589z M5.494,8.804h0.055V8.749H5.494V8.804z
			 M4.488,8.804V8.749H4.431l0.002,0.058L4.488,8.804z"/>
		<path clip-path="url(#SVGID_2_)" fill="#E34E26" d="M10.002,2.556H8.918V0.892h0.295v1.414h0.789V2.556z M8.565,2.556H8.27V1.675
			l0.009-0.154H8.257L7.83,2.556H7.601L7.173,1.521H7.151l0.009,0.154v0.881H6.865V0.892H7.2l0.504,1.242h0.022L8.23,0.892h0.335
			V2.556z M6.656,1.143H6.112v1.414H5.817V1.143H5.273V0.892h1.383V1.143z M5.063,2.556H4.769V1.825H4.011v0.731H3.716V0.892h0.295
			v0.683h0.758V0.892h0.295V2.556z"/>
		<path clip-path="url(#SVGID_2_)" fill="#0971B9" d="M21.475,2.162c0,0.073-0.015,0.14-0.046,0.198
			c-0.031,0.057-0.074,0.105-0.13,0.146c-0.056,0.04-0.122,0.069-0.198,0.09c-0.076,0.022-0.16,0.033-0.251,0.033
			c-0.087,0-0.17-0.01-0.251-0.031c-0.081-0.019-0.153-0.051-0.218-0.097c-0.063-0.045-0.114-0.103-0.152-0.174
			c-0.038-0.072-0.057-0.16-0.057-0.264h0.297c0,0.065,0.011,0.118,0.033,0.159c0.022,0.04,0.051,0.071,0.086,0.095
			c0.037,0.023,0.078,0.04,0.124,0.048s0.091,0.013,0.139,0.013c0.101,0,0.181-0.019,0.24-0.057c0.061-0.038,0.09-0.09,0.09-0.156
			c0-0.033-0.006-0.062-0.02-0.088c-0.012-0.026-0.033-0.05-0.062-0.07c-0.029-0.022-0.068-0.042-0.117-0.062
			c-0.048-0.019-0.108-0.039-0.178-0.06h-0.002c-0.086-0.023-0.166-0.048-0.238-0.075c-0.07-0.028-0.131-0.061-0.183-0.099
			c-0.05-0.038-0.089-0.083-0.117-0.134c-0.028-0.053-0.042-0.116-0.042-0.189c0-0.069,0.015-0.132,0.044-0.189
			c0.031-0.057,0.073-0.105,0.127-0.145c0.056-0.041,0.121-0.073,0.196-0.095c0.076-0.023,0.16-0.035,0.251-0.035
			c0.095,0,0.181,0.014,0.257,0.042c0.078,0.028,0.143,0.067,0.196,0.117c0.054,0.048,0.096,0.107,0.125,0.176
			c0.029,0.069,0.044,0.146,0.044,0.229h-0.295c0-0.102-0.029-0.179-0.088-0.231c-0.059-0.054-0.139-0.082-0.24-0.082
			c-0.107,0-0.188,0.02-0.243,0.06c-0.054,0.04-0.081,0.089-0.081,0.149c0,0.063,0.029,0.114,0.088,0.152
			c0.059,0.038,0.152,0.074,0.28,0.108c0.095,0.026,0.18,0.056,0.253,0.088c0.073,0.031,0.135,0.067,0.185,0.108
			c0.05,0.041,0.087,0.088,0.112,0.141C21.461,2.032,21.475,2.093,21.475,2.162z M20.03,2.162c0,0.073-0.016,0.14-0.046,0.198
			c-0.031,0.057-0.074,0.105-0.13,0.146c-0.056,0.04-0.122,0.069-0.198,0.09c-0.076,0.022-0.16,0.033-0.251,0.033
			c-0.086,0-0.17-0.01-0.251-0.031C19.073,2.579,19,2.547,18.936,2.501c-0.063-0.045-0.113-0.103-0.151-0.174
			c-0.039-0.072-0.058-0.16-0.058-0.264h0.297c0,0.065,0.011,0.118,0.033,0.159c0.022,0.04,0.05,0.071,0.086,0.095
			c0.037,0.023,0.078,0.04,0.123,0.048s0.092,0.013,0.139,0.013c0.102,0,0.182-0.019,0.24-0.057c0.06-0.038,0.09-0.09,0.09-0.156
			c0-0.033-0.007-0.062-0.02-0.088c-0.012-0.026-0.032-0.05-0.062-0.07c-0.029-0.022-0.068-0.042-0.117-0.062
			s-0.108-0.039-0.179-0.06h-0.002C19.27,1.861,19.19,1.836,19.119,1.81c-0.07-0.028-0.131-0.061-0.183-0.099
			c-0.05-0.038-0.088-0.083-0.116-0.134c-0.028-0.053-0.042-0.116-0.042-0.189c0-0.069,0.015-0.132,0.044-0.189
			c0.031-0.057,0.074-0.105,0.128-0.145c0.056-0.041,0.121-0.073,0.196-0.095c0.077-0.023,0.16-0.035,0.251-0.035
			c0.096,0,0.181,0.014,0.258,0.042c0.078,0.028,0.143,0.067,0.196,0.117c0.054,0.048,0.096,0.107,0.125,0.176
			c0.03,0.069,0.044,0.146,0.044,0.229h-0.295c0-0.102-0.029-0.179-0.088-0.231c-0.059-0.054-0.139-0.082-0.24-0.082
			c-0.107,0-0.188,0.02-0.242,0.06s-0.082,0.089-0.082,0.149c0,0.063,0.029,0.114,0.088,0.152c0.059,0.038,0.152,0.074,0.279,0.108
			c0.096,0.026,0.18,0.056,0.253,0.088c0.073,0.031,0.135,0.067,0.185,0.108c0.05,0.041,0.087,0.088,0.112,0.141
			C20.017,2.032,20.03,2.093,20.03,2.162z M18.58,2.037c-0.013,0.095-0.041,0.18-0.082,0.253c-0.041,0.073-0.092,0.135-0.152,0.185
			c-0.059,0.05-0.125,0.087-0.201,0.112c-0.073,0.027-0.151,0.04-0.233,0.04c-0.108,0-0.207-0.02-0.295-0.058
			c-0.088-0.037-0.164-0.091-0.227-0.163c-0.063-0.073-0.113-0.163-0.148-0.269c-0.034-0.105-0.05-0.227-0.05-0.363
			s0.017-0.257,0.05-0.363c0.035-0.105,0.084-0.194,0.148-0.267c0.063-0.073,0.139-0.128,0.227-0.165
			c0.088-0.038,0.187-0.057,0.295-0.057c0.083,0,0.16,0.013,0.233,0.04c0.075,0.025,0.142,0.063,0.201,0.112
			c0.06,0.05,0.111,0.112,0.152,0.185s0.068,0.158,0.082,0.253h-0.295c-0.021-0.11-0.065-0.193-0.132-0.251
			c-0.067-0.059-0.147-0.088-0.24-0.088c-0.133,0-0.238,0.053-0.313,0.159c-0.075,0.104-0.112,0.251-0.112,0.442
			s0.037,0.339,0.112,0.445c0.075,0.104,0.179,0.156,0.313,0.156c0.093,0,0.173-0.028,0.24-0.085
			c0.067-0.059,0.111-0.144,0.132-0.253H18.58z"/>
		<polygon clip-path="url(#SVGID_2_)" fill="#188ECE" points="15.846,11.808 15.2,3.355 23.421,3.355 22.683,11.808 19.311,12.824 
					"/>
		<polygon clip-path="url(#SVGID_2_)" fill="#42A5DD" points="19.357,12.131 19.357,4.278 22.729,4.278 22.175,11.253 		"/>
		<polygon clip-path="url(#SVGID_2_)" fill="#E5E5E5" points="16.863,6.126 16.771,5.11 19.357,5.11 19.357,6.126 		"/>
		<path clip-path="url(#SVGID_2_)" fill="#E5E5E5" d="M19.357,5.056h-2.586v0.11h2.586V5.056z M19.412,6.126V5.11h-0.11v1.016
			H19.412z M16.863,6.182h2.494v-0.11h-2.494V6.182z M16.715,5.115l0.092,1.016l0.11-0.01l-0.092-1.016L16.715,5.115z M19.357,5.11
			h0.055V5.056h-0.055V5.11z M19.357,6.126v0.055h0.055V6.126H19.357z M16.863,6.126l-0.055,0.005l0.005,0.05h0.05V6.126z
			 M16.771,5.11V5.056H16.71l0.005,0.06L16.771,5.11z"/>
		<path clip-path="url(#SVGID_2_)" fill="#E5E5E5" d="M16.955,7.188c0.77-0.354,2.319-1.063,2.355-1.063v1.986h-2.31L16.955,7.188z"
			/>
		<path clip-path="url(#SVGID_2_)" fill="#E5E5E5" d="M19.366,8.112V6.126h-0.11v1.986H19.366z M17.001,8.167h2.31v-0.11h-2.31
			V8.167z M16.9,7.191l0.046,0.924l0.11-0.005L17.01,7.186L16.9,7.191z M19.311,6.071c-0.008,0-0.015,0.002-0.017,0.002
			c-0.003,0-0.006,0.001-0.009,0.002c-0.005,0.002-0.011,0.004-0.019,0.007c-0.014,0.005-0.034,0.014-0.058,0.023
			c-0.048,0.021-0.115,0.049-0.196,0.085c-0.163,0.072-0.384,0.172-0.628,0.283c-0.488,0.221-1.068,0.487-1.453,0.664l0.046,0.1
			c0.385-0.177,0.964-0.443,1.452-0.664c0.244-0.111,0.465-0.21,0.627-0.282c0.081-0.036,0.147-0.064,0.194-0.084
			c0.023-0.01,0.042-0.018,0.055-0.022c0.006-0.002,0.011-0.004,0.014-0.005c0.001-0.001,0.002-0.001,0.001-0.001
			c0,0-0.001,0-0.002,0.001c-0.001,0-0.004,0-0.009,0V6.071z M19.311,8.112v0.055h0.055V8.112H19.311z M17.001,8.112l-0.055,0.003
			l0.002,0.052h0.052V8.112z M16.955,7.188l-0.023-0.05l-0.034,0.015L16.9,7.191L16.955,7.188z M19.311,6.126h0.055V6.071h-0.055
			V6.126z"/>
		<polygon clip-path="url(#SVGID_2_)" fill="#E5E5E5" points="18.11,8.713 17.047,8.713 17.186,10.283 19.311,11.068 19.311,9.821 
			18.11,9.452 		"/>
		<path clip-path="url(#SVGID_2_)" fill="#E5E5E5" d="M17.241,10.278l-0.139-1.57l-0.109,0.01l0.139,1.57L17.241,10.278z
			 M19.33,11.017l-2.125-0.785l-0.038,0.104l2.125,0.785L19.33,11.017z M19.256,9.821v1.247h0.11V9.821H19.256z M18.094,9.504
			l1.201,0.37l0.033-0.105l-1.201-0.369L18.094,9.504z M18.055,8.713v0.739h0.11V8.713H18.055z M17.047,8.768h1.063v-0.11h-1.063
			V8.768z M17.186,10.283l-0.055,0.005l0.003,0.035l0.033,0.012L17.186,10.283z M19.311,11.068l-0.02,0.052l0.074,0.027v-0.079
			H19.311z M19.311,9.821h0.055V9.781l-0.039-0.012L19.311,9.821z M18.11,9.452h-0.055v0.041l0.039,0.012L18.11,9.452z M18.11,8.713
			h0.055V8.658H18.11V8.713z M17.047,8.713V8.658h-0.06l0.005,0.06L17.047,8.713z"/>
		<polygon clip-path="url(#SVGID_2_)" fill="#FFFFFF" points="19.357,8.112 19.357,5.11 21.99,5.11 21.99,6.126 19.911,7.05 
			21.851,7.05 21.62,10.237 19.357,11.068 19.357,9.821 20.604,9.452 20.65,8.112 		"/>
		<path clip-path="url(#SVGID_2_)" fill="#FFFFFF" d="M21.99,5.055h-2.633v0.11h2.633V5.055z M22.045,6.126V5.11h-0.11v1.016H22.045
			z M19.934,7.1l2.079-0.923l-0.045-0.101L19.889,7L19.934,7.1z M21.851,6.995h-1.94v0.11h1.94V6.995z M21.675,10.241l0.23-3.188
			l-0.109-0.008l-0.231,3.187L21.675,10.241z M19.376,11.12l2.263-0.831l-0.038-0.104l-2.263,0.831L19.376,11.12z M19.302,9.821
			v1.247h0.11V9.821H19.302z M20.588,9.399l-1.247,0.37l0.031,0.105l1.247-0.369L20.588,9.399z M20.595,8.11l-0.046,1.34l0.11,0.003
			l0.046-1.339L20.595,8.11z M19.357,8.167h1.293v-0.11h-1.293V8.167z M19.302,5.11v3.002h0.11V5.11H19.302z M21.99,5.11h0.055
			V5.055H21.99V5.11z M21.99,6.126l0.022,0.051l0.033-0.015V6.126H21.99z M19.911,7.05L19.889,7l0.022,0.105V7.05z M21.851,7.05
			l0.055,0.003l0.005-0.059h-0.06V7.05z M21.62,10.237l0.019,0.052l0.034-0.012l0.002-0.036L21.62,10.237z M19.357,11.068h-0.055
			v0.079l0.074-0.027L19.357,11.068z M19.357,9.821l-0.016-0.053l-0.04,0.012v0.041H19.357z M20.604,9.452l0.016,0.053l0.038-0.011
			l0.001-0.04L20.604,9.452z M20.65,8.112l0.055,0.002l0.002-0.057H20.65V8.112z M19.357,8.112h-0.055v0.055h0.055V8.112z
			 M19.357,5.11V5.055h-0.055V5.11H19.357z"/>
	</g>
</g>
</svg>
