<?xml version="1.0" encoding="utf-8"?>
<!-- Generator: Adobe Illustrator 16.0.0, SVG Export Plug-In . SVG Version: 6.00 Build 0)  -->
<!DOCTYPE svg PUBLIC "-//W3C//DTD SVG 1.1//EN" "http://www.w3.org/Graphics/SVG/1.1/DTD/svg11.dtd">
<svg version="1.1" id="Layer_1" xmlns="http://www.w3.org/2000/svg" xmlns:xlink="http://www.w3.org/1999/xlink" x="0px" y="0px"
	 width="12.96px" height="13.104px" viewBox="0 0 12.96 13.104" enable-background="new 0 0 12.96 13.104" xml:space="preserve">
<g>
	<g>
		<defs>
			<rect id="SVGID_1_" x="-12.924" y="-10.854" width="37.964" height="37.964"/>
		</defs>
		<clipPath id="SVGID_2_">
			<use xlink:href="#SVGID_1_"  overflow="visible"/>
		</clipPath>
		<rect x="-12.924" y="-10.854" clip-path="url(#SVGID_2_)" fill="#FFFFFF" width="37.964" height="37.964"/>
		<polygon clip-path="url(#SVGID_2_)" fill="#E5A228" points="15.817,11.808 15.169,3.355 23.413,3.355 22.672,11.808 
			19.291,12.824 		"/>
		<polygon clip-path="url(#SVGID_2_)" fill="#F0BF23" points="19.291,11.891 19.291,3.912 22.717,3.912 22.154,11 		"/>
		<polygon clip-path="url(#SVGID_2_)" fill="#E5E5E5" points="17.23,8.256 17.509,4.691 19.347,4.691 19.347,5.694 18.4,5.75 
			18.233,7.31 19.347,7.31 19.347,8.256 		"/>
		<path clip-path="url(#SVGID_2_)" fill="#E5E5E5" d="M19.347,4.637h-1.838v0.11h1.838V4.637z M19.402,5.694V4.691h-0.11v1.003
			H19.402z M18.403,5.805l0.947-0.056l-0.007-0.11l-0.947,0.056L18.403,5.805z M18.288,7.315l0.167-1.56l-0.109-0.012l-0.167,1.56
			L18.288,7.315z M19.347,7.254h-1.114v0.11h1.114V7.254z M19.402,8.256V7.31h-0.11v0.947H19.402z M17.23,8.312h2.117v-0.11H17.23
			V8.312z M17.454,4.688l-0.278,3.564l0.11,0.009l0.278-3.565L17.454,4.688z M19.347,4.691h0.055V4.637h-0.055V4.691z M19.347,5.694
			l0.003,0.055l0.052-0.003V5.694H19.347z M18.4,5.75l-0.003-0.055L18.35,5.698l-0.005,0.046L18.4,5.75z M18.233,7.31l-0.055-0.006
			l-0.007,0.061h0.062V7.31z M19.347,7.31h0.055V7.254h-0.055V7.31z M19.347,8.256v0.055h0.055V8.256H19.347z M17.23,8.256
			l-0.055-0.004l-0.005,0.06h0.06V8.256z M17.509,4.691V4.637h-0.051l-0.004,0.051L17.509,4.691z"/>
		<polygon clip-path="url(#SVGID_2_)" fill="#E5E5E5" points="18.177,8.758 17.174,8.758 17.342,10.317 19.347,10.874 19.347,9.872 
			18.233,9.538 		"/>
		<path clip-path="url(#SVGID_2_)" fill="#E5E5E5" d="M17.396,10.312l-0.167-1.56L17.12,8.764l0.167,1.56L17.396,10.312z
			 M19.361,10.821l-2.005-0.557l-0.03,0.106l2.005,0.557L19.361,10.821z M19.292,9.872v1.002h0.11V9.872H19.292z M18.217,9.59
			l1.114,0.334l0.031-0.105l-1.114-0.334L18.217,9.59z M18.122,8.762l0.056,0.78l0.11-0.008l-0.056-0.78L18.122,8.762z
			 M17.174,8.813h1.003v-0.11h-1.003V8.813z M17.342,10.317l-0.055,0.006l0.004,0.037l0.036,0.01L17.342,10.317z M19.347,10.874
			l-0.015,0.053l0.07,0.02v-0.073H19.347z M19.347,9.872h0.055V9.831l-0.04-0.012L19.347,9.872z M18.233,9.538l-0.055,0.004
			l0.003,0.038l0.036,0.011L18.233,9.538z M18.177,8.758l0.055-0.004l-0.004-0.051h-0.051V8.758z M17.174,8.758V8.703h-0.061
			l0.006,0.061L17.174,8.758z"/>
		<polygon clip-path="url(#SVGID_2_)" fill="#FFFFFF" points="20.572,5.806 19.347,5.694 19.347,4.691 21.463,4.691 21.63,6.808 
			20.628,6.808 		"/>
		<path clip-path="url(#SVGID_2_)" fill="#FFFFFF" d="M19.292,4.691v1.003h0.11V4.691H19.292z M21.463,4.637h-2.117v0.11h2.117
			V4.637z M21.685,6.804l-0.167-2.116l-0.11,0.008l0.167,2.117L21.685,6.804z M20.628,6.863h1.002v-0.11h-1.002V6.863z
			 M20.517,5.809l0.056,1.003l0.11-0.006l-0.056-1.002L20.517,5.809z M19.342,5.749l1.225,0.111l0.01-0.109l-1.226-0.112
			L19.342,5.749z M19.347,4.691V4.637h-0.055v0.055H19.347z M21.463,4.691l0.055-0.004l-0.004-0.051h-0.051V4.691z M21.63,6.808
			v0.055h0.06l-0.005-0.06L21.63,6.808z M20.628,6.808l-0.055,0.003l0.003,0.052h0.052V6.808z M20.572,5.806l0.055-0.003
			l-0.002-0.048l-0.047-0.004L20.572,5.806z M19.347,5.694h-0.055v0.05l0.05,0.004L19.347,5.694z"/>
		<polygon clip-path="url(#SVGID_2_)" fill="#FFFFFF" points="19.347,8.256 19.347,7.31 21.63,7.31 21.352,10.317 19.347,10.874 
			19.347,9.872 20.46,9.538 20.572,8.256 		"/>
		<path clip-path="url(#SVGID_2_)" fill="#FFFFFF" d="M21.63,7.254h-2.284v0.11h2.284V7.254z M21.407,10.322l0.278-3.008
			l-0.109-0.01l-0.279,3.008L21.407,10.322z M19.361,10.927l2.005-0.557l-0.03-0.106l-2.005,0.557L19.361,10.927z M19.292,9.872
			v1.002h0.11V9.872H19.292z M20.445,9.485l-1.114,0.334l0.031,0.105l1.114-0.334L20.445,9.485z M20.517,8.251l-0.111,1.281
			l0.11,0.009l0.111-1.281L20.517,8.251z M19.347,8.312h1.226v-0.11h-1.226V8.312z M19.292,7.31v0.947h0.11V7.31H19.292z
			 M21.63,7.31l0.055,0.005l0.006-0.06H21.63V7.31z M21.352,10.317l0.015,0.053l0.037-0.01l0.003-0.038L21.352,10.317z
			 M19.347,10.874h-0.055v0.073l0.07-0.02L19.347,10.874z M19.347,9.872l-0.016-0.053l-0.04,0.012v0.041H19.347z M20.46,9.538
			l0.016,0.053l0.036-0.011l0.003-0.038L20.46,9.538z M20.572,8.256l0.055,0.005l0.005-0.06h-0.06V8.256z M19.347,8.256h-0.055
			v0.055h0.055V8.256z M19.347,7.31V7.254h-0.055V7.31H19.347z"/>
		<path clip-path="url(#SVGID_2_)" fill="#E5A228" d="M20.583,2.111c0,0.073-0.015,0.14-0.046,0.198
			c-0.031,0.058-0.074,0.106-0.13,0.146c-0.056,0.04-0.122,0.07-0.198,0.09c-0.076,0.022-0.16,0.033-0.251,0.033
			c-0.086,0-0.17-0.01-0.251-0.031c-0.081-0.019-0.153-0.051-0.218-0.097c-0.063-0.046-0.114-0.104-0.152-0.174
			c-0.039-0.072-0.058-0.16-0.058-0.264h0.297c0,0.064,0.011,0.118,0.033,0.159c0.022,0.04,0.05,0.071,0.086,0.095
			c0.037,0.023,0.078,0.04,0.123,0.048s0.092,0.013,0.139,0.013c0.102,0,0.182-0.019,0.24-0.057c0.06-0.038,0.09-0.09,0.09-0.156
			c0-0.032-0.007-0.062-0.02-0.088c-0.012-0.026-0.032-0.05-0.062-0.07c-0.029-0.022-0.068-0.042-0.117-0.062
			s-0.108-0.039-0.178-0.06h-0.002c-0.086-0.023-0.166-0.048-0.238-0.075c-0.07-0.028-0.131-0.061-0.183-0.099
			c-0.05-0.039-0.089-0.083-0.117-0.134C19.344,1.473,19.33,1.41,19.33,1.336c0-0.069,0.015-0.132,0.044-0.189
			c0.031-0.057,0.074-0.106,0.128-0.146c0.056-0.041,0.121-0.073,0.196-0.094c0.077-0.024,0.16-0.036,0.251-0.036
			c0.095,0,0.181,0.014,0.257,0.042c0.078,0.028,0.143,0.067,0.196,0.117c0.054,0.048,0.096,0.107,0.125,0.176
			c0.029,0.069,0.044,0.145,0.044,0.229h-0.295c0-0.102-0.03-0.179-0.088-0.231c-0.059-0.054-0.139-0.082-0.24-0.082
			c-0.107,0-0.188,0.02-0.243,0.06c-0.054,0.04-0.082,0.09-0.082,0.15c0,0.063,0.03,0.114,0.088,0.152s0.152,0.074,0.28,0.108
			c0.095,0.026,0.18,0.056,0.253,0.088c0.073,0.031,0.135,0.067,0.185,0.108c0.05,0.042,0.087,0.088,0.112,0.141
			C20.569,1.981,20.583,2.042,20.583,2.111z M19.032,2.03c0,0.09-0.014,0.169-0.042,0.238c-0.028,0.067-0.067,0.125-0.117,0.171
			c-0.05,0.045-0.109,0.08-0.178,0.104c-0.067,0.024-0.142,0.035-0.222,0.035c-0.084,0-0.16-0.012-0.229-0.037
			c-0.069-0.023-0.128-0.06-0.179-0.108c-0.048-0.048-0.086-0.109-0.114-0.181c-0.026-0.073-0.04-0.159-0.04-0.255h0.295
			c0,0.11,0.022,0.193,0.068,0.249c0.047,0.055,0.113,0.082,0.198,0.082c0.075,0,0.137-0.024,0.187-0.072
			c0.051-0.05,0.077-0.125,0.077-0.225V0.892h0.295V2.03z"/>
		<polygon clip-path="url(#SVGID_2_)" fill="#E34E26" points="-9.2,11.773 -9.911,3.405 -1.666,3.405 -2.402,11.773 -5.764,12.779 
					"/>
		<path clip-path="url(#SVGID_2_)" fill="#E34E26" d="M-1.666,3.351h-8.245v0.11h8.245V3.351z M-2.348,11.778l0.736-8.368
			l-0.11-0.009l-0.736,8.368L-2.348,11.778z M-5.749,12.832l3.362-1.006l-0.032-0.105l-3.361,1.006L-5.749,12.832z M-9.215,11.826
			l3.436,1.006l0.031-0.106l-3.436-1.006L-9.215,11.826z M-9.966,3.41l0.711,8.368l0.109-0.009l-0.711-8.368L-9.966,3.41z
			 M-1.666,3.405l0.055,0.005l0.005-0.06h-0.06V3.405z M-2.402,11.773l0.016,0.053l0.036-0.01l0.003-0.038L-2.402,11.773z
			 M-5.764,12.779l-0.016,0.053l0.016,0.004l0.016-0.004L-5.764,12.779z M-9.2,11.773l-0.055,0.005l0.003,0.038l0.036,0.011
			L-9.2,11.773z M-9.911,3.405V3.351h-0.06l0.005,0.06L-9.911,3.405z"/>
		<polygon clip-path="url(#SVGID_2_)" fill="#F1662A" points="-5.789,12.141 -5.789,4.142 -2.427,4.142 -3.114,11.405 		"/>
		<path clip-path="url(#SVGID_2_)" fill="#F1662A" d="M-2.427,4.086h-3.362v0.11h3.362V4.086z M-3.059,11.41l0.687-7.263
			l-0.109-0.011L-3.169,11.4L-3.059,11.41z M-5.774,12.194l2.675-0.736l-0.029-0.106l-2.675,0.736L-5.774,12.194z M-5.844,4.142v8
			h0.11v-8H-5.844z M-2.427,4.142l0.055,0.005l0.006-0.061h-0.061V4.142z M-3.114,11.405l0.015,0.053l0.036-0.01l0.004-0.038
			L-3.114,11.405z M-5.789,12.141h-0.055v0.072l0.07-0.019L-5.789,12.141z M-5.789,4.142V4.086h-0.055v0.055H-5.789z"/>
		<polygon clip-path="url(#SVGID_2_)" fill="#FFFFFF" points="-5.838,8.215 -5.838,7.283 -3.482,7.283 -3.728,10.375 -5.838,11.012 
			-5.838,9.933 -4.66,9.564 -4.586,8.215 		"/>
		<path clip-path="url(#SVGID_2_)" fill="#FFFFFF" d="M-3.482,7.228h-2.356v0.11h2.356V7.228z M-3.673,10.379l0.246-3.092
			l-0.11-0.009l-0.245,3.092L-3.673,10.379z M-5.822,11.065l2.11-0.638l-0.032-0.105l-2.11,0.638L-5.822,11.065z M-5.893,9.933v1.08
			h0.11v-1.08H-5.893z M-4.676,9.512L-5.854,9.88l0.033,0.105l1.178-0.368L-4.676,9.512z M-4.641,8.212l-0.074,1.35l0.11,0.006
			l0.074-1.35L-4.641,8.212z M-5.838,8.27h1.251V8.16h-1.251V8.27z M-5.893,7.283v0.932h0.11V7.283H-5.893z M-3.482,7.283
			l0.055,0.004l0.005-0.059h-0.06V7.283z M-3.728,10.375l0.016,0.053l0.036-0.011l0.003-0.037L-3.728,10.375z M-5.838,11.012h-0.055
			v0.074l0.071-0.021L-5.838,11.012z M-5.838,9.933L-5.854,9.88l-0.039,0.012v0.041H-5.838z M-4.66,9.564l0.017,0.053l0.037-0.011
			l0.002-0.039L-4.66,9.564z M-4.586,8.215l0.055,0.003l0.003-0.058h-0.058V8.215z M-5.838,8.215h-0.055V8.27h0.055V8.215z
			 M-5.838,7.283V7.228h-0.055v0.055H-5.838z"/>
		<polygon clip-path="url(#SVGID_2_)" fill="#FFFFFF" points="-5.838,5.172 -5.838,6.154 -3.335,6.154 -3.261,5.172 		"/>
		<path clip-path="url(#SVGID_2_)" fill="#FFFFFF" d="M-3.335,6.099h-2.503v0.11h2.503V6.099z M-3.316,5.168L-3.39,6.149
			l0.109,0.008l0.074-0.981L-3.316,5.168z M-5.838,5.227h2.577v-0.11h-2.577V5.227z M-5.783,6.154V5.172h-0.11v0.981H-5.783z
			 M-3.335,6.154v0.055h0.051l0.003-0.051L-3.335,6.154z M-3.261,5.172l0.055,0.004l0.004-0.059h-0.06V5.172z M-5.838,5.172V5.117
			h-0.055v0.055H-5.838z M-5.838,6.154h-0.055v0.055h0.055V6.154z"/>
		<polygon clip-path="url(#SVGID_2_)" fill="#EBEBEB" points="-8.39,5.172 -5.838,5.172 -5.838,6.154 -7.31,6.154 -7.236,7.283 
			-5.838,7.283 -5.838,8.215 -8.169,8.215 		"/>
		<path clip-path="url(#SVGID_2_)" fill="#EBEBEB" d="M-5.783,6.154V5.172h-0.11v0.981H-5.783z M-7.31,6.209h1.472v-0.11H-7.31
			V6.209z M-7.182,7.279L-7.255,6.15l-0.11,0.007l0.074,1.129L-7.182,7.279z M-5.838,7.228h-1.398v0.11h1.398V7.228z M-5.783,8.215
			V7.283h-0.11v0.933H-5.783z M-8.169,8.27h2.331V8.16h-2.331V8.27z M-8.445,5.176l0.221,3.043l0.11-0.008l-0.221-3.042
			L-8.445,5.176z M-5.838,5.117H-8.39v0.11h2.552V5.117z M-5.838,6.154v0.055h0.055V6.154H-5.838z M-7.31,6.154V6.099h-0.059
			l0.004,0.059L-7.31,6.154z M-7.236,7.283l-0.055,0.003l0.003,0.051h0.052V7.283z M-5.838,7.283h0.055V7.228h-0.055V7.283z
			 M-5.838,8.215V8.27h0.055V8.215H-5.838z M-8.169,8.215l-0.055,0.004L-8.22,8.27h0.051V8.215z M-8.39,5.172V5.117h-0.059
			l0.004,0.059L-8.39,5.172z M-5.838,5.172h0.055V5.117h-0.055V5.172z"/>
		<polygon clip-path="url(#SVGID_2_)" fill="#EBEBEB" points="-7.065,8.804 -8.071,8.804 -7.997,10.35 -5.838,11.012 -5.838,9.933 
			-7.065,9.589 		"/>
		<path clip-path="url(#SVGID_2_)" fill="#EBEBEB" d="M-7.942,10.347l-0.074-1.546l-0.11,0.005l0.074,1.546L-7.942,10.347z
			 M-5.822,10.96l-2.159-0.663l-0.032,0.105l2.159,0.663L-5.822,10.96z M-5.893,9.933v1.08h0.11v-1.08H-5.893z M-7.08,9.642
			l1.227,0.343l0.03-0.105L-7.05,9.536L-7.08,9.642z M-7.12,8.804v0.785h0.11V8.804H-7.12z M-8.071,8.859h1.006v-0.11h-1.006V8.859z
			 M-7.997,10.35l-0.055,0.003l0.002,0.039l0.037,0.011L-7.997,10.35z M-5.838,11.012l-0.016,0.053l0.071,0.022v-0.075H-5.838z
			 M-5.838,9.933h0.055V9.891l-0.04-0.011L-5.838,9.933z M-7.065,9.589H-7.12v0.042l0.04,0.011L-7.065,9.589z M-7.065,8.804h0.055
			V8.749h-0.055V8.804z M-8.071,8.804V8.749h-0.058l0.002,0.058L-8.071,8.804z"/>
		<path clip-path="url(#SVGID_2_)" fill="#E34E26" d="M-2.557,2.556h-1.083V0.892h0.295v1.414h0.789V2.556z M-3.994,2.556h-0.295
			V1.675l0.009-0.154h-0.021l-0.428,1.035h-0.229l-0.427-1.035h-0.022l0.009,0.154v0.881h-0.295V0.892h0.334l0.504,1.242h0.022
			l0.504-1.242h0.335V2.556z M-5.903,1.143h-0.544v1.414h-0.295V1.143h-0.544V0.892h1.383V1.143z M-7.496,2.556h-0.295V1.825h-0.758
			v0.731h-0.295V0.892h0.295v0.683h0.758V0.892h0.295V2.556z"/>
		<path clip-path="url(#SVGID_2_)" fill="#0971B9" d="M8.916,2.162c0,0.073-0.015,0.14-0.046,0.198
			C8.839,2.417,8.795,2.466,8.74,2.506c-0.056,0.04-0.122,0.069-0.198,0.09c-0.076,0.022-0.16,0.033-0.251,0.033
			c-0.087,0-0.17-0.01-0.251-0.031C7.958,2.579,7.886,2.547,7.821,2.501C7.758,2.456,7.708,2.398,7.669,2.327
			c-0.038-0.072-0.057-0.16-0.057-0.264H7.91c0,0.065,0.011,0.118,0.033,0.159c0.022,0.04,0.051,0.071,0.086,0.095
			c0.037,0.023,0.078,0.04,0.124,0.048s0.091,0.013,0.139,0.013c0.101,0,0.181-0.019,0.24-0.057c0.061-0.038,0.09-0.09,0.09-0.156
			c0-0.033-0.006-0.062-0.02-0.088c-0.012-0.026-0.033-0.05-0.062-0.07C8.51,1.984,8.471,1.963,8.422,1.944
			c-0.048-0.019-0.108-0.039-0.178-0.06H8.242C8.155,1.861,8.076,1.836,8.004,1.81C7.934,1.782,7.873,1.749,7.821,1.71
			c-0.05-0.038-0.089-0.083-0.117-0.134C7.677,1.523,7.663,1.46,7.663,1.387c0-0.069,0.015-0.132,0.044-0.189
			C7.738,1.141,7.78,1.092,7.834,1.052c0.056-0.041,0.121-0.073,0.196-0.095c0.076-0.023,0.16-0.035,0.251-0.035
			c0.095,0,0.181,0.014,0.257,0.042c0.078,0.028,0.143,0.067,0.196,0.117C8.79,1.129,8.832,1.188,8.861,1.257
			C8.89,1.326,8.905,1.402,8.905,1.486H8.61c0-0.102-0.029-0.179-0.088-0.231c-0.059-0.054-0.139-0.082-0.24-0.082
			c-0.107,0-0.188,0.02-0.243,0.06c-0.054,0.04-0.081,0.089-0.081,0.149c0,0.063,0.029,0.114,0.088,0.152
			c0.059,0.038,0.152,0.074,0.28,0.108c0.095,0.026,0.18,0.056,0.253,0.088c0.073,0.031,0.135,0.067,0.185,0.108
			c0.05,0.041,0.087,0.088,0.112,0.141C8.902,2.032,8.916,2.093,8.916,2.162z M7.471,2.162c0,0.073-0.016,0.14-0.046,0.198
			c-0.031,0.057-0.074,0.105-0.13,0.146c-0.056,0.04-0.122,0.069-0.198,0.09c-0.076,0.022-0.16,0.033-0.251,0.033
			c-0.086,0-0.17-0.01-0.251-0.031C6.514,2.579,6.441,2.547,6.376,2.501C6.313,2.456,6.263,2.398,6.225,2.327
			c-0.039-0.072-0.058-0.16-0.058-0.264h0.297c0,0.065,0.011,0.118,0.033,0.159c0.022,0.04,0.05,0.071,0.086,0.095
			c0.037,0.023,0.078,0.04,0.123,0.048s0.092,0.013,0.139,0.013c0.102,0,0.182-0.019,0.24-0.057c0.06-0.038,0.09-0.09,0.09-0.156
			c0-0.033-0.007-0.062-0.02-0.088c-0.012-0.026-0.032-0.05-0.062-0.07C7.065,1.984,7.026,1.963,6.978,1.944S6.87,1.905,6.799,1.885
			H6.797C6.711,1.861,6.631,1.836,6.56,1.81C6.489,1.782,6.428,1.749,6.376,1.71C6.327,1.672,6.288,1.628,6.26,1.576
			C6.232,1.523,6.218,1.46,6.218,1.387c0-0.069,0.015-0.132,0.044-0.189C6.293,1.141,6.336,1.092,6.39,1.052
			c0.056-0.041,0.121-0.073,0.196-0.095c0.077-0.023,0.16-0.035,0.251-0.035c0.096,0,0.181,0.014,0.258,0.042
			c0.078,0.028,0.143,0.067,0.196,0.117c0.054,0.048,0.096,0.107,0.125,0.176C7.446,1.326,7.46,1.402,7.46,1.486H7.165
			c0-0.102-0.029-0.179-0.088-0.231c-0.059-0.054-0.139-0.082-0.24-0.082c-0.107,0-0.188,0.02-0.242,0.06S6.513,1.322,6.513,1.382
			c0,0.063,0.029,0.114,0.088,0.152C6.66,1.573,6.753,1.609,6.881,1.643c0.096,0.026,0.18,0.056,0.253,0.088
			c0.073,0.031,0.135,0.067,0.185,0.108c0.05,0.041,0.087,0.088,0.112,0.141C7.458,2.032,7.471,2.093,7.471,2.162z M6.021,2.037
			C6.008,2.132,5.98,2.216,5.939,2.29C5.898,2.363,5.848,2.425,5.788,2.475c-0.059,0.05-0.125,0.087-0.201,0.112
			c-0.073,0.027-0.151,0.04-0.233,0.04c-0.108,0-0.207-0.02-0.295-0.058C4.971,2.533,4.895,2.479,4.832,2.406
			C4.769,2.333,4.72,2.244,4.684,2.138c-0.034-0.105-0.05-0.227-0.05-0.363s0.017-0.257,0.05-0.363
			C4.72,1.306,4.769,1.217,4.832,1.145c0.063-0.073,0.139-0.128,0.227-0.165c0.088-0.038,0.187-0.057,0.295-0.057
			c0.083,0,0.16,0.013,0.233,0.04c0.075,0.025,0.142,0.063,0.201,0.112c0.06,0.05,0.111,0.112,0.152,0.185s0.068,0.158,0.082,0.253
			H5.726c-0.021-0.11-0.065-0.193-0.132-0.251c-0.067-0.059-0.147-0.088-0.24-0.088c-0.133,0-0.238,0.053-0.313,0.159
			C4.966,1.436,4.929,1.583,4.929,1.774s0.037,0.339,0.112,0.445C5.116,2.324,5.22,2.375,5.354,2.375
			c0.093,0,0.173-0.028,0.24-0.085c0.067-0.059,0.111-0.144,0.132-0.253H6.021z"/>
		<polygon clip-path="url(#SVGID_2_)" fill="#188ECE" points="3.287,11.808 2.641,3.355 10.862,3.355 10.124,11.808 6.751,12.824 		
			"/>
		<polygon clip-path="url(#SVGID_2_)" fill="#42A5DD" points="6.798,12.131 6.798,4.278 10.17,4.278 9.616,11.253 		"/>
		<polygon clip-path="url(#SVGID_2_)" fill="#E5E5E5" points="4.304,6.126 4.211,5.11 6.798,5.11 6.798,6.126 		"/>
		<path clip-path="url(#SVGID_2_)" fill="#E5E5E5" d="M6.798,5.056H4.211v0.11h2.586V5.056z M6.853,6.126V5.11h-0.11v1.016H6.853z
			 M4.304,6.182h2.494v-0.11H4.304V6.182z M4.156,5.115l0.092,1.016l0.11-0.01L4.266,5.105L4.156,5.115z M6.798,5.11h0.055V5.056
			H6.798V5.11z M6.798,6.126v0.055h0.055V6.126H6.798z M4.304,6.126L4.249,6.131l0.005,0.05h0.05V6.126z M4.211,5.11V5.056H4.151
			l0.005,0.06L4.211,5.11z"/>
		<path clip-path="url(#SVGID_2_)" fill="#E5E5E5" d="M4.396,7.188c0.77-0.354,2.319-1.063,2.355-1.063v1.986h-2.31L4.396,7.188z"/>
		<path clip-path="url(#SVGID_2_)" fill="#E5E5E5" d="M6.807,8.112V6.126h-0.11v1.986H6.807z M4.442,8.167h2.31v-0.11h-2.31V8.167z
			 M4.341,7.191l0.046,0.924l0.11-0.005L4.451,7.186L4.341,7.191z M6.751,6.071c-0.008,0-0.015,0.002-0.017,0.002
			c-0.003,0-0.006,0.001-0.009,0.002C6.721,6.078,6.715,6.08,6.708,6.083C6.693,6.088,6.674,6.097,6.65,6.106
			C6.602,6.127,6.535,6.156,6.454,6.192C6.291,6.264,6.07,6.364,5.826,6.475C5.337,6.696,4.758,6.961,4.373,7.139l0.046,0.1
			c0.385-0.177,0.964-0.443,1.452-0.664c0.244-0.111,0.465-0.21,0.627-0.282C6.58,6.257,6.646,6.228,6.693,6.208
			c0.023-0.01,0.042-0.018,0.055-0.022c0.006-0.002,0.011-0.004,0.014-0.005C6.763,6.18,6.763,6.18,6.763,6.18
			c0,0-0.001,0-0.002,0.001c-0.001,0-0.004,0-0.009,0V6.071z M6.751,8.112v0.055h0.055V8.112H6.751z M4.442,8.112L4.387,8.115
			L4.39,8.167h0.052V8.112z M4.396,7.188l-0.023-0.05L4.339,7.154l0.002,0.038L4.396,7.188z M6.751,6.126h0.055V6.071H6.751V6.126z"
			/>
		<polygon clip-path="url(#SVGID_2_)" fill="#E5E5E5" points="5.551,8.713 4.488,8.713 4.627,10.283 6.752,11.068 6.752,9.821 
			5.551,9.452 		"/>
		<path clip-path="url(#SVGID_2_)" fill="#E5E5E5" d="M4.682,10.278l-0.139-1.57l-0.109,0.01l0.139,1.57L4.682,10.278z
			 M6.771,11.017l-2.125-0.785l-0.038,0.104l2.125,0.785L6.771,11.017z M6.697,9.821v1.247h0.11V9.821H6.697z M5.535,9.504
			l1.201,0.37l0.033-0.105L5.567,9.399L5.535,9.504z M5.496,8.713v0.739h0.11V8.713H5.496z M4.488,8.768h1.063v-0.11H4.488V8.768z
			 M4.627,10.283l-0.055,0.005l0.003,0.035l0.033,0.012L4.627,10.283z M6.752,11.068l-0.02,0.052l0.074,0.027v-0.079H6.752z
			 M6.752,9.821h0.055V9.781L6.768,9.769L6.752,9.821z M5.551,9.452H5.496v0.041l0.039,0.012L5.551,9.452z M5.551,8.713h0.055V8.658
			H5.551V8.713z M4.488,8.713V8.658h-0.06l0.005,0.06L4.488,8.713z"/>
		<polygon clip-path="url(#SVGID_2_)" fill="#FFFFFF" points="6.798,8.112 6.798,5.11 9.431,5.11 9.431,6.126 7.352,7.05 
			9.292,7.05 9.061,10.237 6.798,11.068 6.798,9.821 8.045,9.452 8.091,8.112 		"/>
		<path clip-path="url(#SVGID_2_)" fill="#FFFFFF" d="M9.431,5.055H6.798v0.11h2.633V5.055z M9.486,6.126V5.11h-0.11v1.016H9.486z
			 M7.375,7.1l2.079-0.923L9.408,6.076L7.33,7L7.375,7.1z M9.292,6.995h-1.94v0.11h1.94V6.995z M9.116,10.241l0.23-3.188
			L9.237,7.046l-0.231,3.187L9.116,10.241z M6.817,11.12l2.263-0.831l-0.038-0.104l-2.263,0.831L6.817,11.12z M6.743,9.821v1.247
			h0.11V9.821H6.743z M8.029,9.399l-1.247,0.37l0.031,0.105l1.247-0.369L8.029,9.399z M8.036,8.11L7.99,9.45L8.1,9.454l0.046-1.339
			L8.036,8.11z M6.798,8.167h1.293v-0.11H6.798V8.167z M6.743,5.11v3.002h0.11V5.11H6.743z M9.431,5.11h0.055V5.055H9.431V5.11z
			 M9.431,6.126l0.022,0.051l0.033-0.015V6.126H9.431z M7.352,7.05L7.33,7l0.022,0.105V7.05z M9.292,7.05l0.055,0.003l0.005-0.059
			h-0.06V7.05z M9.061,10.237l0.019,0.052l0.034-0.012l0.002-0.036L9.061,10.237z M6.798,11.068H6.743v0.079l0.074-0.027
			L6.798,11.068z M6.798,9.821L6.782,9.769L6.743,9.78v0.041H6.798z M8.045,9.452l0.016,0.053l0.038-0.011L8.1,9.454L8.045,9.452z
			 M8.091,8.112l0.055,0.002l0.002-0.057H8.091V8.112z M6.798,8.112H6.743v0.055h0.055V8.112z M6.798,5.11V5.055H6.743V5.11H6.798z"
			/>
	</g>
</g>
</svg>
