<?xml version="1.0" encoding="utf-8"?>
<!-- Generator: Adobe Illustrator 16.0.0, SVG Export Plug-In . SVG Version: 6.00 Build 0)  -->
<!DOCTYPE svg PUBLIC "-//W3C//DTD SVG 1.1//EN" "http://www.w3.org/Graphics/SVG/1.1/DTD/svg11.dtd">
<svg version="1.1" id="Layer_1" xmlns="http://www.w3.org/2000/svg" xmlns:xlink="http://www.w3.org/1999/xlink" x="0px" y="0px"
	 width="12.96px" height="13.104px" viewBox="0 0 12.96 13.104" enable-background="new 0 0 12.96 13.104" xml:space="preserve">
<g>
	<g>
		<defs>
			<rect id="SVGID_1_" x="-25.504" y="-10.854" width="37.964" height="37.964"/>
		</defs>
		<clipPath id="SVGID_2_">
			<use xlink:href="#SVGID_1_"  overflow="visible"/>
		</clipPath>
		<rect x="-25.504" y="-10.854" clip-path="url(#SVGID_2_)" fill="#FFFFFF" width="37.964" height="37.964"/>
		<polygon clip-path="url(#SVGID_2_)" fill="#E5A228" points="3.237,11.808 2.589,3.355 10.833,3.355 10.092,11.808 6.711,12.824 		
			"/>
		<polygon clip-path="url(#SVGID_2_)" fill="#F0BF23" points="6.711,11.891 6.711,3.912 10.137,3.912 9.574,11 		"/>
		<polygon clip-path="url(#SVGID_2_)" fill="#E5E5E5" points="4.65,8.256 4.929,4.691 6.767,4.691 6.767,5.694 5.82,5.75 
			5.653,7.31 6.767,7.31 6.767,8.256 		"/>
		<path clip-path="url(#SVGID_2_)" fill="#E5E5E5" d="M6.767,4.637H4.929v0.11h1.838V4.637z M6.822,5.694V4.691h-0.11v1.003H6.822z
			 M5.823,5.805L6.77,5.749l-0.007-0.11L5.816,5.695L5.823,5.805z M5.708,7.315l0.167-1.56L5.765,5.744l-0.167,1.56L5.708,7.315z
			 M6.767,7.254H5.653v0.11h1.114V7.254z M6.822,8.256V7.31h-0.11v0.947H6.822z M4.65,8.312h2.117v-0.11H4.65V8.312z M4.874,4.688
			L4.595,8.252l0.11,0.009l0.278-3.565L4.874,4.688z M6.767,4.691h0.055V4.637H6.767V4.691z M6.767,5.694L6.77,5.749l0.052-0.003
			V5.694H6.767z M5.82,5.75L5.816,5.695L5.77,5.698L5.765,5.744L5.82,5.75z M5.653,7.31L5.598,7.304L5.591,7.364h0.062V7.31z
			 M6.767,7.31h0.055V7.254H6.767V7.31z M6.767,8.256v0.055h0.055V8.256H6.767z M4.65,8.256L4.595,8.252L4.59,8.312h0.06V8.256z
			 M4.929,4.691V4.637H4.877L4.874,4.688L4.929,4.691z"/>
		<polygon clip-path="url(#SVGID_2_)" fill="#E5E5E5" points="5.597,8.758 4.594,8.758 4.762,10.317 6.767,10.874 6.767,9.872 
			5.653,9.538 		"/>
		<path clip-path="url(#SVGID_2_)" fill="#E5E5E5" d="M4.816,10.312l-0.167-1.56L4.54,8.764l0.167,1.56L4.816,10.312z M6.781,10.821
			l-2.005-0.557l-0.03,0.106l2.005,0.557L6.781,10.821z M6.711,9.872v1.002h0.11V9.872H6.711z M5.637,9.59l1.114,0.334l0.031-0.105
			L5.668,9.485L5.637,9.59z M5.542,8.762l0.056,0.78l0.11-0.008l-0.056-0.78L5.542,8.762z M4.594,8.813h1.003v-0.11H4.594V8.813z
			 M4.762,10.317l-0.055,0.006l0.004,0.037l0.036,0.01L4.762,10.317z M6.767,10.874l-0.015,0.053l0.07,0.02v-0.073H6.767z
			 M6.767,9.872h0.055V9.831l-0.04-0.012L6.767,9.872z M5.653,9.538L5.598,9.542l0.003,0.038L5.637,9.59L5.653,9.538z M5.597,8.758
			l0.055-0.004L5.648,8.703H5.597V8.758z M4.594,8.758V8.703H4.533L4.54,8.764L4.594,8.758z"/>
		<polygon clip-path="url(#SVGID_2_)" fill="#FFFFFF" points="7.992,5.806 6.767,5.694 6.767,4.691 8.883,4.691 9.05,6.808 
			8.048,6.808 		"/>
		<path clip-path="url(#SVGID_2_)" fill="#FFFFFF" d="M6.711,4.691v1.003h0.11V4.691H6.711z M8.883,4.637H6.767v0.11h2.117V4.637z
			 M9.105,6.804L8.938,4.688l-0.11,0.008l0.167,2.117L9.105,6.804z M8.048,6.863H9.05v-0.11H8.048V6.863z M7.937,5.809l0.056,1.003
			l0.11-0.006L8.047,5.803L7.937,5.809z M6.762,5.749L7.987,5.86l0.01-0.109L6.771,5.639L6.762,5.749z M6.767,4.691V4.637H6.711
			v0.055H6.767z M8.883,4.691l0.055-0.004L8.934,4.637H8.883V4.691z M9.05,6.808v0.055h0.06l-0.005-0.06L9.05,6.808z M8.048,6.808
			L7.993,6.812l0.003,0.052h0.052V6.808z M7.992,5.806l0.055-0.003L8.044,5.755L7.997,5.751L7.992,5.806z M6.767,5.694H6.711v0.05
			l0.05,0.004L6.767,5.694z"/>
		<polygon clip-path="url(#SVGID_2_)" fill="#FFFFFF" points="6.767,8.256 6.767,7.31 9.05,7.31 8.771,10.317 6.767,10.874 
			6.767,9.872 7.88,9.538 7.992,8.256 		"/>
		<path clip-path="url(#SVGID_2_)" fill="#FFFFFF" d="M9.05,7.254H6.767v0.11H9.05V7.254z M8.827,10.322l0.278-3.008l-0.109-0.01
			l-0.279,3.008L8.827,10.322z M6.781,10.927l2.005-0.557l-0.03-0.106l-2.005,0.557L6.781,10.927z M6.711,9.872v1.002h0.11V9.872
			H6.711z M7.865,9.485L6.751,9.819l0.031,0.105L7.896,9.59L7.865,9.485z M7.937,8.251L7.826,9.533l0.11,0.009l0.111-1.281
			L7.937,8.251z M6.767,8.312h1.226v-0.11H6.767V8.312z M6.711,7.31v0.947h0.11V7.31H6.711z M9.05,7.31l0.055,0.005l0.006-0.06H9.05
			V7.31z M8.771,10.317l0.015,0.053l0.037-0.01l0.003-0.038L8.771,10.317z M6.767,10.874H6.711v0.073l0.07-0.02L6.767,10.874z
			 M6.767,9.872L6.751,9.819l-0.04,0.012v0.041H6.767z M7.88,9.538L7.896,9.59L7.932,9.58l0.003-0.038L7.88,9.538z M7.992,8.256
			l0.055,0.005l0.005-0.06h-0.06V8.256z M6.767,8.256H6.711v0.055h0.055V8.256z M6.767,7.31V7.254H6.711V7.31H6.767z"/>
		<path clip-path="url(#SVGID_2_)" fill="#E5A228" d="M8.002,2.111c0,0.073-0.015,0.14-0.046,0.198
			c-0.031,0.058-0.074,0.106-0.13,0.146c-0.056,0.04-0.122,0.07-0.198,0.09c-0.076,0.022-0.16,0.033-0.251,0.033
			c-0.086,0-0.17-0.01-0.251-0.031C7.045,2.528,6.973,2.496,6.908,2.451C6.845,2.405,6.794,2.347,6.756,2.276
			c-0.039-0.072-0.058-0.16-0.058-0.264h0.297c0,0.064,0.011,0.118,0.033,0.159c0.022,0.04,0.05,0.071,0.086,0.095
			c0.037,0.023,0.078,0.04,0.123,0.048S7.33,2.327,7.377,2.327c0.102,0,0.182-0.019,0.24-0.057c0.06-0.038,0.09-0.09,0.09-0.156
			c0-0.032-0.007-0.062-0.02-0.088c-0.012-0.026-0.032-0.05-0.062-0.07C7.597,1.933,7.558,1.913,7.509,1.894
			s-0.108-0.039-0.178-0.06H7.329C7.242,1.811,7.163,1.786,7.091,1.759C7.021,1.731,6.959,1.698,6.908,1.66
			c-0.05-0.039-0.089-0.083-0.117-0.134C6.764,1.473,6.75,1.41,6.75,1.336c0-0.069,0.015-0.132,0.044-0.189
			C6.824,1.09,6.867,1.041,6.921,1.001C6.977,0.96,7.042,0.929,7.117,0.907c0.077-0.024,0.16-0.036,0.251-0.036
			c0.095,0,0.181,0.014,0.257,0.042C7.704,0.941,7.769,0.98,7.822,1.03c0.054,0.048,0.096,0.107,0.125,0.176
			c0.029,0.069,0.044,0.145,0.044,0.229H7.697c0-0.102-0.03-0.179-0.088-0.231C7.55,1.15,7.47,1.123,7.369,1.123
			c-0.107,0-0.188,0.02-0.243,0.06c-0.054,0.04-0.082,0.09-0.082,0.15c0,0.063,0.03,0.114,0.088,0.152s0.152,0.074,0.28,0.108
			c0.095,0.026,0.18,0.056,0.253,0.088C7.739,1.71,7.801,1.747,7.851,1.788C7.9,1.829,7.938,1.876,7.963,1.929
			C7.989,1.981,8.002,2.042,8.002,2.111z M6.452,2.03c0,0.09-0.014,0.169-0.042,0.238C6.382,2.335,6.344,2.393,6.293,2.439
			c-0.05,0.045-0.109,0.08-0.178,0.104C6.048,2.567,5.974,2.578,5.893,2.578c-0.084,0-0.16-0.012-0.229-0.037
			c-0.069-0.023-0.128-0.06-0.179-0.108C5.437,2.385,5.399,2.324,5.371,2.252c-0.026-0.073-0.04-0.159-0.04-0.255h0.295
			c0,0.11,0.022,0.193,0.068,0.249C5.742,2.3,5.808,2.327,5.893,2.327c0.075,0,0.137-0.024,0.187-0.072
			C6.131,2.205,6.157,2.13,6.157,2.03V0.892h0.295V2.03z"/>
		<polygon clip-path="url(#SVGID_2_)" fill="#E34E26" points="-21.78,11.773 -22.491,3.405 -14.246,3.405 -14.982,11.773 
			-18.344,12.779 		"/>
		<path clip-path="url(#SVGID_2_)" fill="#E34E26" d="M-14.246,3.351h-8.245v0.11h8.245V3.351z M-14.928,11.778l0.736-8.368
			l-0.11-0.009l-0.736,8.368L-14.928,11.778z M-18.329,12.832l3.362-1.006l-0.032-0.105l-3.361,1.006L-18.329,12.832z
			 M-21.795,11.826l3.436,1.006l0.031-0.106l-3.436-1.006L-21.795,11.826z M-22.546,3.41l0.711,8.368l0.109-0.009l-0.711-8.368
			L-22.546,3.41z M-14.246,3.405l0.055,0.005l0.005-0.06h-0.06V3.405z M-14.982,11.773l0.016,0.053l0.036-0.01l0.003-0.038
			L-14.982,11.773z M-18.344,12.779l-0.016,0.053l0.016,0.004l0.016-0.004L-18.344,12.779z M-21.78,11.773l-0.055,0.005l0.003,0.038
			l0.036,0.011L-21.78,11.773z M-22.491,3.405V3.351h-0.06l0.005,0.06L-22.491,3.405z"/>
		<polygon clip-path="url(#SVGID_2_)" fill="#F1662A" points="-18.369,12.141 -18.369,4.142 -15.007,4.142 -15.694,11.405 		"/>
		<path clip-path="url(#SVGID_2_)" fill="#F1662A" d="M-15.007,4.086h-3.362v0.11h3.362V4.086z M-15.639,11.41l0.687-7.263
			l-0.109-0.011l-0.688,7.264L-15.639,11.41z M-18.354,12.194l2.675-0.736l-0.029-0.106l-2.675,0.736L-18.354,12.194z
			 M-18.424,4.142v8h0.11v-8H-18.424z M-15.007,4.142l0.055,0.005l0.006-0.061h-0.061V4.142z M-15.694,11.405l0.015,0.053
			l0.036-0.01l0.004-0.038L-15.694,11.405z M-18.369,12.141h-0.055v0.072l0.07-0.019L-18.369,12.141z M-18.369,4.142V4.086h-0.055
			v0.055H-18.369z"/>
		<polygon clip-path="url(#SVGID_2_)" fill="#FFFFFF" points="-18.418,8.215 -18.418,7.283 -16.062,7.283 -16.308,10.375 
			-18.418,11.012 -18.418,9.933 -17.24,9.564 -17.167,8.215 		"/>
		<path clip-path="url(#SVGID_2_)" fill="#FFFFFF" d="M-16.062,7.228h-2.356v0.11h2.356V7.228z M-16.253,10.379l0.246-3.092
			l-0.11-0.009l-0.245,3.092L-16.253,10.379z M-18.402,11.065l2.11-0.638l-0.032-0.105l-2.11,0.638L-18.402,11.065z M-18.473,9.933
			v1.08h0.11v-1.08H-18.473z M-17.256,9.512l-1.178,0.368l0.033,0.105l1.178-0.368L-17.256,9.512z M-17.221,8.212l-0.074,1.35
			l0.11,0.006l0.074-1.35L-17.221,8.212z M-18.418,8.27h1.251V8.16h-1.251V8.27z M-18.473,7.283v0.932h0.11V7.283H-18.473z
			 M-16.062,7.283l0.055,0.004l0.005-0.059h-0.06V7.283z M-16.308,10.375l0.016,0.053l0.036-0.011l0.003-0.037L-16.308,10.375z
			 M-18.418,11.012h-0.055v0.074l0.071-0.021L-18.418,11.012z M-18.418,9.933l-0.017-0.053l-0.039,0.012v0.041H-18.418z
			 M-17.24,9.564l0.017,0.053l0.037-0.011l0.002-0.039L-17.24,9.564z M-17.167,8.215l0.055,0.003l0.003-0.058h-0.058V8.215z
			 M-18.418,8.215h-0.055V8.27h0.055V8.215z M-18.418,7.283V7.228h-0.055v0.055H-18.418z"/>
		<polygon clip-path="url(#SVGID_2_)" fill="#FFFFFF" points="-18.418,5.172 -18.418,6.154 -15.915,6.154 -15.841,5.172 		"/>
		<path clip-path="url(#SVGID_2_)" fill="#FFFFFF" d="M-15.915,6.099h-2.503v0.11h2.503V6.099z M-15.896,5.168l-0.073,0.981
			l0.109,0.008l0.074-0.981L-15.896,5.168z M-18.418,5.227h2.577v-0.11h-2.577V5.227z M-18.363,6.154V5.172h-0.11v0.981H-18.363z
			 M-15.915,6.154v0.055h0.051l0.003-0.051L-15.915,6.154z M-15.841,5.172l0.055,0.004l0.004-0.059h-0.06V5.172z M-18.418,5.172
			V5.117h-0.055v0.055H-18.418z M-18.418,6.154h-0.055v0.055h0.055V6.154z"/>
		<polygon clip-path="url(#SVGID_2_)" fill="#EBEBEB" points="-20.97,5.172 -18.418,5.172 -18.418,6.154 -19.89,6.154 
			-19.816,7.283 -18.418,7.283 -18.418,8.215 -20.749,8.215 		"/>
		<path clip-path="url(#SVGID_2_)" fill="#EBEBEB" d="M-18.363,6.154V5.172h-0.11v0.981H-18.363z M-19.89,6.209h1.472v-0.11h-1.472
			V6.209z M-19.762,7.279l-0.074-1.128l-0.11,0.007l0.074,1.129L-19.762,7.279z M-18.418,7.228h-1.398v0.11h1.398V7.228z
			 M-18.363,8.215V7.283h-0.11v0.933H-18.363z M-20.749,8.27h2.331V8.16h-2.331V8.27z M-21.025,5.176l0.221,3.043l0.11-0.008
			l-0.221-3.042L-21.025,5.176z M-18.418,5.117h-2.552v0.11h2.552V5.117z M-18.418,6.154v0.055h0.055V6.154H-18.418z M-19.89,6.154
			V6.099h-0.059l0.004,0.059L-19.89,6.154z M-19.816,7.283l-0.055,0.003l0.003,0.051h0.052V7.283z M-18.418,7.283h0.055V7.228
			h-0.055V7.283z M-18.418,8.215V8.27h0.055V8.215H-18.418z M-20.749,8.215l-0.055,0.004L-20.8,8.27h0.051V8.215z M-20.97,5.172
			V5.117h-0.059l0.004,0.059L-20.97,5.172z M-18.418,5.172h0.055V5.117h-0.055V5.172z"/>
		<polygon clip-path="url(#SVGID_2_)" fill="#EBEBEB" points="-19.645,8.804 -20.651,8.804 -20.577,10.35 -18.418,11.012 
			-18.418,9.933 -19.645,9.589 		"/>
		<path clip-path="url(#SVGID_2_)" fill="#EBEBEB" d="M-20.522,10.347l-0.074-1.546l-0.11,0.005l0.074,1.546L-20.522,10.347z
			 M-18.402,10.96l-2.159-0.663l-0.032,0.105l2.159,0.663L-18.402,10.96z M-18.473,9.933v1.08h0.11v-1.08H-18.473z M-19.66,9.642
			l1.227,0.343l0.03-0.105l-1.227-0.344L-19.66,9.642z M-19.7,8.804v0.785h0.11V8.804H-19.7z M-20.651,8.859h1.006v-0.11h-1.006
			V8.859z M-20.577,10.35l-0.055,0.003l0.002,0.039l0.037,0.011L-20.577,10.35z M-18.418,11.012l-0.016,0.053l0.071,0.022v-0.075
			H-18.418z M-18.418,9.933h0.055V9.891l-0.04-0.011L-18.418,9.933z M-19.645,9.589H-19.7v0.042l0.04,0.011L-19.645,9.589z
			 M-19.645,8.804h0.055V8.749h-0.055V8.804z M-20.651,8.804V8.749h-0.058l0.002,0.058L-20.651,8.804z"/>
		<path clip-path="url(#SVGID_2_)" fill="#E34E26" d="M-15.137,2.556h-1.083V0.892h0.295v1.414h0.789V2.556z M-16.574,2.556h-0.295
			V1.675l0.009-0.154h-0.021l-0.428,1.035h-0.229l-0.427-1.035h-0.022l0.009,0.154v0.881h-0.295V0.892h0.334l0.504,1.242h0.022
			l0.504-1.242h0.335V2.556z M-18.483,1.143h-0.544v1.414h-0.295V1.143h-0.544V0.892h1.383V1.143z M-20.076,2.556h-0.295V1.825
			h-0.758v0.731h-0.295V0.892h0.295v0.683h0.758V0.892h0.295V2.556z"/>
		<path clip-path="url(#SVGID_2_)" fill="#0971B9" d="M-3.665,2.162c0,0.073-0.015,0.14-0.046,0.198
			c-0.031,0.057-0.074,0.105-0.13,0.146c-0.056,0.04-0.122,0.069-0.198,0.09c-0.076,0.022-0.16,0.033-0.251,0.033
			c-0.087,0-0.17-0.01-0.251-0.031c-0.081-0.019-0.153-0.051-0.218-0.097c-0.063-0.045-0.114-0.103-0.152-0.174
			c-0.038-0.072-0.057-0.16-0.057-0.264h0.297c0,0.065,0.011,0.118,0.033,0.159c0.022,0.04,0.051,0.071,0.086,0.095
			c0.037,0.023,0.078,0.04,0.124,0.048s0.091,0.013,0.139,0.013c0.101,0,0.181-0.019,0.24-0.057c0.061-0.038,0.09-0.09,0.09-0.156
			c0-0.033-0.006-0.062-0.02-0.088c-0.012-0.026-0.033-0.05-0.062-0.07C-4.07,1.984-4.109,1.963-4.158,1.944
			c-0.048-0.019-0.108-0.039-0.178-0.06h-0.002C-4.425,1.861-4.504,1.836-4.576,1.81c-0.07-0.028-0.131-0.061-0.183-0.099
			c-0.05-0.038-0.089-0.083-0.117-0.134C-4.903,1.523-4.917,1.46-4.917,1.387c0-0.069,0.015-0.132,0.044-0.189
			C-4.842,1.141-4.8,1.092-4.746,1.052c0.056-0.041,0.121-0.073,0.196-0.095c0.076-0.023,0.16-0.035,0.251-0.035
			c0.095,0,0.181,0.014,0.257,0.042c0.078,0.028,0.143,0.067,0.196,0.117c0.054,0.048,0.096,0.107,0.125,0.176
			c0.029,0.069,0.044,0.146,0.044,0.229H-3.97c0-0.102-0.029-0.179-0.088-0.231c-0.059-0.054-0.139-0.082-0.24-0.082
			c-0.107,0-0.188,0.02-0.243,0.06c-0.054,0.04-0.081,0.089-0.081,0.149c0,0.063,0.029,0.114,0.088,0.152
			c0.059,0.038,0.152,0.074,0.28,0.108c0.095,0.026,0.18,0.056,0.253,0.088c0.073,0.031,0.135,0.067,0.185,0.108
			c0.05,0.041,0.087,0.088,0.112,0.141C-3.678,2.032-3.665,2.093-3.665,2.162z M-5.109,2.162c0,0.073-0.016,0.14-0.046,0.198
			c-0.031,0.057-0.074,0.105-0.13,0.146c-0.056,0.04-0.122,0.069-0.198,0.09c-0.076,0.022-0.16,0.033-0.251,0.033
			c-0.086,0-0.17-0.01-0.251-0.031c-0.081-0.019-0.153-0.051-0.218-0.097c-0.063-0.045-0.113-0.103-0.151-0.174
			c-0.039-0.072-0.058-0.16-0.058-0.264h0.297c0,0.065,0.011,0.118,0.033,0.159c0.022,0.04,0.05,0.071,0.086,0.095
			c0.037,0.023,0.078,0.04,0.123,0.048s0.092,0.013,0.139,0.013c0.102,0,0.182-0.019,0.24-0.057c0.06-0.038,0.09-0.09,0.09-0.156
			c0-0.033-0.007-0.062-0.02-0.088c-0.012-0.026-0.032-0.05-0.062-0.07c-0.029-0.022-0.068-0.042-0.117-0.062
			s-0.108-0.039-0.179-0.06h-0.002C-5.869,1.861-5.949,1.836-6.021,1.81c-0.07-0.028-0.131-0.061-0.183-0.099
			c-0.05-0.038-0.088-0.083-0.116-0.134C-6.348,1.523-6.362,1.46-6.362,1.387c0-0.069,0.015-0.132,0.044-0.189
			c0.031-0.057,0.074-0.105,0.128-0.145c0.056-0.041,0.121-0.073,0.196-0.095c0.077-0.023,0.16-0.035,0.251-0.035
			c0.096,0,0.181,0.014,0.258,0.042c0.078,0.028,0.143,0.067,0.196,0.117c0.054,0.048,0.096,0.107,0.125,0.176
			c0.03,0.069,0.044,0.146,0.044,0.229h-0.295c0-0.102-0.029-0.179-0.088-0.231c-0.059-0.054-0.139-0.082-0.24-0.082
			c-0.107,0-0.188,0.02-0.242,0.06s-0.082,0.089-0.082,0.149c0,0.063,0.029,0.114,0.088,0.152c0.059,0.038,0.152,0.074,0.279,0.108
			c0.096,0.026,0.18,0.056,0.253,0.088c0.073,0.031,0.135,0.067,0.185,0.108c0.05,0.041,0.087,0.088,0.112,0.141
			C-5.122,2.032-5.109,2.093-5.109,2.162z M-6.559,2.037C-6.572,2.132-6.6,2.216-6.641,2.29c-0.041,0.073-0.092,0.135-0.152,0.185
			c-0.059,0.05-0.125,0.087-0.201,0.112c-0.073,0.027-0.151,0.04-0.233,0.04c-0.108,0-0.207-0.02-0.295-0.058
			c-0.088-0.037-0.164-0.091-0.227-0.163c-0.063-0.073-0.113-0.163-0.148-0.269c-0.034-0.105-0.05-0.227-0.05-0.363
			s0.017-0.257,0.05-0.363c0.035-0.105,0.084-0.194,0.148-0.267c0.063-0.073,0.139-0.128,0.227-0.165
			c0.088-0.038,0.187-0.057,0.295-0.057c0.083,0,0.16,0.013,0.233,0.04c0.075,0.025,0.142,0.063,0.201,0.112
			c0.06,0.05,0.111,0.112,0.152,0.185s0.068,0.158,0.082,0.253h-0.295c-0.021-0.11-0.065-0.193-0.132-0.251
			c-0.067-0.059-0.147-0.088-0.24-0.088c-0.133,0-0.238,0.053-0.313,0.159c-0.075,0.104-0.112,0.251-0.112,0.442
			s0.037,0.339,0.112,0.445c0.075,0.104,0.179,0.156,0.313,0.156c0.093,0,0.173-0.028,0.24-0.085
			c0.067-0.059,0.111-0.144,0.132-0.253H-6.559z"/>
		<polygon clip-path="url(#SVGID_2_)" fill="#188ECE" points="-9.293,11.808 -9.939,3.355 -1.718,3.355 -2.457,11.808 
			-5.829,12.824 		"/>
		<polygon clip-path="url(#SVGID_2_)" fill="#42A5DD" points="-5.782,12.131 -5.782,4.278 -2.41,4.278 -2.964,11.253 		"/>
		<polygon clip-path="url(#SVGID_2_)" fill="#E5E5E5" points="-8.276,6.126 -8.369,5.11 -5.782,5.11 -5.782,6.126 		"/>
		<path clip-path="url(#SVGID_2_)" fill="#E5E5E5" d="M-5.782,5.056h-2.586v0.11h2.586V5.056z M-5.727,6.126V5.11h-0.11v1.016
			H-5.727z M-8.276,6.182h2.494v-0.11h-2.494V6.182z M-8.424,5.115l0.092,1.016l0.11-0.01l-0.092-1.016L-8.424,5.115z M-5.782,5.11
			h0.055V5.056h-0.055V5.11z M-5.782,6.126v0.055h0.055V6.126H-5.782z M-8.276,6.126l-0.055,0.005l0.005,0.05h0.05V6.126z
			 M-8.369,5.11V5.056h-0.061l0.005,0.06L-8.369,5.11z"/>
		<path clip-path="url(#SVGID_2_)" fill="#E5E5E5" d="M-8.184,7.188c0.77-0.354,2.319-1.063,2.355-1.063v1.986h-2.31L-8.184,7.188z"
			/>
		<path clip-path="url(#SVGID_2_)" fill="#E5E5E5" d="M-5.773,8.112V6.126h-0.11v1.986H-5.773z M-8.138,8.167h2.31v-0.11h-2.31
			V8.167z M-8.239,7.191l0.046,0.924l0.11-0.005l-0.046-0.924L-8.239,7.191z M-5.829,6.071c-0.008,0-0.015,0.002-0.017,0.002
			c-0.003,0-0.006,0.001-0.009,0.002C-5.859,6.078-5.865,6.08-5.873,6.083C-5.887,6.088-5.906,6.097-5.93,6.106
			c-0.048,0.021-0.115,0.049-0.196,0.085C-6.289,6.264-6.51,6.364-6.754,6.475c-0.488,0.221-1.068,0.487-1.453,0.664l0.046,0.1
			c0.385-0.177,0.964-0.443,1.452-0.664c0.244-0.111,0.465-0.21,0.627-0.282C-6,6.257-5.934,6.228-5.887,6.208
			c0.023-0.01,0.042-0.018,0.055-0.022c0.006-0.002,0.011-0.004,0.014-0.005C-5.817,6.18-5.817,6.18-5.817,6.18
			c0,0-0.001,0-0.002,0.001c-0.001,0-0.004,0-0.009,0V6.071z M-5.829,8.112v0.055h0.055V8.112H-5.829z M-8.138,8.112l-0.055,0.003
			l0.002,0.052h0.052V8.112z M-8.184,7.188l-0.023-0.05l-0.034,0.015l0.002,0.038L-8.184,7.188z M-5.829,6.126h0.055V6.071h-0.055
			V6.126z"/>
		<polygon clip-path="url(#SVGID_2_)" fill="#E5E5E5" points="-7.029,8.713 -8.092,8.713 -7.953,10.283 -5.828,11.068 -5.828,9.821 
			-7.029,9.452 		"/>
		<path clip-path="url(#SVGID_2_)" fill="#E5E5E5" d="M-7.898,10.278l-0.139-1.57l-0.109,0.01l0.139,1.57L-7.898,10.278z
			 M-5.809,11.017l-2.125-0.785l-0.038,0.104l2.125,0.785L-5.809,11.017z M-5.883,9.821v1.247h0.11V9.821H-5.883z M-7.045,9.504
			l1.201,0.37l0.033-0.105l-1.201-0.369L-7.045,9.504z M-7.084,8.713v0.739h0.11V8.713H-7.084z M-8.092,8.768h1.063v-0.11h-1.063
			V8.768z M-7.953,10.283l-0.055,0.005l0.003,0.035l0.033,0.012L-7.953,10.283z M-5.828,11.068l-0.02,0.052l0.074,0.027v-0.079
			H-5.828z M-5.828,9.821h0.055V9.781l-0.039-0.012L-5.828,9.821z M-7.029,9.452h-0.055v0.041l0.039,0.012L-7.029,9.452z
			 M-7.029,8.713h0.055V8.658h-0.055V8.713z M-8.092,8.713V8.658h-0.06l0.005,0.06L-8.092,8.713z"/>
		<polygon clip-path="url(#SVGID_2_)" fill="#FFFFFF" points="-5.782,8.112 -5.782,5.11 -3.149,5.11 -3.149,6.126 -5.228,7.05 
			-3.288,7.05 -3.519,10.237 -5.782,11.068 -5.782,9.821 -4.535,9.452 -4.489,8.112 		"/>
		<path clip-path="url(#SVGID_2_)" fill="#FFFFFF" d="M-3.149,5.055h-2.633v0.11h2.633V5.055z M-3.094,6.126V5.11h-0.11v1.016
			H-3.094z M-5.206,7.1l2.079-0.923l-0.045-0.101L-5.25,7L-5.206,7.1z M-3.288,6.995h-1.94v0.11h1.94V6.995z M-3.464,10.241
			l0.23-3.188l-0.109-0.008l-0.231,3.187L-3.464,10.241z M-5.763,11.12l2.263-0.831l-0.038-0.104l-2.263,0.831L-5.763,11.12z
			 M-5.837,9.821v1.247h0.11V9.821H-5.837z M-4.551,9.399l-1.247,0.37l0.031,0.105l1.247-0.369L-4.551,9.399z M-4.544,8.11
			L-4.59,9.45l0.11,0.003l0.046-1.339L-4.544,8.11z M-5.782,8.167h1.293v-0.11h-1.293V8.167z M-5.837,5.11v3.002h0.11V5.11H-5.837z
			 M-3.149,5.11h0.055V5.055h-0.055V5.11z M-3.149,6.126l0.022,0.051l0.033-0.015V6.126H-3.149z M-5.228,7.05L-5.25,7l0.022,0.105
			V7.05z M-3.288,7.05l0.055,0.003l0.005-0.059h-0.06V7.05z M-3.519,10.237l0.019,0.052l0.034-0.012l0.002-0.036L-3.519,10.237z
			 M-5.782,11.068h-0.055v0.079l0.074-0.027L-5.782,11.068z M-5.782,9.821l-0.016-0.053l-0.04,0.012v0.041H-5.782z M-4.535,9.452
			l0.016,0.053l0.038-0.011l0.001-0.04L-4.535,9.452z M-4.489,8.112l0.055,0.002l0.002-0.057h-0.057V8.112z M-5.782,8.112h-0.055
			v0.055h0.055V8.112z M-5.782,5.11V5.055h-0.055V5.11H-5.782z"/>
	</g>
</g>
</svg>
