<svg width="579" height="578" viewBox="0 0 579 578" fill="none" xmlns="http://www.w3.org/2000/svg">
<circle cx="289.545" cy="288.893" r="211.344" transform="rotate(-30 289.545 288.893)" fill="#B63434"/>
<path d="M235.169 300.034L244.739 294.509C246.879 293.274 248.931 292.591 250.896 292.463C252.88 292.323 254.674 292.7 256.278 293.595C257.882 294.49 259.214 295.855 260.273 297.689C261.344 299.544 261.872 301.4 261.856 303.257C261.83 305.093 261.259 306.836 260.146 308.484C259.052 310.121 257.435 311.557 255.295 312.793L251.29 315.106L255.12 321.74L249.556 324.953L235.169 300.034ZM252.208 308.012C253.778 307.106 254.779 306.038 255.211 304.81C255.664 303.571 255.496 302.268 254.708 300.902C253.919 299.536 252.881 298.75 251.593 298.543C250.325 298.323 248.906 298.667 247.336 299.573L243.576 301.744L248.448 310.183L252.208 308.012ZM285.103 305.245C282.555 306.716 279.922 307.476 277.204 307.523C274.519 307.578 272.024 306.953 269.721 305.647C267.406 304.32 265.53 302.413 264.095 299.926C262.659 297.44 261.951 294.872 261.971 292.224C261.98 289.556 262.68 287.073 264.071 284.775C265.471 282.445 267.444 280.544 269.992 279.073C272.54 277.602 275.163 276.849 277.86 276.813C280.566 276.746 283.077 277.375 285.392 278.702C287.695 280.009 289.565 281.905 291.001 284.392C292.437 286.879 293.15 289.456 293.142 292.125C293.121 294.773 292.405 297.252 290.994 299.561C289.615 301.88 287.651 303.774 285.103 305.245ZM282.208 300.231C283.696 299.372 284.841 298.249 285.644 296.861C286.446 295.474 286.831 293.975 286.797 292.363C286.772 290.72 286.319 289.134 285.436 287.605C284.542 286.056 283.395 284.87 281.996 284.047C280.617 283.212 279.126 282.795 277.524 282.797C275.921 282.798 274.375 283.228 272.887 284.087C271.399 284.946 270.254 286.07 269.452 287.457C268.649 288.844 268.254 290.35 268.268 291.973C268.301 293.584 268.765 295.164 269.659 296.714C270.542 298.242 271.678 299.434 273.069 300.289C274.468 301.112 275.969 301.523 277.572 301.522C279.175 301.52 280.72 301.09 282.208 300.231ZM316.339 286.396L306.971 281.327L302.538 283.887L307.074 291.745L301.51 294.958L287.123 270.039L297.151 264.249C299.231 263.048 301.23 262.369 303.151 262.212C305.059 262.034 306.782 262.358 308.318 263.183C309.854 264.008 311.117 265.277 312.105 266.989C313.094 268.701 313.561 270.429 313.508 272.172C313.463 273.883 312.907 275.509 311.839 277.049L322.79 282.671L316.339 286.396ZM299.696 278.964L303.915 276.528C305.403 275.669 306.378 274.699 306.84 273.616C307.311 272.502 307.211 271.364 306.541 270.202C305.87 269.04 304.94 268.395 303.751 268.266C302.571 268.105 301.237 268.454 299.749 269.313L295.53 271.749L299.696 278.964ZM333.677 249.724L325.575 254.402L337.12 274.398L331.555 277.611L320.01 257.615L311.908 262.293L309.066 257.37L330.835 244.801L333.677 249.724ZM333.822 243.077L352.106 232.521L354.93 237.413L342.211 244.756L345.477 250.413L356.789 243.881L359.578 248.712L348.266 255.244L353.773 264.783L348.209 267.996L333.822 243.077ZM382.263 249.15C379.715 250.621 377.082 251.38 374.364 251.427C371.679 251.483 369.184 250.858 366.881 249.551C364.566 248.225 362.69 246.318 361.254 243.831C359.819 241.344 359.111 238.777 359.131 236.129C359.14 233.46 359.84 230.977 361.231 228.679C362.631 226.349 364.604 224.449 367.152 222.978C369.7 221.507 372.323 220.753 375.02 220.718C377.726 220.651 380.237 221.28 382.552 222.607C384.855 223.913 386.725 225.81 388.161 228.297C389.596 230.784 390.31 233.361 390.301 236.029C390.281 238.677 389.565 241.156 388.154 243.466C386.774 245.784 384.811 247.679 382.263 249.15ZM379.368 244.136C380.856 243.277 382.001 242.153 382.804 240.766C383.606 239.379 383.991 237.879 383.957 236.268C383.932 234.624 383.479 233.038 382.596 231.51C381.702 229.96 380.555 228.774 379.156 227.951C377.777 227.117 376.286 226.7 374.683 226.701C373.081 226.703 371.535 227.133 370.047 227.992C368.559 228.851 367.414 229.974 366.612 231.362C365.809 232.749 365.414 234.254 365.427 235.878C365.461 237.489 365.925 239.069 366.819 240.618C367.702 242.147 368.838 243.339 370.229 244.194C371.628 245.017 373.129 245.428 374.732 245.426C376.334 245.425 377.88 244.995 379.368 244.136ZM389.847 210.731L401.392 230.727L413.836 223.542L416.678 228.465L398.67 238.862L384.283 213.944L389.847 210.731ZM410.659 198.715L425.046 223.634L419.481 226.847L405.094 201.928L410.659 198.715ZM442.159 214.569C439.611 216.04 436.978 216.799 434.261 216.846C431.575 216.902 429.081 216.277 426.777 214.97C424.462 213.643 422.587 211.737 421.151 209.25C419.715 206.763 419.007 204.196 419.028 201.548C419.036 198.879 419.736 196.396 421.127 194.098C422.527 191.768 424.501 189.868 427.049 188.397C429.597 186.925 432.219 186.172 434.917 186.137C437.623 186.069 440.133 186.699 442.448 188.026C444.752 189.332 446.621 191.229 448.057 193.716C449.493 196.202 450.206 198.78 450.198 201.448C450.177 204.096 449.462 206.575 448.05 208.885C446.671 211.203 444.707 213.098 442.159 214.569ZM439.264 209.555C440.752 208.695 441.897 207.572 442.7 206.185C443.502 204.798 443.887 203.298 443.854 201.687C443.829 200.043 443.375 198.457 442.492 196.928C441.598 195.379 440.451 194.193 439.052 193.37C437.673 192.536 436.182 192.119 434.58 192.12C432.977 192.122 431.432 192.552 429.944 193.411C428.456 194.27 427.31 195.393 426.508 196.781C425.705 198.168 425.311 199.673 425.324 201.296C425.357 202.908 425.821 204.488 426.716 206.037C427.598 207.566 428.735 208.758 430.125 209.613C431.524 210.436 433.025 210.846 434.628 210.845C436.231 210.844 437.776 210.414 439.264 209.555Z" fill="white"/>
</svg>
