<svg width="579" height="578" fill="none" xmlns="http://www.w3.org/2000/svg"><circle cx="289.545" cy="288.893" r="211.344" transform="rotate(-30 289.545 288.893)" fill="#B63434"/><path d="m235.169 300.034 9.57-5.525c2.14-1.235 4.192-1.918 6.157-2.046 1.984-.14 3.778.237 5.382 1.132 1.604.895 2.936 2.26 3.995 4.094 1.071 1.855 1.599 3.711 1.583 5.568-.026 1.836-.597 3.579-1.71 5.227-1.094 1.637-2.711 3.073-4.851 4.309l-4.005 2.313 3.83 6.634-5.564 3.213-14.387-24.919Zm17.039 7.978c1.57-.906 2.571-1.974 3.003-3.202.453-1.239.285-2.542-.503-3.908-.789-1.366-1.827-2.152-3.115-2.359-1.268-.22-2.687.124-4.257 1.03l-3.76 2.171 4.872 8.439 3.76-2.171Zm32.895-2.767c-2.548 1.471-5.181 2.231-7.899 2.278-2.685.055-5.18-.57-7.483-1.876-2.315-1.327-4.191-3.234-5.626-5.721-1.436-2.486-2.144-5.054-2.124-7.702.009-2.668.709-5.151 2.1-7.449 1.4-2.33 3.373-4.231 5.921-5.702s5.171-2.224 7.868-2.26c2.706-.067 5.217.562 7.532 1.889 2.303 1.307 4.173 3.203 5.609 5.69 1.436 2.487 2.149 5.064 2.141 7.733-.021 2.648-.737 5.127-2.148 7.436-1.379 2.319-3.343 4.213-5.891 5.684Zm-2.895-5.014c1.488-.859 2.633-1.982 3.436-3.37a8.465 8.465 0 0 0 1.153-4.498c-.025-1.643-.478-3.229-1.361-4.758-.894-1.549-2.041-2.735-3.44-3.558a8.46 8.46 0 0 0-4.472-1.25c-1.603.001-3.149.431-4.637 1.29-1.488.859-2.633 1.983-3.435 3.37a8.705 8.705 0 0 0-1.184 4.516c.033 1.611.497 3.191 1.391 4.741.883 1.528 2.019 2.72 3.41 3.575a8.72 8.72 0 0 0 4.503 1.233c1.603-.002 3.148-.432 4.636-1.291Zm34.131-13.835-9.368-5.069-4.433 2.56 4.536 7.858-5.564 3.213-14.387-24.919 10.028-5.79c2.08-1.201 4.079-1.88 6-2.037 1.908-.178 3.631.146 5.167.971s2.799 2.094 3.787 3.806c.989 1.712 1.456 3.44 1.403 5.183-.045 1.711-.601 3.337-1.669 4.877l10.951 5.622-6.451 3.725Zm-16.643-7.432 4.219-2.436c1.488-.859 2.463-1.829 2.925-2.912.471-1.114.371-2.252-.299-3.414-.671-1.162-1.601-1.807-2.79-1.936-1.18-.161-2.514.188-4.002 1.047l-4.219 2.436 4.166 7.215Zm33.981-29.24-8.102 4.678 11.545 19.996-5.565 3.213-11.545-19.996-8.102 4.678-2.842-4.923 21.769-12.569 2.842 4.923Zm.145-6.647 18.284-10.556 2.824 4.892-12.719 7.343 3.266 5.657 11.312-6.532 2.789 4.831-11.312 6.532 5.507 9.539-5.564 3.213-14.387-24.919Zm48.441 6.073c-2.548 1.471-5.181 2.23-7.899 2.277-2.685.056-5.18-.569-7.483-1.876-2.315-1.326-4.191-3.233-5.627-5.72-1.435-2.487-2.143-5.054-2.123-7.702.009-2.669.709-5.152 2.1-7.45 1.4-2.33 3.373-4.23 5.921-5.701 2.548-1.471 5.171-2.225 7.868-2.26 2.706-.067 5.217.562 7.532 1.889 2.303 1.306 4.173 3.203 5.609 5.69 1.435 2.487 2.149 5.064 2.14 7.732-.02 2.648-.736 5.127-2.147 7.437-1.38 2.318-3.343 4.213-5.891 5.684Zm-2.895-5.014c1.488-.859 2.633-1.983 3.436-3.37a8.467 8.467 0 0 0 1.153-4.498c-.025-1.644-.478-3.23-1.361-4.758-.894-1.55-2.041-2.736-3.44-3.559a8.48 8.48 0 0 0-4.473-1.25c-1.602.002-3.148.432-4.636 1.291s-2.633 1.982-3.435 3.37a8.713 8.713 0 0 0-1.185 4.516c.034 1.611.498 3.191 1.392 4.74.883 1.529 2.019 2.721 3.41 3.576a8.71 8.71 0 0 0 4.503 1.232c1.602-.001 3.148-.431 4.636-1.29Zm10.479-33.405 11.545 19.996 12.444-7.185 2.842 4.923-18.008 10.397-14.387-24.918 5.564-3.213Zm20.812-12.016 14.387 24.919-5.565 3.213-14.387-24.919 5.565-3.213Zm31.5 15.854c-2.548 1.471-5.181 2.23-7.898 2.277-2.686.056-5.18-.569-7.484-1.876-2.315-1.327-4.19-3.233-5.626-5.72-1.436-2.487-2.144-5.054-2.123-7.702.008-2.669.708-5.152 2.099-7.45 1.4-2.33 3.374-4.23 5.922-5.701 2.548-1.472 5.17-2.225 7.868-2.26 2.706-.068 5.216.562 7.531 1.889 2.304 1.306 4.173 3.203 5.609 5.69 1.436 2.486 2.149 5.064 2.141 7.732-.021 2.648-.736 5.127-2.148 7.437-1.379 2.318-3.343 4.213-5.891 5.684Zm-2.895-5.014c1.488-.86 2.633-1.983 3.436-3.37a8.477 8.477 0 0 0 1.154-4.498c-.025-1.644-.479-3.23-1.362-4.759-.894-1.549-2.041-2.735-3.44-3.558a8.478 8.478 0 0 0-4.472-1.25c-1.603.002-3.148.432-4.636 1.291s-2.634 1.982-3.436 3.37a8.711 8.711 0 0 0-1.184 4.515c.033 1.612.497 3.192 1.392 4.741.882 1.529 2.019 2.721 3.409 3.576a8.72 8.72 0 0 0 4.503 1.232c1.603-.001 3.148-.431 4.636-1.29Z" fill="#fff"/></svg>