<svg width="356" height="356" fill="none" xmlns="http://www.w3.org/2000/svg"><circle cx="178.455" cy="177.657" r="144.958" transform="rotate(-15 178.455 177.657)" fill="#fff"/><path d="M116.684 178.752c1.986-.532 3.885-.639 5.697-.32 1.812.319 3.373 1.024 4.683 2.116 1.325 1.064 2.26 2.433 2.804 4.109l-6.223 1.667c-.496-1.144-1.263-1.932-2.301-2.363-1.038-.432-2.275-.455-3.709-.071-1.368.367-2.37.907-3.007 1.622-.642.692-.851 1.458-.626 2.296.177.662.565 1.138 1.163 1.427.598.289 1.437.466 2.519.531 1.098.037 2.66-.003 4.686-.12 3.145-.181 5.55.275 7.214 1.366 1.68 1.064 2.807 2.666 3.381 4.806.449 1.678.357 3.275-.277 4.793-.612 1.512-1.657 2.821-3.134 3.927-1.472 1.127-3.223 1.963-5.253 2.507-2.207.591-4.297.737-6.269.438-1.944-.283-3.624-.992-5.04-2.126-1.394-1.141-2.389-2.648-2.985-4.522l6.189-1.659c.526 1.255 1.425 2.138 2.697 2.648 1.288.483 2.782.496 4.481.041 1.236-.331 2.177-.879 2.824-1.643.668-.771.884-1.597.648-2.48-.189-.706-.567-1.232-1.132-1.577-.544-.351-1.334-.565-2.372-.642-1.015-.083-2.403-.054-4.163.087-3.177.236-5.696-.118-7.558-1.062-1.861-.944-3.12-2.641-3.776-5.09-.426-1.589-.321-3.095.315-4.519.657-1.43 1.731-2.675 3.22-3.737 1.484-1.083 3.252-1.9 5.304-2.45Zm35.286 20.879c-2.736.733-5.373.777-7.911.133a13.932 13.932 0 0 1-6.512-3.648c-1.815-1.831-3.084-4.093-3.805-6.785-.721-2.693-.751-5.275-.089-7.746a13.875 13.875 0 0 1 3.807-6.448c1.876-1.827 4.182-3.108 6.918-3.841 2.405-.644 4.675-.78 6.81-.405 2.156.368 4.037 1.165 5.643 2.39a12.673 12.673 0 0 1 3.742 4.567l-6.09 1.632c-.686-1.235-1.809-2.117-3.37-2.645-1.538-.533-3.246-.549-5.121-.046-1.611.431-2.967 1.197-4.068 2.296a8.22 8.22 0 0 0-2.254 3.903c-.379 1.497-.347 3.073.096 4.728.438 1.633 1.198 3.014 2.281 4.143a8.46 8.46 0 0 0 3.912 2.287c1.498.379 3.052.353 4.663-.078a8.702 8.702 0 0 0 3.28-1.66c.973-.781 1.71-1.653 2.209-2.614.521-.968.75-1.88.685-2.738l6.091-1.632c.204 1.908-.096 3.834-.9 5.776-.805 1.942-2.081 3.667-3.829 5.176-1.72 1.526-3.782 2.61-6.188 3.255Zm15.829-33.865 7.228 26.977-6.024 1.614-7.229-26.977 6.025-1.614Zm28.055 21.397-7.51-7.106-4.799 1.286 2.279 8.507-6.024 1.614-7.229-26.977 10.857-2.909c2.251-.603 4.297-.738 6.137-.403 1.834.313 3.367 1.049 4.6 2.209 1.234 1.159 2.099 2.666 2.595 4.52.497 1.853.501 3.591.013 5.212-.472 1.592-1.402 2.977-2.79 4.153l8.855 8.022-6.984 1.872Zm-13.737-11.149 4.568-1.224c1.611-.432 2.769-1.097 3.474-1.995.722-.927.914-2.019.577-3.277-.337-1.258-1.047-2.097-2.129-2.516-1.066-.448-2.404-.456-4.015-.024l-4.568 1.224 2.093 7.812Zm16.282-18.448 10.361-2.776c2.317-.621 4.413-.745 6.286-.372 1.896.367 3.484 1.172 4.763 2.414 1.278 1.242 2.184 2.856 2.716 4.842.538 2.008.567 3.881.086 5.618-.486 1.715-1.459 3.206-2.917 4.471-1.436 1.26-3.313 2.201-5.63 2.822l-4.336 1.162 1.924 7.183-6.024 1.614-7.229-26.978Zm13.972 11.76c1.699-.455 2.906-1.204 3.62-2.247.736-1.048.906-2.312.51-3.791-.396-1.478-1.172-2.476-2.328-2.995-1.134-.524-2.551-.558-4.25-.103l-4.071 1.091 2.448 9.136 4.071-1.091Zm34.231-18.964-8.772 2.351 5.801 21.648-6.025 1.614-5.801-21.648-8.771 2.35-1.428-5.329 23.568-6.315 1.428 5.329Z" fill="#000"/></svg>