<svg width="337" height="337" fill="none" xmlns="http://www.w3.org/2000/svg"><circle cx="168.556" cy="168.451" r="168.134" fill="#000"/><path d="m60.924 67.622-.14-3.122h1.358l-.14 3.122h-1.078Zm12.642 1.512H71.62v-1.148h1.946v-1.26H71.62v-1.148h1.946V64.5h1.386v5.992h-1.386v-1.358Zm-2.562.924h-6.818V64.71h1.358v1.484h4.116V64.71h1.344v5.348Zm-1.344-1.12V67.3h-4.116v1.638h4.116Zm5.586 6.286v1.078H64.774v-3.094h8.806v-.98h-8.834V71.15h10.206v3.08h-8.806v.994h9.1ZM86.935 64.5h1.4v11.956h-1.4V64.5Zm-5.642 11.396c-.728 0-1.363-.205-1.904-.616-.542-.401-.966-1.017-1.274-1.848-.3-.83-.448-1.862-.448-3.094 0-1.232.149-2.263.448-3.094.308-.83.732-1.447 1.274-1.848.54-.41 1.176-.616 1.904-.616.718 0 1.348.205 1.89.616.54.401.96 1.017 1.26 1.848.308.83.462 1.862.462 3.094 0 1.232-.154 2.263-.462 3.094-.3.83-.72 1.447-1.26 1.848-.542.41-1.172.616-1.89.616Zm0-1.274c.662 0 1.199-.35 1.61-1.05.41-.71.616-1.787.616-3.234 0-1.437-.206-2.51-.616-3.22-.411-.71-.948-1.064-1.61-1.064-.672 0-1.214.355-1.624 1.064-.411.7-.616 1.773-.616 3.22 0 1.447.2 2.525.602 3.234.41.7.956 1.05 1.638 1.05Zm26.606-3.514h-1.386V64.5h1.386v6.608Zm-3.5-.924h-7.112V64.71h1.358v1.526h4.396V64.71h1.358v5.474Zm-1.358-1.134v-1.694h-4.396v1.694h4.396Zm4.914 7.42-5.32-1.722c-.56.504-1.292.887-2.198 1.148a9.773 9.773 0 0 1-2.842.406V75.14c1.064 0 2.04-.177 2.926-.532.887-.355 1.456-.84 1.708-1.456h-4.55v-1.12h4.494V70.8h1.414v1.232h4.48v1.12h-4.424a3.198 3.198 0 0 1-.266.672l4.97 1.498-.392 1.148Zm14.755-5.796h-1.68v5.782h-1.386V64.5h1.386v4.844h1.68v1.33Zm-7.196 3.78c.569 0 1.134-.047 1.694-.14.569-.103 1.036-.238 1.4-.406v1.26c-.355.177-.817.317-1.386.42a9.757 9.757 0 0 1-1.736.154h-4.718V64.864h1.414v9.59h3.332Zm9.015-9.954h1.4v3.402h8.946v1.232h-10.346V64.5Zm-.854 5.95h11.942v1.232h-11.942V70.45Zm.826 2.296h1.414v2.338h9.086v1.232h-10.5v-3.57Zm31.254-4.452h-1.68v2.898h-1.386V64.5h1.386v2.45h1.68v1.344Zm-5.096 2.324h-6.986V64.71h1.358v1.736h4.27V64.71h1.358v5.908Zm-1.358-1.148v-1.904h-4.27v1.904h4.27Zm-5.222 2.38h9.996v4.452h-9.996V71.85Zm1.386 3.29h7.224v-2.128h-7.224v2.128Zm15.819-10.458c.812 0 1.545.145 2.198.434.654.28 1.176.677 1.568 1.19.392.513.612 1.092.658 1.736h-1.512c-.084-.616-.392-1.12-.924-1.512-.522-.392-1.208-.588-2.058-.588-.858 0-1.535.163-2.03.49-.485.317-.728.733-.728 1.246 0 .383.117.705.35.966.234.252.593.471 1.078.658.495.187 1.162.369 2.002.546 1.354.29 2.334.705 2.94 1.246.616.532.924 1.223.924 2.072 0 .653-.196 1.227-.588 1.722-.392.485-.928.859-1.61 1.12-.681.27-1.437.406-2.268.406-.868 0-1.647-.15-2.338-.448-.681-.299-1.227-.719-1.638-1.26a3.429 3.429 0 0 1-.686-1.89h1.512c.075.69.402 1.25.98 1.68.588.43 1.344.644 2.268.644.551 0 1.046-.08 1.484-.238.439-.159.78-.383 1.022-.672.243-.29.364-.616.364-.98 0-.41-.116-.751-.35-1.022-.233-.27-.597-.5-1.092-.686-.485-.196-1.157-.383-2.016-.56-1.306-.27-2.272-.663-2.898-1.176-.616-.513-.924-1.223-.924-2.128 0-.607.182-1.134.546-1.582.374-.457.887-.807 1.54-1.05.654-.243 1.396-.364 2.226-.364Zm10.459 4.746h-1.778v6.734h-1.442v-6.734h-1.778v-1.274h1.778v-2.436h1.442v2.436h1.778v1.274Zm4.77 6.93a3.87 3.87 0 0 1-2.03-.546 3.876 3.876 0 0 1-1.414-1.512 4.464 4.464 0 0 1-.518-2.142c0-.784.173-1.498.518-2.142a3.876 3.876 0 0 1 1.414-1.512 3.87 3.87 0 0 1 2.03-.546c.681 0 1.269.135 1.764.406.495.27.854.597 1.078.98v-1.19h1.442v8.008h-1.442v-1.19c-.224.383-.583.71-1.078.98-.495.27-1.083.406-1.764.406Zm.126-1.274a2.65 2.65 0 0 0 1.414-.378c.42-.261.747-.611.98-1.05.233-.448.35-.947.35-1.498 0-.55-.117-1.045-.35-1.484a2.593 2.593 0 0 0-.98-1.05 2.578 2.578 0 0 0-1.414-.392c-.523 0-.989.126-1.4.378a2.565 2.565 0 0 0-.938 1.05 3.302 3.302 0 0 0-.336 1.498c0 .55.112 1.05.336 1.498.224.448.537.798.938 1.05.411.252.877.378 1.4.378Zm7.864-6.93v1.232c.214-.364.569-.69 1.064-.98.504-.299 1.11-.448 1.82-.448.457 0 .821.047 1.092.14v1.372c-.327-.15-.724-.224-1.19-.224-.532 0-1.013.13-1.442.392-.42.252-.752.593-.994 1.022-.234.42-.35.873-.35 1.358v4.144h-1.442v-8.008h1.442Zm6.849 0v1.232c.215-.364.57-.69 1.064-.98.504-.299 1.111-.448 1.82-.448.458 0 .822.047 1.092.14v1.372c-.326-.15-.723-.224-1.19-.224a2.72 2.72 0 0 0-1.442.392 2.752 2.752 0 0 0-1.344 2.38v4.144h-1.442v-8.008h1.442Zm13.021 0-4.998 11.41h-1.456l1.582-3.57-3.43-7.84h1.582l2.576 6.3 2.646-6.3h1.498Zm8.992 0v1.218c.205-.364.541-.69 1.008-.98.476-.29 1.045-.434 1.708-.434.625 0 1.18.145 1.666.434.494.29.877.7 1.148 1.232.27.523.406 1.139.406 1.848v4.69h-1.442v-4.438c0-.803-.187-1.419-.56-1.848-.364-.439-.873-.658-1.526-.658-.458 0-.868.13-1.232.392a2.658 2.658 0 0 0-.868 1.022c-.206.43-.308.891-.308 1.386v4.144h-1.442v-8.008h1.442Zm8.691-3.696c.28 0 .509.093.686.28.187.177.28.401.28.672a.932.932 0 0 1-.966.952.96.96 0 0 1-.686-.266.96.96 0 0 1-.266-.686.934.934 0 0 1 .952-.952Zm-.714 11.718v-8.022h1.442v8.022h-1.442Zm7.626 3.584c-1.083 0-1.951-.27-2.604-.812a3.327 3.327 0 0 1-1.19-2.03h1.47c.093.467.331.85.714 1.148.392.299.928.448 1.61.448.737 0 1.33-.233 1.778-.7.457-.457.686-1.073.686-1.848V74.86c-.224.383-.584.71-1.078.98-.495.27-1.083.406-1.764.406a3.867 3.867 0 0 1-3.444-2.016 4.343 4.343 0 0 1-.518-2.114c0-.775.172-1.48.518-2.114a3.894 3.894 0 0 1 1.414-1.498 3.867 3.867 0 0 1 2.03-.546c.681 0 1.269.135 1.764.406.494.27.854.597 1.078.98v-1.19h1.442v7.826c0 .728-.168 1.377-.504 1.946a3.378 3.378 0 0 1-1.386 1.344c-.588.327-1.26.49-2.016.49Zm-.252-4.76a2.65 2.65 0 0 0 2.394-1.414c.233-.439.35-.929.35-1.47 0-.541-.117-1.031-.35-1.47a2.65 2.65 0 0 0-2.394-1.414c-.523 0-.99.126-1.4.378a2.579 2.579 0 0 0-.938 1.036 3.185 3.185 0 0 0-.336 1.47c0 .541.112 1.031.336 1.47.224.439.536.784.938 1.036.41.252.877.378 1.4.378Zm7.863-10.402v4.774c.206-.364.542-.69 1.008-.98.476-.29 1.046-.434 1.708-.434.626 0 1.181.145 1.666.434.495.29.878.7 1.148 1.232.271.523.406 1.139.406 1.848v4.69h-1.442v-4.438c0-.803-.186-1.419-.56-1.848-.364-.439-.872-.658-1.526-.658-.457 0-.868.13-1.232.392a2.666 2.666 0 0 0-.868 1.022c-.205.43-.308.891-.308 1.386v4.144h-1.442V64.598h1.442Zm12.096 4.83h-1.778v6.734h-1.442v-6.734h-1.778v-1.274h1.778v-2.436h1.442v2.436h1.778v1.274Zm1.278-1.806-.14-3.122h1.358l-.14 3.122h-1.078Zm8.736 2.03c-.999 0-1.9-.098-2.702-.294-.794-.196-1.428-.49-1.904-.882-.467-.392-.7-.873-.7-1.442 0-.57.233-1.05.7-1.442.476-.392 1.115-.681 1.918-.868.802-.196 1.698-.294 2.688-.294.989 0 1.885.098 2.688.294.802.187 1.437.476 1.904.868.476.392.714.873.714 1.442 0 .57-.238 1.05-.714 1.442-.467.392-1.102.686-1.904.882-.794.196-1.69.294-2.688.294Zm0-1.12c1.092 0 2.002-.13 2.73-.392.737-.27 1.106-.64 1.106-1.106 0-.467-.369-.83-1.106-1.092-.728-.261-1.638-.392-2.73-.392s-2.007.13-2.744.392c-.728.261-1.092.625-1.092 1.092 0 .467.364.835 1.092 1.106.737.261 1.652.392 2.744.392Zm-5.964 2.184h11.942v1.176h-11.942v-1.176Zm.826 2.198h1.414v2.212h9.086v1.19h-10.5v-3.402Zm28.454-6.692h-8.974V64.92h10.416v7.896h-1.442v-6.594Zm2.24 8.358v1.302h-11.942V74.58h4.452v-5.334h1.428v5.334h6.062ZM72.278 86.286H61.19V85.04h4.816v-1.694h1.428v1.694h4.844v1.246ZM61.736 89.52c0-.812.457-1.414 1.372-1.806.915-.401 2.123-.602 3.626-.602 1.503 0 2.711.2 3.626.602.915.392 1.372.994 1.372 1.806s-.457 1.414-1.372 1.806c-.915.392-2.123.588-3.626.588-1.503 0-2.711-.196-3.626-.588-.915-.392-1.372-.994-1.372-1.806Zm8.582 0c0-.42-.327-.728-.98-.924-.644-.196-1.512-.294-2.604-.294s-1.965.098-2.618.294c-.644.196-.966.504-.966.924 0 .42.322.728.966.924.653.187 1.526.28 2.618.28 1.092 0 1.96-.093 2.604-.28.653-.196.98-.504.98-.924Zm2.394 4.102v1.26H60.77v-1.26h11.942ZM84.051 83.5h1.386v11.956H84.05V83.5Zm-5.712 7.784c-.71 0-1.344-.159-1.904-.476a3.402 3.402 0 0 1-1.316-1.33c-.317-.579-.476-1.232-.476-1.96s.159-1.377.476-1.946a3.377 3.377 0 0 1 1.316-1.344c.56-.317 1.194-.476 1.904-.476s1.344.159 1.904.476c.56.317.999.765 1.316 1.344.317.57.476 1.218.476 1.946s-.159 1.381-.476 1.96a3.402 3.402 0 0 1-1.316 1.33c-.56.317-1.195.476-1.904.476Zm0-1.26c.466 0 .873-.107 1.218-.322.355-.224.63-.523.826-.896.196-.383.294-.812.294-1.288s-.098-.905-.294-1.288a2.19 2.19 0 0 0-.826-.896 2.232 2.232 0 0 0-1.218-.336c-.467 0-.877.112-1.232.336a2.19 2.19 0 0 0-.826.896c-.187.383-.28.812-.28 1.288 0 .728.215 1.33.644 1.806.43.467.994.7 1.694.7Zm-4.102 3.416h4.886c.84 0 1.605-.047 2.296-.14.69-.093 1.232-.233 1.624-.42v1.288c-.402.177-.952.317-1.652.42a16.3 16.3 0 0 1-2.352.154h-4.802V93.44Zm29.811-9.94v11.956h-1.316v-5.838h-1.946v5.628H99.47V83.57h1.316v4.746h1.946V83.5h1.316Zm-8.232 10.01c.513 0 1.013-.037 1.498-.112a6.1 6.1 0 0 0 1.288-.35v1.218c-.345.15-.784.266-1.316.35-.532.084-1.073.126-1.624.126h-2.744V83.934h5.166v1.232h-3.808v8.344h1.54Zm22.147.098v1.274h-11.942v-1.274h2.982v-2.8h-2.366v-1.26h2.114v-4.27h-1.988v-1.274h10.444v1.274h-1.988v4.27h2.114v1.26h-2.352v2.8h2.982Zm-7.812-4.06h3.668v-4.27h-3.668v4.27Zm.238 4.06h3.206v-2.8h-3.206v2.8Zm21.601-6.258h-1.68v3.29h-1.386V83.5h1.386v2.534h1.68v1.316Zm-8.386.49c-.42.69-.971 1.25-1.652 1.68-.672.42-1.438.677-2.296.77v-1.26c.989-.15 1.778-.583 2.366-1.302.597-.719.933-1.629 1.008-2.73h-3.22v-1.19h7.63v1.19h-3.024a5.872 5.872 0 0 1-.294 1.694l3.668 2.464-.742 1.036-3.444-2.352Zm-3.402 3.458h10.108v4.158h-1.4v-2.954h-8.708v-1.204Zm22.525-7.798h1.4v11.956h-1.4V83.5Zm-5.642 11.396c-.728 0-1.363-.205-1.904-.616-.542-.401-.966-1.017-1.274-1.848-.299-.83-.448-1.862-.448-3.094 0-1.232.149-2.263.448-3.094.308-.83.732-1.447 1.274-1.848.541-.41 1.176-.616 1.904-.616.718 0 1.348.205 1.89.616.541.401.961 1.017 1.26 1.848.308.83.462 1.862.462 3.094 0 1.232-.154 2.263-.462 3.094-.299.83-.719 1.447-1.26 1.848-.542.41-1.172.616-1.89.616Zm0-1.274c.662 0 1.199-.35 1.61-1.05.41-.71.616-1.787.616-3.234 0-1.437-.206-2.51-.616-3.22-.411-.71-.948-1.064-1.61-1.064-.672 0-1.214.355-1.624 1.064-.411.7-.616 1.773-.616 3.22 0 1.447.2 2.525.602 3.234.41.7.956 1.05 1.638 1.05Zm21.838-3.948h-1.68v5.782h-1.386V83.5h1.386v4.844h1.68v1.33Zm-7.196 3.808c.57 0 1.134-.051 1.694-.154.57-.103 1.036-.243 1.4-.42v1.26c-.354.177-.826.317-1.414.42a9.99 9.99 0 0 1-1.75.154h-4.676V83.934h6.902v1.26h-5.488v8.288h3.332Zm9.197 1.862a.972.972 0 0 1-.714-.294.948.948 0 0 1-.28-.7c0-.28.093-.513.28-.7a.972.972 0 0 1 .714-.294c.28 0 .513.098.7.294.187.187.28.42.28.7 0 .28-.093.513-.28.7a.927.927 0 0 1-.7.294Zm19.912-5.67h-1.68v5.782h-1.386V83.5h1.386v4.844h1.68v1.33ZM173.5 83.85c-.018 1.895-.177 3.551-.476 4.97l3.766 5.096-1.12.798-3.08-4.27c-.429 1.316-.998 2.347-1.708 3.094-.709.737-1.526 1.139-2.45 1.204v-1.4c.775-.121 1.433-.616 1.974-1.484.551-.868.966-2.002 1.246-3.402.28-1.4.425-2.954.434-4.662l1.414.056Zm20.803 3.612h-1.68V90.5h-1.386v-7h1.386v2.632h1.68v1.33Zm-6.51-1.092v-1.442h-5.6v-1.134h6.972v3.682h-5.572v1.47h3.01c.812 0 1.545-.047 2.198-.14.663-.093 1.186-.224 1.568-.392v1.134c-.373.159-.9.29-1.582.392-.672.093-1.428.14-2.268.14h-4.298v-3.71h5.572Zm-5.166 4.788h9.996v4.144h-9.996v-4.144Zm1.372 3.01h7.252v-1.876h-7.252v1.876Zm12.123-10.528h10.234v1.064h-8.848v1.694h8.988v1.064h-10.374V83.64Zm-.854 4.844h11.942v1.078h-11.942v-1.078Zm.826 3.976h8.932v-.84h-8.96v-1.036h10.318v2.856h-8.932v.84h9.142v1.036h-10.5V92.46Zm22.413-8.96h1.4v11.956h-1.4V83.5Zm-5.642 11.396c-.728 0-1.363-.205-1.904-.616-.541-.401-.966-1.017-1.274-1.848-.299-.83-.448-1.862-.448-3.094 0-1.232.149-2.263.448-3.094.308-.83.733-1.447 1.274-1.848.541-.41 1.176-.616 1.904-.616.719 0 1.349.205 1.89.616.541.401.961 1.017 1.26 1.848.308.83.462 1.862.462 3.094 0 1.232-.154 2.263-.462 3.094-.299.83-.719 1.447-1.26 1.848-.541.41-1.171.616-1.89.616Zm0-1.274c.663 0 1.199-.35 1.61-1.05.411-.71.616-1.787.616-3.234 0-1.437-.205-2.51-.616-3.22-.411-.71-.947-1.064-1.61-1.064-.672 0-1.213.355-1.624 1.064-.411.7-.616 1.773-.616 3.22 0 1.447.201 2.525.602 3.234.411.7.957 1.05 1.638 1.05ZM236.824 83.5h1.4v11.956h-1.4V83.5Zm-5.642 11.396c-.728 0-1.362-.205-1.904-.616-.541-.401-.966-1.017-1.274-1.848-.298-.83-.448-1.862-.448-3.094 0-1.232.15-2.263.448-3.094.308-.83.733-1.447 1.274-1.848.542-.41 1.176-.616 1.904-.616.719 0 1.349.205 1.89.616.542.401.962 1.017 1.26 1.848.308.83.462 1.862.462 3.094 0 1.232-.154 2.263-.462 3.094-.298.83-.718 1.447-1.26 1.848-.541.41-1.171.616-1.89.616Zm0-1.274c.663 0 1.2-.35 1.61-1.05.411-.71.616-1.787.616-3.234 0-1.437-.205-2.51-.616-3.22-.41-.71-.947-1.064-1.61-1.064-.672 0-1.213.355-1.624 1.064-.41.7-.616 1.773-.616 3.22 0 1.447.201 2.525.602 3.234.411.7.957 1.05 1.638 1.05Zm23.876-8.4h-8.96V83.92h10.416v8.288h-1.456v-6.986Zm-9.688 8.358h11.942v1.302H245.37V93.58Zm23.238-10.08h1.386v7h-1.386v-7Zm-9.226 2.87h5.698v-1.442h-5.726v-1.134h7.098v3.682h-5.698v1.47h3.15c.812 0 1.545-.047 2.198-.14.663-.093 1.186-.229 1.568-.406v1.148c-.373.168-.896.299-1.568.392-.672.093-1.423.14-2.254.14h-4.466v-3.71Zm.476 4.788h10.136v4.144h-10.136v-4.144Zm8.764 3.01v-1.876h-7.392v1.876h7.392Zm9.645-6.356c-1.568 0-2.837-.173-3.808-.518-.961-.355-1.442-.91-1.442-1.666 0-.747.481-1.293 1.442-1.638.971-.355 2.24-.532 3.808-.532 1.568 0 2.833.177 3.794.532.971.345 1.456.891 1.456 1.638 0 .756-.485 1.311-1.456 1.666-.961.345-2.226.518-3.794.518Zm0-1.064c1.13 0 2.049-.093 2.758-.28.71-.187 1.064-.467 1.064-.84 0-.373-.359-.653-1.078-.84-.709-.187-1.624-.28-2.744-.28s-2.039.093-2.758.28c-.709.187-1.064.467-1.064.84 0 .373.355.653 1.064.84.71.187 1.629.28 2.758.28Zm-5.964 1.806h11.942v1.078h-11.942v-1.078Zm.826 3.906h8.932v-.84h-8.96v-1.036h10.318v2.856h-8.932v.84h9.142v1.036h-10.5V92.46ZM73.272 108.674h-1.68v5.782h-1.386V102.5h1.386v4.844h1.68v1.33Zm-8.554-5.894c.71 0 1.33.205 1.862.616.532.401.947 1.017 1.246 1.848.299.831.448 1.862.448 3.094 0 1.232-.15 2.263-.448 3.094-.299.831-.714 1.447-1.246 1.848-.532.411-1.153.616-1.862.616-1.092 0-1.96-.467-2.604-1.4-.644-.933-.966-2.319-.966-4.158 0-1.839.322-3.225.966-4.158.644-.933 1.512-1.4 2.604-1.4Zm0 9.842c.653 0 1.176-.35 1.568-1.05.401-.709.602-1.787.602-3.234s-.2-2.52-.602-3.22c-.392-.709-.915-1.064-1.568-1.064-.663 0-1.195.355-1.596 1.064-.392.7-.588 1.773-.588 3.22 0 1.447.196 2.525.588 3.234.401.7.933 1.05 1.596 1.05Zm10.387-8.008h8.862v-.938h-8.862v-1.036h10.22v2.968h-8.862v.938h9.03v1.036H75.105v-2.968Zm-.868 3.976h11.942v1.078H74.237v-1.078Zm.826 2.086h10.276v3.64H75.063v-3.64Zm8.904 2.59v-1.54h-7.532v1.54h7.532Zm16.239-7.084h-1.68v2.45H97.14V102.5h1.386v2.366h1.68v1.316Zm-3.934 1.568c-.374.159-.901.289-1.582.392-.672.093-1.428.14-2.268.14h-4.298v-5.488h7.294v1.176H89.51v3.15h2.996c.812 0 1.544-.047 2.198-.14.662-.093 1.185-.224 1.568-.392v1.162Zm.896 1.54h1.358v5.012H88.53v-5.012h1.358v1.274h7.28v-1.274Zm0 3.878v-1.484h-7.28v1.484h7.28Zm16.504-4.494h-1.68v5.782h-1.386V102.5h1.386v4.844h1.68v1.33Zm-7.196 3.808a9.34 9.34 0 0 0 1.694-.154c.57-.103 1.036-.243 1.4-.42v1.26c-.354.177-.826.317-1.414.42a9.96 9.96 0 0 1-1.75.154h-4.676v-10.808h6.902v1.26h-5.488v8.288h3.332Zm17.863-8.26h-8.974v-1.302h10.416v7.896h-1.442v-6.594Zm2.24 8.358v1.302h-11.942v-1.302h4.452v-5.334h1.428v5.334h6.062Zm7.16-9.8h1.428v5.642h8.918v1.302h-10.346v-6.944Zm-.784 9.8h11.942v1.302h-11.942v-1.302Zm23.35-10.08h1.344v11.956h-1.344V102.5Zm-9.492 9.506c.756-.103 1.302-.691 1.638-1.764.336-1.073.504-2.567.504-4.48v-1.568h-2.142v-1.26h3.486v2.702c0 5.003-1.162 7.555-3.486 7.658v-1.288Zm3.78.42c1.624-.187 2.436-2.347 2.436-6.482v-1.75h-2.114v-1.26h3.458v2.884c0 2.483-.308 4.405-.924 5.768-.606 1.353-1.558 2.063-2.856 2.128v-1.288Zm10.149-9.926h1.4v3.402h8.946v1.232h-10.346V102.5Zm-.854 5.95h11.942v1.232h-11.942v-1.232Zm.826 2.296h1.414v2.338h9.086v1.232h-10.5v-3.57Zm27.264-8.246h1.4v11.956h-1.4V102.5Zm-5.642 11.396c-.728 0-1.363-.205-1.904-.616-.542-.401-.966-1.017-1.274-1.848-.299-.831-.448-1.862-.448-3.094 0-1.232.149-2.263.448-3.094.308-.831.732-1.447 1.274-1.848.541-.411 1.176-.616 1.904-.616.718 0 1.348.205 1.89.616.541.401.961 1.017 1.26 1.848.308.831.462 1.862.462 3.094 0 1.232-.154 2.263-.462 3.094-.299.831-.719 1.447-1.26 1.848-.542.411-1.172.616-1.89.616Zm0-1.274c.662 0 1.199-.35 1.61-1.05.41-.709.616-1.787.616-3.234 0-1.437-.206-2.511-.616-3.22-.411-.709-.948-1.064-1.61-1.064-.672 0-1.214.355-1.624 1.064-.411.7-.616 1.773-.616 3.22 0 1.447.2 2.525.602 3.234.41.7.956 1.05 1.638 1.05Zm15.3-3.71c-1.073 0-2.011-.121-2.814-.364-.793-.252-1.409-.616-1.848-1.092a2.42 2.42 0 0 1-.658-1.694c0-.653.22-1.218.658-1.694.439-.476 1.055-.835 1.848-1.078.803-.252 1.741-.378 2.814-.378 1.074 0 2.007.126 2.8.378.803.243 1.424.602 1.862 1.078.439.476.658 1.041.658 1.694s-.219 1.218-.658 1.694c-.438.476-1.059.84-1.862 1.092-.793.243-1.726.364-2.8.364Zm0-5.068c-1.166 0-2.104.168-2.814.504-.709.336-1.064.807-1.064 1.414 0 .607.355 1.078 1.064 1.414.71.327 1.648.49 2.814.49 1.167 0 2.105-.163 2.814-.49.71-.336 1.064-.807 1.064-1.414 0-.607-.354-1.078-1.064-1.414-.709-.336-1.647-.504-2.814-.504Zm5.978 7.504h-2.954v3.388h-1.372v-3.388h-3.304v3.388h-1.372v-3.388h-2.94v-1.302h11.942v1.302Zm17.478-2.702h-10.276v-5.796h10.276v5.796Zm-1.386-4.508h-7.504v3.234h7.504v-3.234Zm2.226 7.266h-5.264v3.332h-1.428v-3.332h-5.25v-1.316h11.942v1.316Zm8.987-4.942a3.167 3.167 0 0 1-.602 1.456c-.318.42-.738.751-1.26.994-.523.233-1.12.35-1.792.35-.738 0-1.391-.14-1.96-.42a3.216 3.216 0 0 1-1.302-1.19 3.282 3.282 0 0 1-.448-1.708c0-.635.149-1.204.448-1.708a3.124 3.124 0 0 1 1.302-1.176c.569-.289 1.222-.434 1.96-.434.952 0 1.745.233 2.38.7a3.018 3.018 0 0 1 1.232 1.834h2.45v-2.66h1.386v8.19h-1.386v-4.228h-2.408Zm-5.978-.518c0 .663.214 1.19.644 1.582.429.383.989.574 1.68.574.69 0 1.246-.196 1.666-.588.429-.392.644-.915.644-1.568s-.215-1.176-.644-1.568c-.42-.392-.976-.588-1.666-.588-.691 0-1.251.196-1.68.588-.43.383-.644.905-.644 1.568Zm9.73 8.498-5.082-2.268c-.607.672-1.363 1.19-2.268 1.554a7.4 7.4 0 0 1-2.8.574V113a5.945 5.945 0 0 0 2.142-.42 5.057 5.057 0 0 0 1.764-1.176 3.698 3.698 0 0 0 .98-1.778l1.4.252a5.39 5.39 0 0 1-.504 1.302l4.9 2.058-.532 1.204Zm12.024-11.942h1.386v5.852h-1.386V102.5Zm-5.838 5.698c-.728 0-1.372-.117-1.932-.35-.56-.243-.998-.574-1.316-.994a2.376 2.376 0 0 1-.462-1.442c0-.541.154-1.022.462-1.442.318-.42.756-.747 1.316-.98.56-.243 1.204-.364 1.932-.364s1.372.121 1.932.364c.56.233.994.56 1.302.98.308.42.462.901.462 1.442 0 .541-.154 1.022-.462 1.442-.308.42-.742.751-1.302.994-.56.233-1.204.35-1.932.35Zm0-1.12c.691 0 1.251-.149 1.68-.448.43-.308.644-.714.644-1.218s-.214-.905-.644-1.204c-.429-.308-.989-.462-1.68-.462-.69 0-1.255.154-1.694.462-.429.299-.644.7-.644 1.204s.215.91.644 1.218c.439.299 1.004.448 1.694.448Zm-2.758 4.06h8.61v-1.036h-8.638v-1.092h10.01v3.164h-8.61v1.036h8.904v1.092h-10.276v-3.164Zm24.793-2.464h-1.61v5.782h-1.344V102.5h1.344v4.844h1.61v1.33Zm-12.236-5.74h3.43v2.702c0 2.389-.271 4.251-.812 5.586-.532 1.325-1.405 2.016-2.618 2.072v-1.288c.756-.103 1.293-.686 1.61-1.75.317-1.064.476-2.562.476-4.494v-1.568h-2.086v-1.26Zm4.046 0h3.402v2.884c0 2.473-.313 4.391-.938 5.754-.616 1.363-1.563 2.077-2.842 2.142v-1.288c1.624-.187 2.436-2.347 2.436-6.482v-1.75h-2.058v-1.26Zm10.191 11.41a.972.972 0 0 1-.714-.294.949.949 0 0 1-.28-.7c0-.28.093-.513.28-.7a.972.972 0 0 1 .714-.294c.28 0 .513.098.7.294.187.187.28.42.28.7 0 .28-.093.513-.28.7a.927.927 0 0 1-.7.294Zm17.112-10.122h-8.974v-1.302h10.416v7.896h-1.442v-6.594Zm2.24 8.358v1.302h-11.942v-1.302h4.452v-5.334h1.428v5.334h6.062ZM72.278 124.286H61.19v-1.246h4.816v-1.694h1.428v1.694h4.844v1.246Zm-10.542 3.234c0-.812.457-1.414 1.372-1.806.915-.401 2.123-.602 3.626-.602 1.503 0 2.711.201 3.626.602.915.392 1.372.994 1.372 1.806s-.457 1.414-1.372 1.806c-.915.392-2.123.588-3.626.588-1.503 0-2.711-.196-3.626-.588-.915-.392-1.372-.994-1.372-1.806Zm8.582 0c0-.42-.327-.728-.98-.924-.644-.196-1.512-.294-2.604-.294s-1.965.098-2.618.294c-.644.196-.966.504-.966.924 0 .42.322.728.966.924.653.187 1.526.28 2.618.28 1.092 0 1.96-.093 2.604-.28.653-.196.98-.504.98-.924Zm2.394 4.102v1.26H60.77v-1.26h11.942ZM84.051 121.5h1.386v11.956H84.05V121.5Zm-5.712 7.784c-.71 0-1.344-.159-1.904-.476a3.402 3.402 0 0 1-1.316-1.33c-.317-.579-.476-1.232-.476-1.96s.159-1.377.476-1.946a3.373 3.373 0 0 1 1.316-1.344c.56-.317 1.194-.476 1.904-.476s1.344.159 1.904.476c.56.317.999.765 1.316 1.344.317.569.476 1.218.476 1.946s-.159 1.381-.476 1.96a3.402 3.402 0 0 1-1.316 1.33c-.56.317-1.195.476-1.904.476Zm0-1.26c.466 0 .873-.107 1.218-.322.355-.224.63-.523.826-.896.196-.383.294-.812.294-1.288s-.098-.905-.294-1.288a2.19 2.19 0 0 0-.826-.896 2.232 2.232 0 0 0-1.218-.336c-.467 0-.877.112-1.232.336a2.19 2.19 0 0 0-.826.896 2.9 2.9 0 0 0-.28 1.288c0 .728.215 1.33.644 1.806.43.467.994.7 1.694.7Zm-4.102 3.416h4.886c.84 0 1.605-.047 2.296-.14.69-.093 1.232-.233 1.624-.42v1.288c-.402.177-.952.317-1.652.42-.7.103-1.484.154-2.352.154h-4.802v-1.302Zm31.158-4.032v1.148H93.453v-1.148h5.278v-1.288h-4.424v-4.48h10.234v1.134h-8.848v2.212h8.988v1.134h-4.578v1.288h5.292Zm-11.214 2.338h10.374v3.724h-1.4v-2.576h-8.974v-1.148Zm23.995-2.814h-10.388v-5.292h10.276v1.064h-8.89v1.064h8.694v1.022h-8.694v1.078h9.002v1.064Zm.686 1.106v1.106H106.92v-1.106h11.942Zm-11.214 2.184h10.374v3.248h-1.4v-2.128h-8.974v-1.12Zm20.817-6.454h-8.12v-1.134h3.36v-1.344h1.4v1.344h3.36v1.134Zm4.424 1.008v1.33h-1.68v4.354h-1.386v-8.96h1.386v3.276h1.68Zm-8.484 4.564c-.672 0-1.279-.093-1.82-.28-.532-.196-.952-.481-1.26-.854a2.004 2.004 0 0 1-.462-1.316c0-.504.154-.943.462-1.316.308-.373.728-.653 1.26-.84.541-.196 1.148-.294 1.82-.294.672 0 1.274.098 1.806.294.532.187.952.467 1.26.84.308.364.462.803.462 1.316s-.154.957-.462 1.33c-.308.364-.728.644-1.26.84-.532.187-1.134.28-1.806.28Zm0-3.836c-.663 0-1.195.131-1.596.392-.402.261-.602.593-.602.994 0 .411.2.747.602 1.008.401.252.933.378 1.596.378.662 0 1.194-.126 1.596-.378.401-.261.602-.597.602-1.008 0-.401-.201-.733-.602-.994-.402-.261-.934-.392-1.596-.392Zm-1.792 6.566h8.918v1.232h-10.318v-3.276h1.4v2.044Zm28.064-5.754h-10.22v-4.746h1.372v1.288h7.49v-1.288h1.358v4.746Zm-1.358-1.078v-1.33h-7.49v1.33h7.49Zm2.226 2.072v1.148h-5.292v.994h-1.372v-.994h-5.278v-1.148h11.942Zm-4.984 2.632a3.479 3.479 0 0 1-.406.966l4.928 1.372-.378 1.162-5.334-1.652c-.607.504-1.367.882-2.282 1.134-.915.252-1.881.378-2.898.378v-1.19a9.22 9.22 0 0 0 2.24-.266c.709-.187 1.311-.462 1.806-.826.495-.364.807-.798.938-1.302l1.386.224Zm17.667-2.59h-1.386V121.5h1.386v5.852Zm-6.944-2.184c-.43.56-.98 1.022-1.652 1.386a6.29 6.29 0 0 1-2.268.672v-1.148c.97-.121 1.754-.462 2.352-1.022a3.32 3.32 0 0 0 1.064-2.1h-3.262v-1.148h7.742v1.148h-3.108a4.29 4.29 0 0 1-.294 1.232l3.794 1.89-.616 1.008-3.752-1.918Zm7.238 7.042v1.092h-10.416v-3.164h8.75v-1.036h-8.778v-1.092h10.15v3.164h-8.75v1.036h9.044Zm11.787-10.71h1.4v11.956h-1.4V121.5Zm-5.642 11.396c-.728 0-1.363-.205-1.904-.616-.542-.401-.966-1.017-1.274-1.848-.299-.831-.448-1.862-.448-3.094 0-1.232.149-2.263.448-3.094.308-.831.732-1.447 1.274-1.848.541-.411 1.176-.616 1.904-.616.718 0 1.348.205 1.89.616.541.401.961 1.017 1.26 1.848.308.831.462 1.862.462 3.094 0 1.232-.154 2.263-.462 3.094-.299.831-.719 1.447-1.26 1.848-.542.411-1.172.616-1.89.616Zm0-1.274c.662 0 1.199-.35 1.61-1.05.41-.709.616-1.787.616-3.234 0-1.437-.206-2.511-.616-3.22-.411-.709-.948-1.064-1.61-1.064-.672 0-1.214.355-1.624 1.064-.411.7-.616 1.773-.616 3.22 0 1.447.2 2.525.602 3.234.41.7.956 1.05 1.638 1.05Zm26.244-10.122v11.956h-1.386V121.5h1.386Zm-5.81.35c-.019 1.867-.177 3.505-.476 4.914l3.864 5.152-1.12.798-3.178-4.34c-.448 1.335-1.031 2.38-1.75 3.136-.719.756-1.545 1.167-2.478 1.232v-1.4c.775-.121 1.442-.616 2.002-1.484.56-.877.985-2.016 1.274-3.416.289-1.4.439-2.949.448-4.648l1.414.056Zm20.621 3.626h-1.68v3.164h-1.386v-7.14h1.386v2.646h1.68v1.33Zm-5.306-2.268c0 1.68-.612 2.935-1.834 3.766-1.214.831-2.898 1.246-5.054 1.246v-1.232c1.736-.009 3.084-.308 4.046-.896.961-.597 1.442-1.484 1.442-2.66v-.434h-5.488v-1.204h6.888v1.414Zm-6.482 6.09h10.108v4.158h-1.4v-2.954h-8.708v-1.204Zm23.995-7.798v7.28h-1.386v-3.318h-2.31v-1.204h2.31V121.5h1.386Zm-7.042 4.424a5.128 5.128 0 0 1-1.652 1.722c-.672.429-1.442.691-2.31.784v-1.26c.989-.149 1.778-.593 2.366-1.33.597-.747.933-1.694 1.008-2.842h-3.22v-1.19h7.63v1.19h-3.01a7.188 7.188 0 0 1-.308 1.778l3.668 2.534-.742 1.022-3.43-2.408Zm-3.234 3.514h10.276v4.018h-1.414v-2.814h-8.862v-1.204Zm18.464-.098c-1.073 0-2.016-.154-2.828-.462-.812-.317-1.442-.761-1.89-1.33a3.228 3.228 0 0 1-.658-2.002c0-.756.22-1.419.658-1.988.448-.579 1.078-1.022 1.89-1.33.812-.317 1.755-.476 2.828-.476 1.074 0 2.016.159 2.828.476.812.308 1.438.751 1.876 1.33.448.569.672 1.232.672 1.988a3.18 3.18 0 0 1-.672 2.002c-.438.569-1.064 1.013-1.876 1.33-.812.308-1.754.462-2.828.462Zm0-1.26c.775 0 1.456-.103 2.044-.308.598-.215 1.06-.513 1.386-.896a2.02 2.02 0 0 0 .49-1.33c0-.495-.163-.933-.49-1.316-.326-.392-.788-.691-1.386-.896-.588-.215-1.269-.322-2.044-.322-.774 0-1.46.107-2.058.322-.588.205-1.045.504-1.372.896-.326.383-.49.821-.49 1.316 0 .495.164.938.49 1.33.327.383.784.681 1.372.896.598.205 1.284.308 2.058.308Zm-5.964 3.5h11.942v1.302h-11.942v-1.302Zm25.409.028v1.274H239.62v-1.274h5.236v-2.254h-4.438v-4.312h8.988v-1.876h-8.988v-1.232h10.36v4.298h-8.974v1.89h9.156v1.232h-4.69v2.254h5.292Zm18.726-8.484h-10.976v-1.008h4.774v-1.092h1.4v1.092h4.802v1.008Zm-10.5 2.254c0-.569.448-.989 1.344-1.26.896-.28 2.119-.42 3.668-.42 1.55 0 2.772.14 3.668.42.896.271 1.344.691 1.344 1.26 0 .569-.448.994-1.344 1.274-.896.271-2.118.406-3.668.406-1.549 0-2.772-.135-3.668-.406-.896-.28-1.344-.705-1.344-1.274Zm8.638 0c0-.224-.336-.397-1.008-.518-.672-.121-1.544-.182-2.618-.182-1.073 0-1.946.061-2.618.182-.672.121-1.008.294-1.008.518 0 .224.336.397 1.008.518.672.121 1.545.182 2.618.182 1.074 0 1.946-.061 2.618-.182.672-.121 1.008-.294 1.008-.518Zm2.352 2.436v1.036h-11.942v-1.036h11.942Zm-5.978 1.89c1.568 0 2.833.154 3.794.462.962.299 1.442.775 1.442 1.428 0 .663-.485 1.143-1.456 1.442-.961.308-2.221.462-3.78.462-1.558 0-2.823-.154-3.794-.462-.961-.299-1.442-.779-1.442-1.442 0-.653.481-1.129 1.442-1.428.971-.308 2.236-.462 3.794-.462Zm0 2.786c1.083 0 1.984-.075 2.702-.224.728-.14 1.092-.364 1.092-.672 0-.299-.364-.523-1.092-.672-.728-.149-1.628-.224-2.702-.224-1.073 0-1.974.075-2.702.224-.728.149-1.092.373-1.092.672 0 .308.36.532 1.078.672.728.149 1.634.224 2.716.224Zm17.275-10.99h1.386v11.956h-1.386V121.5Zm-9.086.434h6.776v10.808h-6.776v-10.808Zm5.39 9.506v-8.204h-4.004v8.204h4.004ZM72.712 151.608v1.274H60.77v-1.274h5.236v-2.254h-4.438v-4.312h8.988v-1.876h-8.988v-1.232h10.36v4.298h-8.974v1.89h9.156v1.232h-4.69v2.254h5.292Zm12.78-10.108v11.956h-1.385V152H80.48v-1.176h3.626V141.5h1.386Zm-7.07 5.95c-.69 0-1.306-.117-1.847-.35-.532-.243-.952-.579-1.26-1.008-.299-.429-.448-.929-.448-1.498s.15-1.069.448-1.498a2.987 2.987 0 0 1 1.26-.994c.541-.243 1.157-.364 1.848-.364.69 0 1.302.121 1.834.364.541.233.961.565 1.26.994.308.429.462.929.462 1.498s-.154 1.069-.462 1.498c-.299.429-.719.765-1.26 1.008-.532.233-1.144.35-1.834.35Zm0-4.578c-.671 0-1.212.159-1.623.476a1.513 1.513 0 0 0-.602 1.246c0 .513.2.929.602 1.246.41.317.952.476 1.624.476.662 0 1.195-.159 1.596-.476a1.5 1.5 0 0 0 .616-1.246 1.5 1.5 0 0 0-.616-1.246c-.401-.317-.934-.476-1.596-.476Zm4.677 6.314c-.822.308-2.124.462-3.906.462h-.238v3.808h-1.386v-3.808h-3.332v-1.218h4.942c1.838 0 3.145-.159 3.92-.476v1.232Zm15.86-7.686v11.956h-1.385v-6.328h-3.08v-1.302h3.08V141.5h1.386Zm-6.257.35c0 1.587-.117 3.071-.35 4.452l3.738 5.712-1.162.756-2.982-4.704c-.411 1.428-.971 2.548-1.68 3.36-.71.803-1.531 1.241-2.464 1.316v-1.414c.746-.121 1.376-.616 1.89-1.484.522-.868.914-1.997 1.176-3.388.27-1.4.41-2.954.42-4.662l1.414.056Zm22.84-.35h1.386v5.852h-1.386V141.5Zm-5.838 5.698c-.728 0-1.372-.117-1.932-.35-.56-.243-.999-.574-1.316-.994a2.376 2.376 0 0 1-.462-1.442c0-.541.154-1.022.462-1.442.317-.42.756-.747 1.316-.98.56-.243 1.204-.364 1.932-.364s1.372.121 1.932.364c.56.233.994.56 1.302.98.308.42.462.901.462 1.442 0 .541-.154 1.022-.462 1.442-.308.42-.742.751-1.302.994-.56.233-1.204.35-1.932.35Zm0-1.12c.691 0 1.251-.149 1.68-.448.429-.308.644-.714.644-1.218s-.215-.905-.644-1.204c-.429-.308-.989-.462-1.68-.462s-1.255.154-1.694.462c-.429.299-.644.7-.644 1.204s.215.91.644 1.218c.439.299 1.003.448 1.694.448Zm-2.758 4.06h8.61v-1.036h-8.638v-1.092h10.01v3.164h-8.61v1.036h8.904v1.092h-10.276v-3.164Zm24.793-2.464h-1.61v5.782h-1.344V141.5h1.344v4.844h1.61v1.33Zm-12.236-5.74h3.43v2.702c0 2.389-.271 4.251-.812 5.586-.532 1.325-1.405 2.016-2.618 2.072v-1.288c.756-.103 1.292-.686 1.61-1.75.317-1.064.476-2.562.476-4.494v-1.568h-2.086v-1.26Zm4.046 0h3.402v2.884c0 2.473-.313 4.391-.938 5.754-.616 1.363-1.564 2.077-2.842 2.142v-1.288c1.624-.187 2.436-2.347 2.436-6.482v-1.75h-2.058v-1.26Zm26.256 5.74h-1.68v5.782h-1.386V141.5h1.386v4.844h1.68v1.33Zm-8.554-5.894c.71 0 1.33.205 1.862.616.532.401.948 1.017 1.246 1.848.299.831.448 1.862.448 3.094 0 1.232-.149 2.263-.448 3.094-.298.831-.714 1.447-1.246 1.848-.532.411-1.152.616-1.862.616-1.092 0-1.96-.467-2.604-1.4-.644-.933-.966-2.319-.966-4.158 0-1.839.322-3.225.966-4.158.644-.933 1.512-1.4 2.604-1.4Zm0 9.842c.654 0 1.176-.35 1.568-1.05.402-.709.602-1.787.602-3.234s-.2-2.52-.602-3.22c-.392-.709-.914-1.064-1.568-1.064-.662 0-1.194.355-1.596 1.064-.392.7-.588 1.773-.588 3.22 0 1.447.196 2.525.588 3.234.402.7.934 1.05 1.596 1.05Zm19.291-10.122h1.386v11.956l-1.386.014V141.5Zm-9.086.364h1.414v9.604h3.472c.56 0 1.125-.051 1.694-.154.569-.112 1.036-.257 1.4-.434v1.274c-.364.177-.826.317-1.386.42a8.685 8.685 0 0 1-1.708.168h-4.886v-10.878Zm22.665 5.11h-1.96v-1.232h1.96v-1.68h-1.96v-1.232h1.96v-1.33h1.372v8.89h-1.372v-3.416Zm-2.66 1.288h-6.72v-6.468h6.72v6.468Zm-1.372-5.264h-3.99v4.06h3.99v-4.06Zm5.656 9.058v1.246h-10.43v-3.878h1.414v2.632h9.016Zm16.246-8.834h-8.96v-1.302h10.416v8.288h-1.456v-6.986Zm-9.688 8.358h11.942v1.302h-11.942v-1.302Zm23.239-10.08h1.386v7h-1.386v-7Zm-9.226 2.87h5.698v-1.442h-5.726v-1.134h7.098v3.682h-5.698v1.47h3.15c.812 0 1.545-.047 2.198-.14.663-.093 1.185-.229 1.568-.406v1.148c-.373.168-.896.299-1.568.392-.672.093-1.423.14-2.254.14h-4.466v-3.71Zm.476 4.788h10.136v4.144h-10.136v-4.144Zm8.764 3.01v-1.876h-7.392v1.876h7.392Zm15.175-10.668v11.956h-1.316V141.5h1.316Zm-4.2.07h1.302v11.676h-1.302V147.8h-1.582c-.038 1.745-.29 3.033-.756 3.864-.467.821-1.139 1.232-2.016 1.232-.924 0-1.62-.448-2.086-1.344-.467-.905-.7-2.31-.7-4.214 0-1.904.233-3.304.7-4.2.466-.905 1.162-1.358 2.086-1.358.849 0 1.502.383 1.96 1.148.466.765.732 1.951.798 3.556h1.596v-4.914Zm-4.354 10.066c.494 0 .858-.35 1.092-1.05.242-.7.364-1.783.364-3.248 0-1.465-.122-2.548-.364-3.248-.234-.7-.598-1.05-1.092-1.05-.495 0-.864.35-1.106 1.05-.243.7-.364 1.783-.364 3.248 0 1.465.121 2.548.364 3.248.242.7.611 1.05 1.106 1.05Zm24.828-8.414h-8.974v-1.302h10.416v7.896h-1.442v-6.594Zm2.24 8.358v1.302h-11.942v-1.302h4.452v-5.334h1.428v5.334h6.062Zm13.033-7.294H241.19v-1.246h4.816v-1.694h1.428v1.694h4.844v1.246Zm-10.542 3.234c0-.812.457-1.414 1.372-1.806.915-.401 2.123-.602 3.626-.602 1.503 0 2.711.201 3.626.602.915.392 1.372.994 1.372 1.806s-.457 1.414-1.372 1.806c-.915.392-2.123.588-3.626.588-1.503 0-2.711-.196-3.626-.588-.915-.392-1.372-.994-1.372-1.806Zm8.582 0c0-.42-.327-.728-.98-.924-.644-.196-1.512-.294-2.604-.294s-1.965.098-2.618.294c-.644.196-.966.504-.966.924 0 .42.322.728.966.924.653.187 1.526.28 2.618.28 1.092 0 1.96-.093 2.604-.28.653-.196.98-.504.98-.924Zm2.394 4.102v1.26H240.77v-1.26h11.942Zm11.339-10.122h1.386v11.956h-1.386V141.5Zm-5.712 7.784c-.71 0-1.344-.159-1.904-.476a3.4 3.4 0 0 1-1.316-1.33c-.318-.579-.476-1.232-.476-1.96s.158-1.377.476-1.946a3.371 3.371 0 0 1 1.316-1.344c.56-.317 1.194-.476 1.904-.476.709 0 1.344.159 1.904.476.56.317.998.765 1.316 1.344.317.569.476 1.218.476 1.946s-.159 1.381-.476 1.96a3.406 3.406 0 0 1-1.316 1.33c-.56.317-1.195.476-1.904.476Zm0-1.26c.466 0 .872-.107 1.218-.322a2.32 2.32 0 0 0 .826-.896c.196-.383.294-.812.294-1.288s-.098-.905-.294-1.288a2.195 2.195 0 0 0-.826-.896 2.234 2.234 0 0 0-1.218-.336c-.467 0-.878.112-1.232.336-.355.215-.63.513-.826.896-.187.383-.28.812-.28 1.288 0 .728.214 1.33.644 1.806.429.467.994.7 1.694.7Zm-4.102 3.416h4.886c.84 0 1.605-.047 2.296-.14.69-.093 1.232-.233 1.624-.42v1.288c-.402.177-.952.317-1.652.42-.7.103-1.484.154-2.352.154h-4.802v-1.302Zm30.568-6.16h-1.68v2.716h-1.386V141.5h1.386v2.45h1.68v1.33Zm-5.306-2.184c0 1.568-.606 2.721-1.82 3.458-1.204.737-2.893 1.106-5.068 1.106v-1.204c1.736-.009 3.085-.271 4.046-.784.962-.513 1.442-1.293 1.442-2.338v-.364h-5.488v-1.176h6.888v1.302Zm-6.37 5.558h9.996v4.648h-9.996v-4.648Zm1.386 3.472h7.224v-2.296h-7.224v2.296ZM70.64 162.754V160.5h1.386v6.72H70.64v-3.262h-2.324v-1.204h2.324Zm-5.656 1.75a5.085 5.085 0 0 1-1.652 1.624c-.681.411-1.456.658-2.324.742v-1.246c.98-.131 1.764-.518 2.352-1.162.597-.653.938-1.475 1.022-2.464h-3.22v-1.19h7.63v1.19h-3.024a6.045 6.045 0 0 1-.266 1.4l3.682 2.324-.686 1.036-3.514-2.254Zm1.974 3.108c1.559 0 2.81.196 3.752.588.943.392 1.414 1.003 1.414 1.834 0 .831-.471 1.442-1.414 1.834-.943.392-2.193.588-3.752.588-1.559 0-2.81-.196-3.752-.588-.943-.392-1.414-1.003-1.414-1.834 0-.831.471-1.442 1.414-1.834.943-.392 2.193-.588 3.752-.588Zm0 3.71c1.092 0 1.979-.107 2.66-.322.69-.224 1.036-.546 1.036-.966 0-.42-.345-.737-1.036-.952-.681-.224-1.568-.336-2.66-.336s-1.983.112-2.674.336c-.681.215-1.022.532-1.022.952 0 .42.34.742 1.022.966.69.215 1.582.322 2.674.322Zm17.05-10.822h1.4v11.956h-1.4V160.5Zm-5.641 11.396c-.728 0-1.363-.205-1.904-.616-.541-.401-.966-1.017-1.274-1.848-.299-.831-.448-1.862-.448-3.094 0-1.232.15-2.263.448-3.094.308-.831.733-1.447 1.274-1.848.541-.411 1.176-.616 1.904-.616.718 0 1.349.205 1.89.616.541.401.961 1.017 1.26 1.848.308.831.462 1.862.462 3.094 0 1.232-.154 2.263-.462 3.094-.299.831-.719 1.447-1.26 1.848-.541.411-1.172.616-1.89.616Zm0-1.274c.662 0 1.2-.35 1.61-1.05.41-.709.616-1.787.616-3.234 0-1.437-.206-2.511-.616-3.22-.41-.709-.948-1.064-1.61-1.064-.672 0-1.214.355-1.624 1.064-.41.7-.616 1.773-.616 3.22 0 1.447.2 2.525.602 3.234.41.7.957 1.05 1.638 1.05Zm27.588-7.238v1.33h-1.68v4.662h-1.386V160.5h1.386v2.884h1.68Zm-5.096 4.06h-6.986v-6.734h1.358v2.086h4.27v-2.086h1.358v6.734Zm-1.358-1.19v-2.282h-4.27v2.282h4.27Zm-3.822 4.788h8.918v1.26H94.279v-3.822h1.4v2.562Zm21.125-6.51v-1.778h-2.002l-.084-1.19h2.086V160.5h1.372v6.608h-1.372v-1.386h-2.086l.084-1.19h2.002Zm-2.408-.868c0 .597-.149 1.129-.448 1.596-.299.457-.728.812-1.288 1.064-.551.252-1.199.378-1.946.378-.737 0-1.386-.126-1.946-.378-.551-.252-.975-.607-1.274-1.064a2.895 2.895 0 0 1-.448-1.596c0-.597.149-1.125.448-1.582.299-.457.723-.812 1.274-1.064.56-.261 1.209-.392 1.946-.392.747 0 1.395.131 1.946.392.56.252.989.607 1.288 1.064.299.457.448.985.448 1.582Zm-5.978 0c0 .588.205 1.05.616 1.386.42.327.98.49 1.68.49s1.255-.163 1.666-.49c.42-.336.63-.798.63-1.386 0-.588-.21-1.045-.63-1.372-.411-.336-.966-.504-1.666-.504s-1.26.168-1.68.504c-.411.327-.616.784-.616 1.372Zm4.76 3.836c1.54 0 2.777.201 3.71.602.933.401 1.4 1.027 1.4 1.876s-.467 1.475-1.4 1.876c-.933.401-2.17.602-3.71.602s-2.777-.201-3.71-.602c-.924-.401-1.386-1.027-1.386-1.876s.462-1.475 1.386-1.876c.933-.401 2.17-.602 3.71-.602Zm0 3.808c1.073 0 1.946-.112 2.618-.336.672-.224 1.008-.555 1.008-.994 0-.439-.341-.77-1.022-.994-.672-.224-1.54-.336-2.604-.336s-1.937.112-2.618.336c-.672.224-1.008.555-1.008.994 0 .439.336.77 1.008.994.672.224 1.545.336 2.618.336Zm18.395-1.708h-1.386v-9.1h1.386v9.1Zm-2.38-1.932c-.71.317-2.03.476-3.962.476h-4.844v-1.162h3.458v-1.596h-2.758v-4.648h6.944v1.12h-5.572v2.408h5.712v1.12h-2.94v1.596h.042c1.885 0 3.192-.154 3.92-.462v1.148Zm2.702 3.43v1.204h-10.458v-3.234h1.4v2.03h9.058Zm17.48-10.598h1.4v11.956h-1.4V160.5Zm-5.642 11.396c-.728 0-1.363-.205-1.904-.616-.541-.401-.966-1.017-1.274-1.848-.299-.831-.448-1.862-.448-3.094 0-1.232.149-2.263.448-3.094.308-.831.733-1.447 1.274-1.848.541-.411 1.176-.616 1.904-.616.719 0 1.349.205 1.89.616.541.401.961 1.017 1.26 1.848.308.831.462 1.862.462 3.094 0 1.232-.154 2.263-.462 3.094-.299.831-.719 1.447-1.26 1.848-.541.411-1.171.616-1.89.616Zm0-1.274c.663 0 1.199-.35 1.61-1.05.411-.709.616-1.787.616-3.234 0-1.437-.205-2.511-.616-3.22-.411-.709-.947-1.064-1.61-1.064-.672 0-1.213.355-1.624 1.064-.411.7-.616 1.773-.616 3.22 0 1.447.201 2.525.602 3.234.411.7.957 1.05 1.638 1.05Zm19.109-10.122h1.386v11.956h-1.386V160.5Zm-9.086.434h6.776v10.808h-6.776v-10.808Zm5.39 9.506v-8.204h-4.004v8.204h4.004Zm18.549-9.94v11.956h-1.386V160.5h1.386Zm-6.048 1.708a19.77 19.77 0 0 1-.378 3.78l3.906 4.83-1.092.826-3.22-4.102c-.411 1.251-.966 2.24-1.666 2.968-.691.719-1.489 1.129-2.394 1.232v-1.372c.7-.131 1.302-.56 1.806-1.288.513-.728.91-1.685 1.19-2.87.28-1.185.429-2.52.448-4.004h-3.164v-1.274h7.63v1.274h-3.066Zm19.85-1.708v11.956h-1.316V160.5h1.316Zm-4.2.07h1.302v11.676h-1.302V166.8h-1.582c-.037 1.745-.289 3.033-.756 3.864-.466.821-1.138 1.232-2.016 1.232-.924 0-1.619-.448-2.086-1.344-.466-.905-.7-2.31-.7-4.214 0-1.904.234-3.304.7-4.2.467-.905 1.162-1.358 2.086-1.358.85 0 1.503.383 1.96 1.148.467.765.733 1.951.798 3.556h1.596v-4.914Zm-4.354 10.066c.495 0 .859-.35 1.092-1.05.243-.7.364-1.783.364-3.248 0-1.465-.121-2.548-.364-3.248-.233-.7-.597-1.05-1.092-1.05-.494 0-.863.35-1.106 1.05-.242.7-.364 1.783-.364 3.248 0 1.465.122 2.548.364 3.248.243.7.612 1.05 1.106 1.05Zm28.219-4.634v1.12H199.22v-1.12h5.278v-1.232h-4.424v-4.13h10.234v1.12h-8.848v1.89h8.988v1.12h-4.578v1.232h5.292Zm-5.978 2.114c1.577 0 2.846.173 3.808.518.97.345 1.456.901 1.456 1.666 0 .765-.486 1.321-1.456 1.666-.971.355-2.24.532-3.808.532-1.568 0-2.838-.177-3.808-.532-.971-.345-1.456-.901-1.456-1.666 0-.765.48-1.321 1.442-1.666.97-.345 2.244-.518 3.822-.518Zm0 3.29c1.092 0 1.997-.089 2.716-.266.728-.177 1.092-.457 1.092-.84 0-.373-.364-.649-1.092-.826-.719-.177-1.624-.266-2.716-.266s-2.002.089-2.73.266c-.719.177-1.078.453-1.078.826 0 .383.359.663 1.078.84.728.177 1.638.266 2.73.266Zm15.553-8.302h-8.106v-1.218h3.346v-1.512h1.414v1.512h3.346v1.218Zm4.452 3.458h-1.652v5.894h-1.386V160.5h1.386v4.732h1.652v1.33Zm-7.812 3.948c1.782-.019 3.042-.196 3.78-.532v1.26c-.374.168-.906.294-1.596.378-.682.084-1.452.126-2.31.126h-4.564v-1.232h3.304v-1.778c-.85-.093-1.522-.35-2.016-.77-.486-.429-.728-.98-.728-1.652 0-.765.312-1.367.938-1.806.625-.448 1.465-.672 2.52-.672 1.054 0 1.894.224 2.52.672.625.439.938 1.041.938 1.806 0 .672-.248 1.223-.742 1.652-.495.429-1.176.691-2.044.784v1.764Zm-2.814-4.2c0 .392.186.714.56.966.373.243.9.364 1.582.364.681 0 1.208-.121 1.582-.364.373-.252.56-.574.56-.966s-.187-.714-.56-.966c-.374-.252-.901-.378-1.582-.378-.682 0-1.209.126-1.582.378-.374.252-.56.574-.56.966Zm22.776-5.81v11.956h-1.386V160.5h1.386Zm-6.3 9.94c1.83 0 3.136-.168 3.92-.504v1.302c-.821.336-2.123.504-3.906.504h-4.9v-1.302h3.416v-3.052h-2.716v-6.426h6.944v1.274h-5.572v3.878h5.712v1.274h-2.982v3.052h.084Zm18.353-9.94h1.386v11.956h-1.386V160.5Zm-9.212 9.898c1.073 0 2.002-.266 2.786-.798.793-.541 1.395-1.302 1.806-2.282.42-.989.63-2.147.63-3.472v-1.638h-5.222v-1.274h6.636v2.884c0 1.587-.271 2.977-.812 4.172-.532 1.185-1.302 2.105-2.31 2.758-.999.644-2.17.966-3.514.966v-1.316Zm30.22-9.898v11.956h-1.26v-5.894h-1.582v5.684h-1.26V160.57h1.26v4.746h1.582V160.5h1.26Zm-9.912 10.066c.644 0 1.148-.07 1.512-.21v1.148c-.438.159-1.064.238-1.876.238h-1.022v-10.808h2.842v1.176h-1.582v8.456h.126Zm3.43 0c.822 0 1.424-.098 1.806-.294v1.162c-.457.205-1.143.308-2.058.308h-1.204v-10.808h3.01v1.176h-1.75v8.456h.196Zm19.459-5.138h-10.22v-4.788h10.22v4.788Zm-1.386-3.64h-7.448v2.492h7.448v-2.492Zm2.254 4.844v1.176h-5.278v2.058h-1.4v-2.058h-5.264v-1.176h11.942Zm-9.702 4.494h9.1v1.19h-10.5v-3.486h1.4v2.296ZM70.542 179.5h1.386v5.852h-1.386V179.5Zm-5.838 5.698c-.728 0-1.372-.117-1.932-.35-.56-.243-.999-.574-1.316-.994a2.376 2.376 0 0 1-.462-1.442c0-.541.154-1.022.462-1.442.317-.42.756-.747 1.316-.98.56-.243 1.204-.364 1.932-.364s1.372.121 1.932.364c.56.233.994.56 1.302.98.308.42.462.901.462 1.442 0 .541-.154 1.022-.462 1.442-.308.42-.742.751-1.302.994-.56.233-1.204.35-1.932.35Zm0-1.12c.69 0 1.25-.149 1.68-.448.43-.308.644-.714.644-1.218s-.215-.905-.644-1.204c-.43-.308-.99-.462-1.68-.462s-1.255.154-1.694.462c-.43.299-.644.7-.644 1.204s.215.91.644 1.218c.439.299 1.003.448 1.694.448Zm-2.758 4.06h8.61v-1.036h-8.638v-1.092h10.01v3.164h-8.61v1.036h8.904v1.092H61.946v-3.164Zm24.793-2.464h-1.61v5.782h-1.344V179.5h1.344v4.844h1.61v1.33Zm-12.236-5.74h3.43v2.702c0 2.389-.27 4.251-.812 5.586-.532 1.325-1.405 2.016-2.618 2.072v-1.288c.756-.103 1.293-.686 1.61-1.75.317-1.064.476-2.562.476-4.494v-1.568h-2.086v-1.26Zm4.046 0h3.402v2.884c0 2.473-.313 4.391-.938 5.754-.616 1.363-1.564 2.077-2.842 2.142v-1.288c1.624-.187 2.436-2.347 2.436-6.482v-1.75h-2.058v-1.26Zm10.19 11.41a.972.972 0 0 1-.713-.294.95.95 0 0 1-.28-.7.95.95 0 0 1 .28-.7.972.972 0 0 1 .714-.294c.28 0 .513.098.7.294a.95.95 0 0 1 .28.7.95.95 0 0 1-.28.7.927.927 0 0 1-.7.294Zm17.183-11.844h1.386v11.956h-1.386V179.5Zm-9.086.434h6.776v10.808h-6.776v-10.808Zm5.39 9.506v-8.204h-4.004v8.204h4.004Zm13.257-7.826c-.663.616-1.484 1.111-2.464 1.484a8.675 8.675 0 0 1-2.968.588v-1.148a7.648 7.648 0 0 0 2.324-.448c.765-.28 1.418-.663 1.96-1.148.55-.495.905-1.069 1.064-1.722l1.386.252a4.093 4.093 0 0 1-.546 1.26l4.942 1.946-.448 1.036-5.25-2.1Zm.784 3.892v1.078h4.466v2.856h-8.932v.84h9.142v1.036h-10.5v-2.856h8.932v-.84h-8.96v-1.036h4.48v-1.078h-5.278v-1.078h11.942v1.078h-5.292Zm16.63-6.006h1.386v11.956h-1.386V179.5Zm-5.712 7.784c-.709 0-1.344-.159-1.904-.476a3.406 3.406 0 0 1-1.316-1.33c-.317-.579-.476-1.232-.476-1.96s.159-1.377.476-1.946a3.378 3.378 0 0 1 1.316-1.344c.56-.317 1.195-.476 1.904-.476.71 0 1.344.159 1.904.476.56.317.999.765 1.316 1.344.318.569.476 1.218.476 1.946s-.158 1.381-.476 1.96a3.4 3.4 0 0 1-1.316 1.33c-.56.317-1.194.476-1.904.476Zm0-1.26c.467 0 .873-.107 1.218-.322.355-.224.63-.523.826-.896.196-.383.294-.812.294-1.288s-.098-.905-.294-1.288a2.188 2.188 0 0 0-.826-.896 2.229 2.229 0 0 0-1.218-.336 2.26 2.26 0 0 0-2.058 1.232 2.91 2.91 0 0 0-.28 1.288c0 .728.215 1.33.644 1.806.43.467.994.7 1.694.7Zm-4.102 3.416h4.886c.84 0 1.606-.047 2.296-.14.691-.093 1.232-.233 1.624-.42v1.288c-.401.177-.952.317-1.652.42-.7.103-1.484.154-2.352.154h-4.802v-1.302Zm30.82-6.16h-1.68v2.716h-1.386V179.5h1.386v2.45h1.68v1.33Zm-5.306-2.184c0 1.568-.607 2.721-1.82 3.458-1.204.737-2.893 1.106-5.068 1.106v-1.204c1.736-.009 3.085-.271 4.046-.784.961-.513 1.442-1.293 1.442-2.338v-.364h-5.488v-1.176h6.888v1.302Zm-6.37 5.558h9.996v4.648h-9.996v-4.648Zm1.386 3.472h7.224v-2.296h-7.224v2.296Zm23.757-8.344v1.316h-1.68v3.01h-1.386V179.5h1.386v2.282h1.68Zm-8.428 1.47a5.71 5.71 0 0 1-1.708 1.764 5.681 5.681 0 0 1-2.338.854v-1.26a3.933 3.933 0 0 0 1.918-.896c.55-.476.97-1.069 1.26-1.778a6.303 6.303 0 0 0 .448-2.324l1.386.084c0 .859-.145 1.68-.434 2.464l3.71 2.408-.714 1.022-3.528-2.338Zm1.806 3.248c1.54 0 2.776.201 3.71.602.942.401 1.414 1.027 1.414 1.876s-.472 1.475-1.414 1.876c-.934.401-2.17.602-3.71.602s-2.782-.201-3.724-.602c-.934-.401-1.4-1.027-1.4-1.876s.466-1.475 1.4-1.876c.942-.401 2.184-.602 3.724-.602Zm0 3.808c1.082 0 1.96-.112 2.632-.336.672-.224 1.008-.555 1.008-.994 0-.439-.336-.77-1.008-.994-.672-.224-1.55-.336-2.632-.336-1.074 0-1.951.112-2.632.336-.672.224-1.008.555-1.008.994 0 .439.336.77 1.008.994.672.224 1.549.336 2.632.336Zm13.55-5.656c-.998 0-1.899-.098-2.702-.294-.793-.196-1.428-.49-1.904-.882-.466-.392-.7-.873-.7-1.442s.234-1.05.7-1.442c.476-.392 1.116-.681 1.918-.868.803-.196 1.699-.294 2.688-.294.99 0 1.886.098 2.688.294.803.187 1.438.476 1.904.868.476.392.714.873.714 1.442s-.238 1.05-.714 1.442c-.466.392-1.101.686-1.904.882-.793.196-1.689.294-2.688.294Zm0-1.12c1.092 0 2.002-.131 2.73-.392.738-.271 1.106-.639 1.106-1.106 0-.467-.368-.831-1.106-1.092-.728-.261-1.638-.392-2.73-.392s-2.006.131-2.744.392c-.728.261-1.092.625-1.092 1.092 0 .467.364.835 1.092 1.106.738.261 1.652.392 2.744.392Zm-5.964 2.184h11.942v1.176h-11.942v-1.176Zm.826 2.198h1.414v2.212h9.086v1.19h-10.5v-3.402Zm28.986-8.414v11.956h-1.33v-5.838h-2.044v5.628h-1.33V179.57h1.33v4.746h2.044V179.5h1.33Zm-11.228.434h4.998v3.22c0 1.512-.215 2.837-.644 3.976-.42 1.139-1.008 2.021-1.764 2.646a4.049 4.049 0 0 1-2.59.938v-1.302a2.86 2.86 0 0 0 1.932-.798c.551-.523.975-1.246 1.274-2.17.299-.924.448-1.997.448-3.22v-2.03h-3.654v-1.26Zm22.973-.434h1.386v8.876h-1.386V179.5Zm-5.866 7.07c-.766 0-1.438-.149-2.016-.448a3.225 3.225 0 0 1-1.316-1.232 3.51 3.51 0 0 1-.462-1.792c0-.663.154-1.255.462-1.778a3.199 3.199 0 0 1 1.316-1.246c.578-.299 1.25-.448 2.016-.448.765 0 1.432.149 2.002.448a3.232 3.232 0 0 1 1.316 1.232c.308.523.462 1.12.462 1.792 0 .672-.154 1.269-.462 1.792a3.232 3.232 0 0 1-1.316 1.232c-.57.299-1.237.448-2.002.448Zm0-1.176c.718 0 1.297-.205 1.736-.616.438-.42.658-.98.658-1.68s-.224-1.26-.672-1.68c-.439-.42-1.013-.63-1.722-.63-.719 0-1.302.21-1.75.63-.439.42-.658.98-.658 1.68s.219 1.26.658 1.68c.448.411 1.031.616 1.75.616Zm-2.744 2.002h1.414v2.646h8.904v1.26h-10.318v-3.906Zm24.806-1.722h-1.68v5.782h-1.386V179.5h1.386v4.844h1.68v1.33Zm-11.942-5.74h6.65v10.808h-6.65v-10.808Zm1.386 9.52h3.878v-8.232h-3.878v8.232Zm24.023-3.78h-1.68v5.782h-1.386V179.5h1.386v4.844h1.68v1.33Zm-7.196 3.808a9.34 9.34 0 0 0 1.694-.154c.57-.103 1.036-.243 1.4-.42v1.26c-.354.177-.826.317-1.414.42a9.96 9.96 0 0 1-1.75.154h-4.676v-10.808h6.902v1.26h-5.488v8.288h3.332Zm25.514-3.808h-1.68v5.782h-1.386V179.5h1.386v4.844h1.68v1.33Zm-7.196 3.808c.569 0 1.134-.051 1.694-.154.569-.103 1.036-.243 1.4-.42v1.26c-.355.177-.826.317-1.414.42a9.97 9.97 0 0 1-1.75.154h-4.676v-10.808h6.902v1.26h-5.488v8.288h3.332Zm8.958-6.356h8.988v-1.946h-8.988v-1.246h10.36v4.41h-8.988v1.988h9.17v1.246h-10.542v-4.452Zm-.798 6.482h11.942v1.274h-11.942v-1.274Zm24.961-3.248h-1.33v-6.86h1.33v6.86Zm-6.342-3.066c-.317.905-.914 1.601-1.792 2.086-.868.485-1.899.733-3.094.742v-1.204c1.158-.009 2.082-.285 2.772-.826.691-.541 1.036-1.316 1.036-2.324v-.798h-3.808v-1.176h5.152v1.918c0 .131-.004.229-.014.294h1.806v-2.436h1.316v6.664h-1.316v-2.94h-2.058Zm6.384 8.078-2.38-1.848a4.281 4.281 0 0 1-1.414 1.246 4.098 4.098 0 0 1-1.736.532l-2.1-1.708a4.36 4.36 0 0 1-1.4 1.19 4.169 4.169 0 0 1-1.708.518v-1.26a2.635 2.635 0 0 0 1.288-.518 3.62 3.62 0 0 0 1.05-1.19c.28-.504.448-1.055.504-1.652l1.33.196a5.728 5.728 0 0 1-.448 1.708l1.848 1.386a2.77 2.77 0 0 0 1.134-.616c.355-.308.649-.691.882-1.148a4.14 4.14 0 0 0 .42-1.526l1.344.196a5.701 5.701 0 0 1-.406 1.61l2.59 1.862-.798 1.022ZM71.928 198.5v11.956h-1.386V198.5h1.386Zm-6.048 1.708a19.658 19.658 0 0 1-.378 3.78l3.906 4.83-1.092.826-3.22-4.102c-.41 1.251-.966 2.24-1.666 2.968-.69.719-1.489 1.129-2.394 1.232v-1.372c.7-.131 1.302-.56 1.806-1.288.513-.728.91-1.685 1.19-2.87.28-1.185.43-2.52.448-4.004h-3.164v-1.274h7.63v1.274H65.88Zm20.859 1.134v1.33h-1.68v4.704h-1.386V198.5h1.386v2.842h1.68Zm-5.096 3.906h-6.986v-6.454h6.986v6.454Zm-1.372-5.25h-4.242v4.046h4.242v-4.046Zm-3.808 9.044h8.918v1.26H75.063v-3.878h1.4v2.618Zm27.096-10.542v11.956h-1.386v-5.698h-2.296c-.056 1.699-.406 2.982-1.05 3.85-.635.859-1.47 1.288-2.506 1.288-1.092 0-1.96-.467-2.604-1.4-.644-.933-.966-2.319-.966-4.158 0-1.839.322-3.225.966-4.158.644-.933 1.512-1.4 2.604-1.4.999 0 1.81.392 2.436 1.176.625.784.99 1.951 1.092 3.5h2.324V198.5h1.386Zm-7.238 10.122c.654 0 1.176-.35 1.568-1.05.401-.709.602-1.787.602-3.234s-.2-2.52-.602-3.22c-.392-.709-.914-1.064-1.568-1.064-.662 0-1.195.355-1.596 1.064-.392.7-.588 1.773-.588 3.22 0 1.447.196 2.525.588 3.234.401.7.934 1.05 1.596 1.05Zm19.403-7.182v-2.94h1.372v8.918h-1.372v-4.774h-2.296v-1.204h2.296Zm-5.964 3.962a5.331 5.331 0 0 1-.952.196c-.373.047-.747.07-1.12.07h-1.568v-6.874h3.584v1.162h-2.226v4.55h.56c.7 0 1.274-.075 1.722-.224v1.12Zm4.48-.07c-.523.224-1.26.336-2.212.336h-1.75v-6.874h3.654v1.162h-2.296v4.55h.672c.784 0 1.428-.107 1.932-.322v1.148Zm3.108 3.738v1.232h-10.5v-3.626h1.414v2.394h9.086Zm18.99-4.396h-1.68v5.782h-1.386V198.5h1.386v4.844h1.68v1.33Zm-7.336-5.824c-.018 1.895-.177 3.551-.476 4.97l3.766 5.096-1.12.798-3.08-4.27c-.429 1.316-.998 2.347-1.708 3.094-.709.737-1.526 1.139-2.45 1.204v-1.4c.775-.121 1.433-.616 1.974-1.484.551-.868.966-2.002 1.246-3.402.28-1.4.425-2.954.434-4.662l1.414.056Zm20.803 3.612h-1.68v3.038h-1.386v-7h1.386v2.632h1.68v1.33Zm-6.51-1.092v-1.442h-5.6v-1.134h6.972v3.682h-5.572v1.47h3.01c.812 0 1.545-.047 2.198-.14.663-.093 1.186-.224 1.568-.392v1.134c-.373.159-.9.289-1.582.392-.672.093-1.428.14-2.268.14h-4.298v-3.71h5.572Zm-5.166 4.788h9.996v4.144h-9.996v-4.144Zm1.372 3.01h7.252v-1.876h-7.252v1.876Zm12.123-10.528h10.234v1.064h-8.848v1.694h8.988v1.064h-10.374v-3.822Zm-.854 4.844h11.942v1.078H150.77v-1.078Zm.826 3.976h8.932v-.84h-8.96v-1.036h10.318v2.856h-8.932v.84h9.142v1.036h-10.5v-2.856Zm18.605-3.808c-.999 0-1.9-.098-2.702-.294-.794-.196-1.428-.49-1.904-.882-.467-.392-.7-.873-.7-1.442s.233-1.05.7-1.442c.476-.392 1.115-.681 1.918-.868.802-.196 1.698-.294 2.688-.294.989 0 1.885.098 2.688.294.802.187 1.437.476 1.904.868.476.392.714.873.714 1.442s-.238 1.05-.714 1.442c-.467.392-1.102.686-1.904.882-.794.196-1.69.294-2.688.294Zm0-1.12c1.092 0 2.002-.131 2.73-.392.737-.271 1.106-.639 1.106-1.106 0-.467-.369-.831-1.106-1.092-.728-.261-1.638-.392-2.73-.392s-2.007.131-2.744.392c-.728.261-1.092.625-1.092 1.092 0 .467.364.835 1.092 1.106.737.261 1.652.392 2.744.392Zm-5.964 2.184h11.942v1.176h-11.942v-1.176Zm.826 2.198h1.414v2.212h9.086v1.19h-10.5v-3.402Zm27.012-8.414h1.4v11.956h-1.4V198.5Zm-5.642 11.396c-.728 0-1.362-.205-1.904-.616-.541-.401-.966-1.017-1.274-1.848-.298-.831-.448-1.862-.448-3.094 0-1.232.15-2.263.448-3.094.308-.831.733-1.447 1.274-1.848.542-.411 1.176-.616 1.904-.616.719 0 1.349.205 1.89.616.542.401.962 1.017 1.26 1.848.308.831.462 1.862.462 3.094 0 1.232-.154 2.263-.462 3.094-.298.831-.718 1.447-1.26 1.848-.541.411-1.171.616-1.89.616Zm0-1.274c.663 0 1.2-.35 1.61-1.05.411-.709.616-1.787.616-3.234 0-1.437-.205-2.511-.616-3.22-.41-.709-.947-1.064-1.61-1.064-.672 0-1.213.355-1.624 1.064-.41.7-.616 1.773-.616 3.22 0 1.447.201 2.525.602 3.234.411.7.957 1.05 1.638 1.05Zm23.625-8.4h-8.96v-1.302h10.416v8.288h-1.456v-6.986Zm-9.688 8.358h11.942v1.302H200.37v-1.302Zm23.238-10.08h1.386v7h-1.386v-7Zm-9.226 2.87h5.698v-1.442h-5.726v-1.134h7.098v3.682h-5.698v1.47h3.15c.812 0 1.545-.047 2.198-.14.663-.093 1.186-.229 1.568-.406v1.148c-.373.168-.896.299-1.568.392-.672.093-1.423.14-2.254.14h-4.466v-3.71Zm.476 4.788h10.136v4.144h-10.136v-4.144Zm8.764 3.01v-1.876h-7.392v1.876h7.392Zm9.645-6.356c-1.568 0-2.837-.173-3.808-.518-.961-.355-1.442-.91-1.442-1.666 0-.747.481-1.293 1.442-1.638.971-.355 2.24-.532 3.808-.532 1.568 0 2.833.177 3.794.532.971.345 1.456.891 1.456 1.638 0 .756-.485 1.311-1.456 1.666-.961.345-2.226.518-3.794.518Zm0-1.064c1.13 0 2.049-.093 2.758-.28.71-.187 1.064-.467 1.064-.84 0-.373-.359-.653-1.078-.84-.709-.187-1.624-.28-2.744-.28s-2.039.093-2.758.28c-.709.187-1.064.467-1.064.84 0 .373.355.653 1.064.84.71.187 1.629.28 2.758.28Zm-5.964 1.806h11.942v1.078h-11.942v-1.078Zm.826 3.906h8.932v-.84h-8.96v-1.036h10.318v2.856h-8.932v.84h9.142v1.036h-10.5v-2.856Zm29.183 1.12v1.302H245.37v-1.302h5.25v-2.688h-4.466v-7.042h1.372v2.142h7.616v-2.142h1.372v7.042h-4.48v2.688h5.278Zm-9.786-3.934h7.616v-2.408h-7.616v2.408Zm21.194-.672h-1.96v-1.232h1.96v-1.68h-1.96v-1.232h1.96v-1.33h1.372v8.89h-1.372v-3.416Zm-2.66 1.288h-6.72v-6.468h6.72v6.468Zm-1.372-5.264h-3.99v4.06h3.99v-4.06Zm5.656 9.058v1.246h-10.43v-3.878h1.414v2.632h9.016Zm13.215-10.556v11.956h-1.386v-6.328h-3.08v-1.302h3.08V198.5h1.386Zm-6.258.35c0 1.587-.116 3.071-.35 4.452l3.738 5.712-1.162.756-2.982-4.704c-.41 1.428-.97 2.548-1.68 3.36-.709.803-1.53 1.241-2.464 1.316v-1.414c.747-.121 1.377-.616 1.89-1.484.523-.868.915-1.997 1.176-3.388.271-1.4.411-2.954.42-4.662l1.414.056ZM70.472 219.222h-8.974v-1.302h10.416v7.896h-1.442v-6.594Zm2.24 8.358v1.302H60.77v-1.302h4.452v-5.334h1.428v5.334h6.062Zm13.033-7.294H74.657v-1.246h4.816v-1.694H80.9v1.694h4.844v1.246Zm-10.542 3.234c0-.812.457-1.414 1.372-1.806.915-.401 2.123-.602 3.626-.602 1.503 0 2.711.201 3.626.602.915.392 1.372.994 1.372 1.806s-.457 1.414-1.372 1.806c-.915.392-2.123.588-3.626.588-1.503 0-2.711-.196-3.626-.588-.915-.392-1.372-.994-1.372-1.806Zm8.582 0c0-.42-.327-.728-.98-.924-.644-.196-1.512-.294-2.604-.294s-1.965.098-2.618.294c-.644.196-.966.504-.966.924 0 .42.322.728.966.924.653.187 1.526.28 2.618.28 1.092 0 1.96-.093 2.604-.28.653-.196.98-.504.98-.924Zm2.394 4.102v1.26H74.237v-1.26h11.942Zm14.027-3.948h-1.68v5.782H97.14V217.5h1.386v4.844h1.68v1.33Zm-12.068-5.74h6.51v2.884c0 1.577-.262 2.963-.784 4.158-.523 1.185-1.274 2.105-2.254 2.758s-2.138.98-3.472.98v-1.316c1.073 0 1.988-.266 2.744-.798.765-.541 1.348-1.302 1.75-2.282.4-.98.602-2.137.602-3.472v-1.638h-5.096v-1.274Zm20.431-.154h1.428v5.642h8.918v1.302h-10.346v-6.944Zm-.784 9.8h11.942v1.302h-11.942v-1.302Zm23.435-4.97h-2.072v-1.176h2.072v-1.596h-1.722v-1.176h1.722V217.5h1.358v6.65h-1.358v-1.54Zm-6.328-3.374c0 .831-.149 1.577-.448 2.24-.289.663-.695 1.19-1.218 1.582a2.982 2.982 0 0 1-1.736.602v-1.19a1.81 1.81 0 0 0 1.036-.42c.317-.252.565-.597.742-1.036.187-.439.28-.943.28-1.512v-.546h-2.058v-1.162h3.402v1.442Zm4.074.042c0 .924-.168 1.731-.504 2.422-.336.691-.789 1.223-1.358 1.596a3.614 3.614 0 0 1-1.862.602v-1.19a2.381 2.381 0 0 0 1.148-.42c.364-.252.658-.611.882-1.078.233-.467.35-1.022.35-1.666v-.588h-2.17v-1.162h3.514v1.484Zm3.794 10.108-2.408-1.946a4.44 4.44 0 0 1-1.358 1.316 3.538 3.538 0 0 1-1.68.546l-2.128-1.82a4.622 4.622 0 0 1-1.358 1.274 3.518 3.518 0 0 1-1.666.546v-1.26c.439-.037.854-.219 1.246-.546.392-.327.714-.751.966-1.274a4.563 4.563 0 0 0 .462-1.708l1.33.196a5.462 5.462 0 0 1-.42 1.708l1.96 1.568c.373-.112.723-.336 1.05-.672.327-.336.597-.747.812-1.232a4.693 4.693 0 0 0 .378-1.568l1.344.196a6.296 6.296 0 0 1-.392 1.666l2.66 2.002-.798 1.008Zm11.829-8.834V217.5h1.386v8.918h-1.386v-4.676h-4.004v-1.19h4.004Zm-1.4 3.626c-.374.149-.901.266-1.582.35-.672.075-1.428.112-2.268.112h-4.13v-6.846h7.126v1.176h-5.726v4.48h2.814c1.745 0 3-.154 3.766-.462v1.19Zm3.038 3.892v1.232h-10.43v-3.626h1.414v2.394h9.016Zm21.075-6.79h-1.68v2.716h-1.386V217.5h1.386v2.45h1.68v1.33Zm-5.306-2.184c0 1.568-.606 2.721-1.82 3.458-1.204.737-2.893 1.106-5.068 1.106v-1.204c1.736-.009 3.085-.271 4.046-.784.962-.513 1.442-1.293 1.442-2.338v-.364h-5.488v-1.176h6.888v1.302Zm-6.37 5.558h9.996v4.648h-9.996v-4.648Zm1.386 3.472h7.224v-2.296h-7.224v2.296Zm21.125-8.372V217.5h1.386v6.72h-1.386v-3.262h-2.324v-1.204h2.324Zm-5.656 1.75a5.078 5.078 0 0 1-1.652 1.624c-.681.411-1.456.658-2.324.742v-1.246c.98-.131 1.764-.518 2.352-1.162.598-.653.938-1.475 1.022-2.464h-3.22v-1.19h7.63v1.19h-3.024a6.009 6.009 0 0 1-.266 1.4l3.682 2.324-.686 1.036-3.514-2.254Zm1.974 3.108c1.559 0 2.81.196 3.752.588.943.392 1.414 1.003 1.414 1.834 0 .831-.471 1.442-1.414 1.834-.942.392-2.193.588-3.752.588-1.558 0-2.809-.196-3.752-.588-.942-.392-1.414-1.003-1.414-1.834 0-.831.472-1.442 1.414-1.834.943-.392 2.194-.588 3.752-.588Zm0 3.71c1.092 0 1.979-.107 2.66-.322.691-.224 1.036-.546 1.036-.966 0-.42-.345-.737-1.036-.952-.681-.224-1.568-.336-2.66-.336s-1.983.112-2.674.336c-.681.215-1.022.532-1.022.952 0 .42.341.742 1.022.966.691.215 1.582.322 2.674.322Zm8.133-10.682h10.234v1.064h-8.848v1.694h8.988v1.064h-10.374v-3.822Zm-.854 4.844h11.942v1.078h-11.942v-1.078Zm.826 3.976h8.932v-.84h-8.96v-1.036h10.318v2.856h-8.932v.84h9.142v1.036h-10.5v-2.856Zm13.789 4.116h-1.148l.448-3.164h1.4l-.7 3.164Zm17.005-6.482h-1.316v-6.524h1.316v2.184h2.03V217.5h1.316v6.986h-1.316v-3.458h-2.03v3.066Zm-4.928-2.576c-.653 1.475-1.726 2.347-3.22 2.618v-1.26c.906-.252 1.564-.835 1.974-1.75.411-.915.616-2.077.616-3.486l1.33.042c0 .952-.088 1.801-.266 2.548l2.842 2.646-.91.91-2.366-2.268Zm3.15 3.206c1.578 0 2.856.187 3.836.56.98.373 1.47.975 1.47 1.806 0 .831-.49 1.433-1.47 1.806s-2.258.56-3.836.56c-1.577 0-2.856-.187-3.836-.56-.98-.373-1.47-.975-1.47-1.806 0-.831.49-1.433 1.47-1.806s2.259-.56 3.836-.56Zm0 3.598c1.092 0 2.002-.103 2.73-.308.738-.196 1.106-.504 1.106-.924 0-.42-.368-.728-1.106-.924-.728-.205-1.638-.308-2.73-.308s-2.006.103-2.744.308c-.728.196-1.092.504-1.092.924 0 .42.364.728 1.092.924.738.205 1.652.308 2.744.308Zm25.206-10.822v11.956h-1.316V217.5h1.316Zm-4.2.07h1.302v11.676h-1.302v-5.516h-1.484v-1.316h1.484v-4.844Zm-4.564 9.968c1.437 0 2.59-.187 3.458-.56v1.218c-.392.177-.896.313-1.512.406-.607.093-1.279.14-2.016.14h-2.296v-6.076h3.444v-3.528h-3.444v-1.204h4.746v5.936h-3.444v3.668h1.064Zm20.509-10.038h1.386v11.956h-1.386V217.5Zm-9.086.434h6.776v10.808h-6.776v-10.808Zm5.39 9.506v-8.204h-4.004v8.204h4.004Zm17.205-9.94h1.386v11.956h-1.386V217.5Zm-5.712 7.784c-.71 0-1.344-.159-1.904-.476a3.4 3.4 0 0 1-1.316-1.33c-.318-.579-.476-1.232-.476-1.96s.158-1.377.476-1.946a3.371 3.371 0 0 1 1.316-1.344c.56-.317 1.194-.476 1.904-.476.709 0 1.344.159 1.904.476.56.317.998.765 1.316 1.344.317.569.476 1.218.476 1.946s-.159 1.381-.476 1.96a3.406 3.406 0 0 1-1.316 1.33c-.56.317-1.195.476-1.904.476Zm0-1.26c.466 0 .872-.107 1.218-.322a2.32 2.32 0 0 0 .826-.896c.196-.383.294-.812.294-1.288s-.098-.905-.294-1.288a2.195 2.195 0 0 0-.826-.896 2.234 2.234 0 0 0-1.218-.336c-.467 0-.878.112-1.232.336-.355.215-.63.513-.826.896-.187.383-.28.812-.28 1.288 0 .728.214 1.33.644 1.806.429.467.994.7 1.694.7Zm-4.102 3.416h4.886c.84 0 1.605-.047 2.296-.14.69-.093 1.232-.233 1.624-.42v1.288c-.402.177-.952.317-1.652.42-.7.103-1.484.154-2.352.154h-4.802v-1.302Zm29.951-7.686V217.5h1.386v6.72h-1.386v-3.262h-2.324v-1.204h2.324Zm-5.656 1.75a5.078 5.078 0 0 1-1.652 1.624c-.681.411-1.456.658-2.324.742v-1.246c.98-.131 1.764-.518 2.352-1.162.598-.653.938-1.475 1.022-2.464h-3.22v-1.19h7.63v1.19h-3.024a6.009 6.009 0 0 1-.266 1.4l3.682 2.324-.686 1.036-3.514-2.254Zm1.974 3.108c1.559 0 2.81.196 3.752.588.943.392 1.414 1.003 1.414 1.834 0 .831-.471 1.442-1.414 1.834-.942.392-2.193.588-3.752.588-1.558 0-2.809-.196-3.752-.588-.942-.392-1.414-1.003-1.414-1.834 0-.831.472-1.442 1.414-1.834.943-.392 2.194-.588 3.752-.588Zm0 3.71c1.092 0 1.979-.107 2.66-.322.691-.224 1.036-.546 1.036-.966 0-.42-.345-.737-1.036-.952-.681-.224-1.568-.336-2.66-.336s-1.983.112-2.674.336c-.681.215-1.022.532-1.022.952 0 .42.341.742 1.022.966.691.215 1.582.322 2.674.322ZM71.928 246.376h-1.386V237.5h1.386v8.876Zm-6.958-4.606a6.153 6.153 0 0 1-1.722 1.904 5.115 5.115 0 0 1-2.296.896v-1.302a3.603 3.603 0 0 0 1.932-1.008c.56-.541.99-1.218 1.288-2.03a7.537 7.537 0 0 0 .476-2.618l1.386.084a8.252 8.252 0 0 1-.518 2.912l3.836 2.828-.826 1.008-3.556-2.674Zm7.28 6.3v1.232H61.792v-3.808h1.4v2.576h9.058Zm11.87-5.628h-1.96v-1.19h1.96v-1.484h-1.96v-1.19h1.96V237.5h1.373v6.818H84.12v-1.876Zm-2.575 1.176h-6.818v-5.908h1.358v1.708H80.2v-1.708h1.344v5.908ZM80.2 242.47v-1.932h-4.116v1.932H80.2Zm.224 2.226c1.559 0 2.81.196 3.752.588.942.383 1.414.98 1.414 1.792s-.471 1.409-1.414 1.792c-.943.392-2.194.588-3.752.588-1.559 0-2.81-.196-3.752-.588-.943-.383-1.414-.98-1.414-1.792s.471-1.409 1.414-1.792c.942-.392 2.193-.588 3.752-.588Zm0 3.626c1.092 0 1.978-.107 2.66-.322.681-.205 1.022-.513 1.022-.924 0-.411-.34-.719-1.022-.924-.681-.215-1.568-.322-2.66-.322s-1.979.107-2.66.322c-.681.205-1.022.513-1.022.924 0 .411.34.719 1.022.924.681.215 1.568.322 2.66.322Zm17.149-3.318V237.5h1.386v9.366h-1.386v-.742h-3.626v-1.12h3.626Zm-5.614-2.814c-1.064 0-1.923-.205-2.576-.616-.644-.411-.966-.985-.966-1.722s.322-1.307.966-1.708c.653-.411 1.512-.616 2.576-.616s1.918.205 2.562.616c.653.401.98.971.98 1.708s-.327 1.311-.98 1.722c-.644.411-1.498.616-2.562.616Zm0-3.57c-.654 0-1.181.107-1.582.322-.402.205-.602.509-.602.91s.2.709.602.924c.4.215.928.322 1.582.322.653 0 1.18-.107 1.582-.322.4-.215.602-.523.602-.924s-.201-.705-.602-.91c-.402-.215-.93-.322-1.582-.322Zm-.952 5.558h-3.304v-1.148h4.942c1.866 0 3.173-.159 3.92-.476v1.148c-.71.317-2.03.476-3.962.476h-.21v2.142h-1.386v-2.142Zm8.26 3.948v1.176H88.81v-3.626h1.386v2.45h9.072Zm10.506-6.132a4.987 4.987 0 0 1-1.624 1.526 5.432 5.432 0 0 1-2.212.728v-1.204c.896-.131 1.629-.49 2.198-1.078.569-.588.924-1.316 1.064-2.184h-3.136v-1.162h3.164v-1.33h1.4v1.33h3.122v1.162h-3.136a4.93 4.93 0 0 1-.294 1.148l3.64 2.114-.658 1.05-3.528-2.1Zm8.498-1.848v1.33h-1.68v3.122h-1.386V237.5h1.386v2.646h1.68Zm-6.622 4.802c1.559 0 2.8.182 3.724.546.933.355 1.4.924 1.4 1.708 0 .784-.467 1.353-1.4 1.708-.924.364-2.165.546-3.724.546-1.549 0-2.791-.182-3.724-.546-.933-.355-1.4-.924-1.4-1.708 0-.784.467-1.353 1.4-1.708.933-.364 2.175-.546 3.724-.546Zm0 3.402c1.101 0 1.983-.093 2.646-.28.672-.187 1.008-.476 1.008-.868s-.336-.681-1.008-.868c-.663-.187-1.545-.28-2.646-.28s-1.988.093-2.66.28c-.663.187-.994.476-.994.868s.331.681.994.868c.672.187 1.559.28 2.66.28Zm18.661-5.922h-10.22v-4.788h10.22v4.788Zm-1.386-3.64h-7.448v2.492h7.448v-2.492Zm2.254 4.844v1.176h-5.278v2.058h-1.4v-2.058h-5.264v-1.176h11.942Zm-9.702 4.494h9.1v1.19h-10.5v-3.486h1.4v2.296Zm28.328-6.65h-1.68v3.36h-1.386V237.5h1.386v2.646h1.68v1.33Zm-5.096 2.702h-6.986v-6.468h1.358v1.988h4.27v-1.988h1.358v6.468Zm-1.358-1.162v-2.184h-4.27v2.184h4.27Zm-5.362 2.478h4.718v3.962h-1.386v-2.772h-3.332v-1.19Zm5.418 0h4.718v3.962h-1.386v-2.772h-3.332v-1.19Zm13.327-3.682c-1.568 0-2.837-.173-3.808-.518-.961-.355-1.442-.91-1.442-1.666 0-.747.481-1.293 1.442-1.638.971-.355 2.24-.532 3.808-.532 1.568 0 2.833.177 3.794.532.971.345 1.456.891 1.456 1.638 0 .756-.485 1.311-1.456 1.666-.961.345-2.226.518-3.794.518Zm0-1.064c1.129 0 2.049-.093 2.758-.28.709-.187 1.064-.467 1.064-.84 0-.373-.359-.653-1.078-.84-.709-.187-1.624-.28-2.744-.28s-2.039.093-2.758.28c-.709.187-1.064.467-1.064.84 0 .373.355.653 1.064.84.709.187 1.629.28 2.758.28Zm-5.964 1.806h11.942v1.078H150.77v-1.078Zm.826 3.906h8.932v-.84h-8.96v-1.036h10.318v2.856h-8.932v.84h9.142v1.036h-10.5v-2.856Zm29.182 1.12v1.302h-11.942v-1.302h5.25v-2.688h-4.466v-7.042h1.372v2.142h7.616v-2.142h1.372v7.042h-4.48v2.688h5.278Zm-9.786-3.934h7.616v-2.408h-7.616v2.408Zm22.567-6.146v11.956h-1.386v-3.654h-2.03V244.5h2.03v-2.758h-2.03v-1.302h2.03v-2.94h1.386Zm-10.626.434h6.552v10.808h-6.552v-10.808Zm1.372 9.52h3.808v-8.232h-3.808v8.232Zm16.849-9.674h1.428v5.642h8.918v1.302h-10.346v-6.944Zm-.784 9.8h11.942v1.302H200.37v-1.302Zm23.434-4.97h-2.072v-1.176h2.072v-1.596h-1.722v-1.176h1.722V237.5h1.358v6.65h-1.358v-1.54Zm-6.328-3.374c0 .831-.149 1.577-.448 2.24-.289.663-.695 1.19-1.218 1.582a2.982 2.982 0 0 1-1.736.602v-1.19a1.81 1.81 0 0 0 1.036-.42c.318-.252.565-.597.742-1.036.187-.439.28-.943.28-1.512v-.546h-2.058v-1.162h3.402v1.442Zm4.074.042c0 .924-.168 1.731-.504 2.422-.336.691-.788 1.223-1.358 1.596a3.614 3.614 0 0 1-1.862.602v-1.19a2.378 2.378 0 0 0 1.148-.42c.364-.252.658-.611.882-1.078.234-.467.35-1.022.35-1.666v-.588h-2.17v-1.162h3.514v1.484Zm3.794 10.108-2.408-1.946a4.44 4.44 0 0 1-1.358 1.316 3.531 3.531 0 0 1-1.68.546l-2.128-1.82a4.61 4.61 0 0 1-1.358 1.274 3.515 3.515 0 0 1-1.666.546v-1.26c.439-.037.854-.219 1.246-.546.392-.327.714-.751.966-1.274a4.526 4.526 0 0 0 .462-1.708l1.33.196a5.462 5.462 0 0 1-.42 1.708l1.96 1.568c.374-.112.724-.336 1.05-.672.327-.336.598-.747.812-1.232a4.693 4.693 0 0 0 .378-1.568l1.344.196a6.257 6.257 0 0 1-.392 1.666l2.66 2.002-.798 1.008Zm11.829-8.834V237.5h1.386v8.918h-1.386v-4.676h-4.004v-1.19h4.004Zm-1.4 3.626c-.373.149-.9.266-1.582.35-.672.075-1.428.112-2.268.112h-4.13v-6.846h7.126v1.176h-5.726v4.48h2.814c1.746 0 3.001-.154 3.766-.462v1.19Zm3.038 3.892v1.232h-10.43v-3.626h1.414v2.394h9.016Zm16.261-8.848h-8.974v-1.302h10.416v7.896h-1.442v-6.594Zm2.24 8.358v1.302H245.37v-1.302h4.452v-5.334h1.428v5.334h6.062Zm13.032-7.294h-11.088v-1.246h4.816v-1.694h1.428v1.694h4.844v1.246Zm-10.542 3.234c0-.812.458-1.414 1.372-1.806.915-.401 2.124-.602 3.626-.602 1.503 0 2.712.201 3.626.602.915.392 1.372.994 1.372 1.806s-.457 1.414-1.372 1.806c-.914.392-2.123.588-3.626.588-1.502 0-2.711-.196-3.626-.588-.914-.392-1.372-.994-1.372-1.806Zm8.582 0c0-.42-.326-.728-.98-.924-.644-.196-1.512-.294-2.604-.294s-1.964.098-2.618.294c-.644.196-.966.504-.966.924 0 .42.322.728.966.924.654.187 1.526.28 2.618.28 1.092 0 1.96-.093 2.604-.28.654-.196.98-.504.98-.924Zm2.394 4.102v1.26h-11.942v-1.26h11.942Zm11.339-10.122h1.386v11.956h-1.386V237.5Zm-5.712 7.784c-.709 0-1.344-.159-1.904-.476a3.406 3.406 0 0 1-1.316-1.33c-.317-.579-.476-1.232-.476-1.96s.159-1.377.476-1.946a3.378 3.378 0 0 1 1.316-1.344c.56-.317 1.195-.476 1.904-.476.71 0 1.344.159 1.904.476.56.317.999.765 1.316 1.344.318.569.476 1.218.476 1.946s-.158 1.381-.476 1.96a3.4 3.4 0 0 1-1.316 1.33c-.56.317-1.194.476-1.904.476Zm0-1.26c.467 0 .873-.107 1.218-.322.355-.224.63-.523.826-.896.196-.383.294-.812.294-1.288s-.098-.905-.294-1.288a2.188 2.188 0 0 0-.826-.896 2.229 2.229 0 0 0-1.218-.336 2.26 2.26 0 0 0-2.058 1.232 2.91 2.91 0 0 0-.28 1.288c0 .728.215 1.33.644 1.806.43.467.994.7 1.694.7Zm-4.102 3.416h4.886c.84 0 1.606-.047 2.296-.14.691-.093 1.232-.233 1.624-.42v1.288c-.401.177-.952.317-1.652.42-.7.103-1.484.154-2.352.154h-4.802v-1.302ZM71.956 256.5v11.956H70.57V256.5h1.386Zm-6.3 9.94c1.83 0 3.136-.168 3.92-.504v1.302c-.821.336-2.123.504-3.906.504h-4.9v-1.302h3.402v-2.436a3.63 3.63 0 0 1-1.568-.63 3.522 3.522 0 0 1-1.05-1.26 3.823 3.823 0 0 1-.378-1.708c0-.709.159-1.339.476-1.89.317-.551.756-.98 1.316-1.288.56-.317 1.195-.476 1.904-.476.71 0 1.344.159 1.904.476.56.308.999.742 1.316 1.302.317.551.476 1.176.476 1.876 0 .625-.126 1.195-.378 1.708a3.326 3.326 0 0 1-1.064 1.26 3.64 3.64 0 0 1-1.582.63v2.436h.112Zm-3.122-6.034c0 .448.093.854.28 1.218.196.364.471.653.826.868.355.205.765.308 1.232.308a2.39 2.39 0 0 0 1.218-.308 2.24 2.24 0 0 0 .826-.868c.196-.364.294-.77.294-1.218 0-.448-.098-.854-.294-1.218a2.117 2.117 0 0 0-.826-.868 2.303 2.303 0 0 0-1.218-.322 2.33 2.33 0 0 0-1.232.322c-.355.205-.63.495-.826.868a2.63 2.63 0 0 0-.28 1.218Zm23.645 6.202v1.274H74.237v-1.274h5.236v-2.254h-4.438v-4.312h8.988v-1.876h-8.988v-1.232h10.36v4.298H76.42v1.89h9.156v1.232h-4.69v2.254h5.292Zm7.489-5.012c-1.54 0-2.81-.219-3.808-.658-1-.439-1.498-1.083-1.498-1.932 0-.84.499-1.479 1.498-1.918.998-.439 2.268-.658 3.808-.658s2.809.219 3.808.658c.998.439 1.498 1.078 1.498 1.918 0 .849-.5 1.493-1.498 1.932-1 .439-2.268.658-3.808.658Zm0-4.046c-1.102 0-2.016.126-2.744.378-.728.252-1.092.611-1.092 1.078 0 .467.364.831 1.092 1.092.728.252 1.642.378 2.744.378 1.1 0 2.016-.126 2.744-.378.728-.261 1.092-.625 1.092-1.092 0-.467-.364-.826-1.092-1.078-.728-.252-1.643-.378-2.744-.378Zm5.978 5.082v1.176h-5.278v2.058h-1.4v-2.058h-5.264v-1.176h11.942Zm-9.702 4.494h9.086v1.19h-10.5v-3.402h1.414v2.212Zm29.806-6.846h-1.68v2.716h-1.386V256.5h1.386v2.45h1.68v1.33Zm-5.306-2.184c0 1.568-.607 2.721-1.82 3.458-1.204.737-2.893 1.106-5.068 1.106v-1.204c1.736-.009 3.085-.271 4.046-.784.961-.513 1.442-1.293 1.442-2.338v-.364h-5.488v-1.176h6.888v1.302Zm-6.37 5.558h9.996v4.648h-9.996v-4.648Zm1.386 3.472h7.224v-2.296h-7.224v2.296Zm21.125-8.372V256.5h1.386v6.72h-1.386v-3.262h-2.324v-1.204h2.324Zm-5.656 1.75a5.088 5.088 0 0 1-1.652 1.624c-.682.411-1.456.658-2.324.742v-1.246c.98-.131 1.764-.518 2.352-1.162.597-.653.938-1.475 1.022-2.464h-3.22v-1.19h7.63v1.19h-3.024a6.06 6.06 0 0 1-.266 1.4l3.682 2.324-.686 1.036-3.514-2.254Zm1.974 3.108c1.558 0 2.809.196 3.752.588.942.392 1.414 1.003 1.414 1.834 0 .831-.472 1.442-1.414 1.834-.943.392-2.194.588-3.752.588-1.559 0-2.81-.196-3.752-.588-.943-.392-1.414-1.003-1.414-1.834 0-.831.471-1.442 1.414-1.834.942-.392 2.193-.588 3.752-.588Zm0 3.71c1.092 0 1.978-.107 2.66-.322.69-.224 1.036-.546 1.036-.966 0-.42-.346-.737-1.036-.952-.682-.224-1.568-.336-2.66-.336s-1.984.112-2.674.336c-.682.215-1.022.532-1.022.952 0 .42.34.742 1.022.966.69.215 1.582.322 2.674.322Zm13.242-6.51c-1.568 0-2.837-.173-3.808-.518-.961-.355-1.442-.91-1.442-1.666 0-.747.481-1.293 1.442-1.638.971-.355 2.24-.532 3.808-.532 1.568 0 2.833.177 3.794.532.971.345 1.456.891 1.456 1.638 0 .756-.485 1.311-1.456 1.666-.961.345-2.226.518-3.794.518Zm0-1.064c1.13 0 2.049-.093 2.758-.28.71-.187 1.064-.467 1.064-.84 0-.373-.359-.653-1.078-.84-.709-.187-1.624-.28-2.744-.28s-2.039.093-2.758.28c-.709.187-1.064.467-1.064.84 0 .373.355.653 1.064.84.71.187 1.629.28 2.758.28Zm-5.964 1.806h11.942v1.078h-11.942v-1.078Zm.826 3.906h8.932v-.84h-8.96v-1.036h10.318v2.856h-8.932v.84h9.142v1.036h-10.5v-2.856Zm19.503-8.68h1.428v5.642h8.918v1.302H154.51v-6.944Zm-.784 9.8h11.942v1.302h-11.942v-1.302Zm23.337-10.08h1.358v5.852h-1.358V256.5Zm-9.576 4.34c.653-.037 1.194-.285 1.624-.742.438-.467.658-1.083.658-1.848v-.336h-2.282v-1.12h3.584v1.218c0 .747-.154 1.419-.462 2.016a3.694 3.694 0 0 1-1.288 1.414 3.532 3.532 0 0 1-1.834.546v-1.148Zm3.962.21a3.107 3.107 0 0 0 1.26-.35 2.59 2.59 0 0 0 .98-.924c.252-.401.378-.887.378-1.456v-.406h-2.436v-1.12h3.752v1.26c0 .84-.178 1.573-.532 2.198a3.752 3.752 0 0 1-1.428 1.428 4.414 4.414 0 0 1-1.974.532v-1.162Zm-3.22 4.088h8.82v-1.036h-8.848v-1.092h10.22v3.164h-8.806v1.036h9.1v1.092h-10.486v-3.164Zm24.346-5.25a7.316 7.316 0 0 1-2.478 2.156 6.52 6.52 0 0 1-3.08.798v-1.316c.84 0 1.652-.224 2.436-.672a6.283 6.283 0 0 0 2.016-1.862c.55-.784.91-1.643 1.078-2.576l1.428.224a8.149 8.149 0 0 1-.728 2.184l5.124 2.842-.644 1.162-5.152-2.94Zm6.104 5.502h-5.278v3.346h-1.414v-3.346h-5.25v-1.288h11.942v1.288Zm18.76-2.24h-1.386v-6.65h1.386v6.65Zm-3.5-3.416c0 .616-.154 1.157-.462 1.624-.308.467-.747.831-1.316 1.092-.56.261-1.213.392-1.96.392-.756 0-1.419-.131-1.988-.392-.56-.261-.994-.625-1.302-1.092-.308-.467-.462-1.008-.462-1.624 0-.607.154-1.143.462-1.61.308-.476.742-.845 1.302-1.106.569-.261 1.232-.392 1.988-.392.747 0 1.4.131 1.96.392.569.261 1.008.63 1.316 1.106.308.467.462 1.003.462 1.61Zm-6.104 0c0 .607.215 1.087.644 1.442.439.345 1.013.518 1.722.518.7 0 1.265-.173 1.694-.518.439-.355.658-.835.658-1.442s-.219-1.083-.658-1.428c-.429-.355-.994-.532-1.694-.532-.709 0-1.283.177-1.722.532-.429.345-.644.821-.644 1.428Zm9.744 8.624-2.296-1.918c-.364.56-.807.999-1.33 1.316a3.432 3.432 0 0 1-1.652.546l-2.03-1.792a4.368 4.368 0 0 1-1.33 1.26 3.486 3.486 0 0 1-1.624.532v-1.26c.429-.037.835-.219 1.218-.546.392-.336.714-.765.966-1.288a4.7 4.7 0 0 0 .448-1.694l1.344.182a6.132 6.132 0 0 1-.448 1.764l1.834 1.512c.373-.112.719-.336 1.036-.672.317-.336.579-.747.784-1.232a4.787 4.787 0 0 0 .364-1.554l1.344.196a6.473 6.473 0 0 1-.378 1.666l2.576 2.002-.826.98Zm11.871-10.136h-8.974v-1.302h10.416v7.896h-1.442v-6.594Zm2.24 8.358v1.302h-11.942v-1.302h4.452v-5.334h1.428v5.334h6.062Zm17.29-8.358h-8.96v-1.302h10.416v8.288h-1.456v-6.986Zm-9.688 8.358h11.942v1.302h-11.942v-1.302ZM270.4 256.5v11.956h-1.26v-5.894h-1.582v5.684h-1.26V256.57h1.26v4.746h1.582V256.5h1.26Zm-9.912 10.066c.644 0 1.148-.07 1.512-.21v1.148c-.438.159-1.064.238-1.876.238h-1.022v-10.808h2.842v1.176h-1.582v8.456h.126Zm3.43 0c.822 0 1.424-.098 1.806-.294v1.162c-.457.205-1.143.308-2.058.308h-1.204v-10.808h3.01v1.176h-1.75v8.456h.196Zm19.459-5.138h-10.22v-4.788h10.22v4.788Zm-1.386-3.64h-7.448v2.492h7.448v-2.492Zm2.254 4.844v1.176h-5.278v2.058h-1.4v-2.058h-5.264v-1.176h11.942Zm-9.702 4.494h9.1v1.19h-10.5v-3.486h1.4v2.296ZM72.264 275.5v11.956h-1.316V275.5h1.316Zm-4.2.07h1.302v11.676h-1.302V281.8h-1.582c-.037 1.745-.29 3.033-.756 3.864-.467.821-1.139 1.232-2.016 1.232-.924 0-1.62-.448-2.086-1.344-.467-.905-.7-2.31-.7-4.214 0-1.904.233-3.304.7-4.2.467-.905 1.162-1.358 2.086-1.358.85 0 1.503.383 1.96 1.148.467.765.733 1.951.798 3.556h1.596v-4.914Zm-4.354 10.066c.495 0 .859-.35 1.092-1.05.243-.7.364-1.783.364-3.248 0-1.465-.121-2.548-.364-3.248-.233-.7-.597-1.05-1.092-1.05-.495 0-.863.35-1.106 1.05-.243.7-.364 1.783-.364 3.248 0 1.465.121 2.548.364 3.248.243.7.611 1.05 1.106 1.05ZM89.417 275.5v11.956H88.03v-5.796h-4.424v-1.302h4.424V275.5h1.386Zm-6.048 9.982c.569 0 1.134-.051 1.694-.154.569-.103 1.036-.238 1.4-.406v1.26c-.355.168-.826.303-1.414.406a9.966 9.966 0 0 1-1.75.154H78.79v-10.808h6.944v1.26h-5.53v8.288h3.164Zm24.684-3.808h-1.68v5.782h-1.386V275.5h1.386v4.844h1.68v1.33Zm-8.554-5.894c.71 0 1.33.205 1.862.616.532.401.948 1.017 1.246 1.848.299.831.448 1.862.448 3.094 0 1.232-.149 2.263-.448 3.094-.298.831-.714 1.447-1.246 1.848-.532.411-1.152.616-1.862.616-1.092 0-1.96-.467-2.604-1.4-.644-.933-.966-2.319-.966-4.158 0-1.839.322-3.225.966-4.158.644-.933 1.512-1.4 2.604-1.4Zm0 9.842c.654 0 1.176-.35 1.568-1.05.402-.709.602-1.787.602-3.234s-.2-2.52-.602-3.22c-.392-.709-.914-1.064-1.568-1.064-.662 0-1.194.355-1.596 1.064-.392.7-.588 1.773-.588 3.22 0 1.447.196 2.525.588 3.234.402.7.934 1.05 1.596 1.05Zm10.387-8.008h8.862v-.938h-8.862v-1.036h10.22v2.968h-8.862v.938h9.03v1.036h-10.388v-2.968Zm-.868 3.976h11.942v1.078h-11.942v-1.078Zm.826 2.086h10.276v3.64h-10.276v-3.64Zm8.904 2.59v-1.54h-7.532v1.54h7.532Zm16.239-7.084h-1.68v2.45h-1.386V275.5h1.386v2.366h1.68v1.316Zm-3.934 1.568c-.373.159-.901.289-1.582.392-.672.093-1.428.14-2.268.14h-4.298v-5.488h7.294v1.176h-5.908v3.15h2.996c.812 0 1.545-.047 2.198-.14.663-.093 1.185-.224 1.568-.392v1.162Zm.896 1.54h1.358v5.012h-9.996v-5.012h1.358v1.274h7.28v-1.274Zm0 3.878v-1.484h-7.28v1.484h7.28Zm16.505-4.494h-1.68v5.782h-1.386V275.5h1.386v4.844h1.68v1.33Zm-7.196 3.808c.569 0 1.134-.051 1.694-.154.569-.103 1.036-.243 1.4-.42v1.26c-.355.177-.826.317-1.414.42a9.97 9.97 0 0 1-1.75.154h-4.676v-10.808h6.902v1.26h-5.488v8.288h3.332Zm17.862-8.26h-8.974v-1.302h10.416v7.896h-1.442v-6.594Zm2.24 8.358v1.302h-11.942v-1.302h4.452v-5.334h1.428v5.334h6.062Zm6.233-9.8h1.428v5.642h8.918v1.302h-10.346v-6.944Zm-.784 9.8h11.942v1.302h-11.942v-1.302Zm23.337-10.08h1.358v8.876h-1.358V275.5Zm-9.576 5.53a2.063 2.063 0 0 0 1.176-.49c.345-.289.616-.677.812-1.162.196-.485.294-1.036.294-1.652v-.756h-2.282v-1.176h3.584v1.68c0 .887-.154 1.689-.462 2.408-.299.709-.723 1.274-1.274 1.694a3.15 3.15 0 0 1-1.848.672v-1.218Zm3.962.28a2.45 2.45 0 0 0 1.274-.49c.401-.289.723-.695.966-1.218s.364-1.129.364-1.82v-.812h-2.408v-1.176h3.738v1.722c0 .989-.173 1.857-.518 2.604-.345.747-.817 1.325-1.414 1.736a3.708 3.708 0 0 1-2.002.658v-1.204Zm-3.234 2.184h1.414v2.548h9.086v1.26h-10.5v-3.808Zm24.947-1.82h-1.68v5.782h-1.386V275.5h1.386v4.844h1.68v1.33Zm-7.196 3.808c.569 0 1.134-.051 1.694-.154.569-.103 1.036-.243 1.4-.42v1.26c-.355.177-.826.317-1.414.42a9.97 9.97 0 0 1-1.75.154h-4.676v-10.808h6.902v1.26h-5.488v8.288h3.332Zm9.196 1.862a.972.972 0 0 1-.714-.294.953.953 0 0 1-.28-.7c0-.28.094-.513.28-.7a.972.972 0 0 1 .714-.294c.28 0 .514.098.7.294.187.187.28.42.28.7 0 .28-.093.513-.28.7a.926.926 0 0 1-.7.294ZM156.705 46.462c-.831-.896-1.475-1.857-1.932-2.884-.448-1.027-.672-2.147-.672-3.36s.224-2.333.672-3.36c.457-1.027 1.101-1.988 1.932-2.884h1.554c-.85.868-1.517 1.83-2.002 2.884a7.932 7.932 0 0 0-.728 3.36c0 1.185.242 2.305.728 3.36a10.187 10.187 0 0 0 2.002 2.884h-1.554Zm6.725-.294c-.802 0-1.516-.22-2.142-.658-.625-.439-1.115-1.097-1.47-1.974-.354-.887-.532-1.965-.532-3.234 0-1.27.178-2.343.532-3.22.355-.887.845-1.55 1.47-1.988.626-.439 1.34-.658 2.142-.658.803 0 1.512.22 2.128.658.626.439 1.116 1.101 1.47 1.988.355.877.532 1.95.532 3.22 0 1.27-.177 2.347-.532 3.234-.354.877-.844 1.535-1.47 1.974-.616.439-1.325.658-2.128.658Zm0-1.302c.514 0 .976-.173 1.386-.518.411-.345.733-.859.966-1.54.243-.681.364-1.517.364-2.506 0-.98-.121-1.81-.364-2.492-.233-.69-.555-1.209-.966-1.554a2.095 2.095 0 0 0-1.386-.518c-.522 0-.989.173-1.4.518-.41.345-.737.863-.98 1.554-.233.681-.35 1.512-.35 2.492 0 .99.117 1.825.35 2.506.243.681.57 1.195.98 1.54.411.345.878.518 1.4.518Zm10.869-1.484h-5.656v-1.246l5.32-7.434h1.736v7.434h1.834v1.246h-1.834v2.534h-1.4v-2.534Zm0-1.246v-5.824l-4.144 5.824h4.144Zm3.832 4.326a9.792 9.792 0 0 0 1.988-2.87 8.041 8.041 0 0 0 .728-3.374 7.948 7.948 0 0 0-.728-3.36 9.733 9.733 0 0 0-1.988-2.884h1.54c1.736 1.857 2.604 3.939 2.604 6.244 0 2.305-.868 4.387-2.604 6.244h-1.54Z" fill="#fff"/></svg>