<svg width="356" height="356" viewBox="0 0 356 356" fill="none" xmlns="http://www.w3.org/2000/svg">
<circle cx="178.455" cy="177.657" r="144.958" transform="rotate(-15 178.455 177.657)" fill="white"/>
<path d="M116.684 178.752C118.67 178.22 120.569 178.113 122.381 178.432C124.193 178.751 125.754 179.456 127.064 180.548C128.389 181.612 129.324 182.981 129.868 184.657L123.645 186.324C123.149 185.18 122.382 184.392 121.344 183.961C120.306 183.529 119.069 183.506 117.635 183.89C116.267 184.257 115.265 184.797 114.628 185.512C113.986 186.204 113.777 186.97 114.002 187.808C114.179 188.47 114.567 188.946 115.165 189.235C115.763 189.524 116.602 189.701 117.684 189.766C118.782 189.803 120.344 189.763 122.37 189.646C125.515 189.465 127.92 189.921 129.584 191.012C131.264 192.076 132.391 193.678 132.965 195.818C133.414 197.496 133.322 199.093 132.688 200.611C132.076 202.123 131.031 203.432 129.554 204.538C128.082 205.665 126.331 206.501 124.301 207.045C122.094 207.636 120.004 207.782 118.032 207.483C116.088 207.2 114.408 206.491 112.992 205.357C111.598 204.216 110.603 202.709 110.007 200.835L116.196 199.176C116.722 200.431 117.621 201.314 118.893 201.824C120.181 202.307 121.675 202.32 123.374 201.865C124.61 201.534 125.551 200.986 126.198 200.222C126.866 199.451 127.082 198.625 126.846 197.742C126.657 197.036 126.279 196.51 125.714 196.165C125.17 195.814 124.38 195.6 123.342 195.523C122.327 195.44 120.939 195.469 119.179 195.61C116.002 195.846 113.483 195.492 111.621 194.548C109.76 193.604 108.501 191.907 107.845 189.458C107.419 187.869 107.524 186.363 108.16 184.939C108.817 183.509 109.891 182.264 111.38 181.202C112.864 180.119 114.632 179.302 116.684 178.752ZM151.97 199.631C149.234 200.364 146.597 200.408 144.059 199.764C141.549 199.136 139.378 197.92 137.547 196.116C135.732 194.285 134.463 192.023 133.742 189.331C133.021 186.638 132.991 184.056 133.653 181.585C134.332 179.085 135.601 176.936 137.46 175.137C139.336 173.31 141.642 172.029 144.378 171.296C146.783 170.652 149.053 170.516 151.188 170.891C153.344 171.259 155.225 172.056 156.831 173.281C158.436 174.507 159.684 176.029 160.573 177.848L154.483 179.48C153.797 178.245 152.674 177.363 151.113 176.835C149.575 176.302 147.867 176.286 145.992 176.789C144.381 177.22 143.025 177.986 141.924 179.085C140.817 180.162 140.066 181.463 139.67 182.988C139.291 184.485 139.323 186.061 139.766 187.716C140.204 189.349 140.964 190.73 142.047 191.859C143.152 192.982 144.456 193.745 145.959 194.146C147.457 194.525 149.011 194.499 150.622 194.068C151.857 193.736 152.951 193.183 153.902 192.408C154.875 191.627 155.612 190.755 156.111 189.794C156.632 188.826 156.861 187.914 156.796 187.056L162.887 185.424C163.091 187.332 162.791 189.258 161.987 191.2C161.182 193.142 159.906 194.867 158.158 196.376C156.438 197.902 154.376 198.986 151.97 199.631ZM167.799 165.766L175.027 192.743L169.003 194.357L161.774 167.38L167.799 165.766ZM195.854 187.163L188.344 180.057L183.545 181.343L185.824 189.85L179.8 191.464L172.571 164.487L183.428 161.578C185.679 160.975 187.725 160.84 189.565 161.175C191.399 161.488 192.932 162.224 194.165 163.384C195.399 164.543 196.264 166.05 196.76 167.904C197.257 169.757 197.261 171.495 196.773 173.116C196.301 174.708 195.371 176.093 193.983 177.269L202.838 185.291L195.854 187.163ZM182.117 176.014L186.685 174.79C188.296 174.358 189.454 173.693 190.159 172.795C190.881 171.868 191.073 170.776 190.736 169.518C190.399 168.26 189.689 167.421 188.607 167.002C187.541 166.554 186.203 166.546 184.592 166.978L180.024 168.202L182.117 176.014ZM198.399 157.566L208.76 154.79C211.077 154.169 213.173 154.045 215.046 154.418C216.942 154.785 218.53 155.59 219.809 156.832C221.087 158.074 221.993 159.688 222.525 161.674C223.063 163.682 223.092 165.555 222.611 167.292C222.125 169.007 221.152 170.498 219.694 171.763C218.258 173.023 216.381 173.964 214.064 174.585L209.728 175.747L211.652 182.93L205.628 184.544L198.399 157.566ZM212.371 169.326C214.07 168.871 215.277 168.122 215.991 167.079C216.727 166.031 216.897 164.767 216.501 163.288C216.105 161.81 215.329 160.812 214.173 160.293C213.039 159.769 211.622 159.735 209.923 160.19L205.852 161.281L208.3 170.417L212.371 169.326ZM246.602 150.362L237.83 152.713L243.631 174.361L237.606 175.975L231.805 154.327L223.034 156.677L221.606 151.348L245.174 145.033L246.602 150.362Z" fill="black"/>
</svg>
